<svg xmlns="http://www.w3.org/2000/svg" width="83.623" height="61.32" viewBox="0 0 83.623 61.32">
  <g id="fast-forward" transform="translate(0 -64.013)" opacity="0.53">
    <g id="Groupe_26" data-name="Groupe 26" transform="translate(36.235 64.013)">
      <g id="Groupe_25" data-name="Groupe 25" transform="translate(0 0)">
        <path id="Tracé_106" data-name="Tracé 106" d="M254.673,92.811,229.588,64.938a2.789,2.789,0,0,0-2.074-.925H210.79a2.785,2.785,0,0,0-2.074,4.649l23.408,26.011-23.408,26.005a2.79,2.79,0,0,0,2.074,4.655h16.724a2.825,2.825,0,0,0,2.074-.92L254.673,96.54A2.789,2.789,0,0,0,254.673,92.811Z" transform="translate(-208 -64.013)" fill="#7d8f41"/>
      </g>
    </g>
    <g id="Groupe_28" data-name="Groupe 28" transform="translate(0 64.013)">
      <g id="Groupe_27" data-name="Groupe 27" transform="translate(0 0)">
        <path id="Tracé_107" data-name="Tracé 107" d="M46.673,92.811,21.588,64.938a2.789,2.789,0,0,0-2.074-.925H2.79A2.785,2.785,0,0,0,.717,68.662L24.124,94.673.717,120.678a2.79,2.79,0,0,0,2.074,4.655H19.514a2.825,2.825,0,0,0,2.074-.92L46.673,96.54A2.789,2.789,0,0,0,46.673,92.811Z" transform="translate(0 -64.013)" fill="#7d8f41"/>
      </g>
    </g>
  </g>
</svg>
