<svg id="Composant_99_1" data-name="Composant 99 – 1" xmlns="http://www.w3.org/2000/svg" xmlns:xlink="http://www.w3.org/1999/xlink" width="1077.634" height="500.013" viewBox="0 0 1077.634 500.013">
  <defs>
    <linearGradient id="linear-gradient" x1="0.008" x2="1.074" y2="0.785" gradientUnits="objectBoundingBox">
      <stop offset="0" stop-color="#7d8f41"/>
      <stop offset="1" stop-color="#3f4821"/>
    </linearGradient>
  </defs>
  <path id="Tracé_522" data-name="Tracé 522" d="M0,0,951.715.587s12.328,9.571,32.955,32.723a307.763,307.763,0,0,1,34.307,45.462c9.226,14.814,32.008,58.568,20.416,92.4-1.194,3.484-4.118,12.89-17.258,24.625-12.677,11.322-35.552,24.972-41.042,28.835-6.636,4.669-24.41,16.607-39.611,31.55a215.7,215.7,0,0,0-32.56,41.863,142.44,142.44,0,0,0-18.605,70.866,246,246,0,0,0,7.935,58.553,312.807,312.807,0,0,0,29.824,72.507L0,500Z" transform="translate(35.026 0.013)" fill="#774418"/>
  <path id="Tracé_521" data-name="Tracé 521" d="M4.23,4.291C9.057-.593,19.306.011,19.306.011L842.028.476s42.678,13.612,84.836,34.291c19.261,9.447,39.058,19.643,55.856,30.276,10.27,6.5,34.719,22.533,51.161,41.123,12.828,14.5,19.212,30.938,19.254,43.536.033,9.722-2.959,22.694-9.471,32.623-7.434,11.337-18.879,19.037-22.621,22.084-9.127,7.432-31.826,20.378-49.894,34.264a226.087,226.087,0,0,0-30.623,28.892c-26.284,29.006-38.877,68.53-39.987,93.276-2.893,64.474,36.53,138.722,36.53,138.722L13.2,499.994s-7.094-1.008-10.395-4.485S0,486.085,0,486.085V19.546S-.6,9.175,4.23,4.291Z" transform="translate(0.026 0.013)" fill="url(#linear-gradient)"/>
</svg>
