<svg xmlns="http://www.w3.org/2000/svg" xmlns:xlink="http://www.w3.org/1999/xlink" width="154.273" height="144.707" viewBox="0 0 154.273 144.707">
  <defs>
    <linearGradient id="linear-gradient" x1="0.5" y1="1" x2="1.057" y2="0.185" gradientUnits="objectBoundingBox">
      <stop offset="0" stop-color="#7d8f41"/>
      <stop offset="1" stop-color="#606c38"/>
    </linearGradient>
    <filter id="Tracé_111" x="0" y="0" width="154.273" height="144.707" filterUnits="userSpaceOnUse">
      <feOffset dy="15" input="SourceAlpha"/>
      <feGaussianBlur stdDeviation="7.5" result="blur"/>
      <feFlood flood-opacity="0.161"/>
      <feComposite operator="in" in2="blur"/>
      <feComposite in="SourceGraphic"/>
    </filter>
  </defs>
  <g id="Icon" transform="translate(23 8)">
    <g transform="matrix(1, 0, 0, 1, -23, -8)" filter="url(#Tracé_111)">
      <path id="Tracé_111-2" data-name="Tracé 111" d="M68.157,96.246c-25,0-55.071-25.354-55.071-50.355,0-21.151,18.724-47.06,39.368-48.352,17.373.318,23.917,9.165,39.6,21.607,13.905,11.03,29.4,12.016,29.3,26.745C121.358,70.893,93.158,96.246,68.157,96.246Z" transform="translate(9.91 10.46)" stroke="#707070" stroke-width="1" fill="url(#linear-gradient)"/>
    </g>
    <g id="battery-charge" transform="translate(-418.23 643.313)">
      <g id="Groupe_55" data-name="Groupe 55" transform="translate(446 -619)">
        <path id="Tracé_129" data-name="Tracé 129" d="M1,12.5v4a3,3,0,0,0,2,2.816V46.5a3,3,0,0,0,3,3H46a3,3,0,0,0,3-3V19.316A3,3,0,0,0,51,16.5v-4a3,3,0,0,0-3-3v-3a1,1,0,0,0-1-1H45v-3a1,1,0,0,0-1-1H38a1,1,0,0,0-1,1v3H35a1,1,0,0,0-1,1v3H18v-3a1,1,0,0,0-1-1H15v-3a1,1,0,0,0-1-1H8a1,1,0,0,0-1,1v3H5a1,1,0,0,0-1,1v3a3,3,0,0,0-3,3Zm12-7H9v-2h4Zm3,4H6v-2H16Zm27-4H39v-2h4Zm3,4H36v-2H46ZM5,19.5H47v24H5Zm0,27v-1H47v1a1,1,0,0,1-1,1H6a1,1,0,0,1-1-1Zm-2-34a1,1,0,0,1,1-1H48a1,1,0,0,1,1,1v4a1,1,0,0,1-1,1H4a1,1,0,0,1-1-1Z" fill="#fff"/>
        <path id="Tracé_130" data-name="Tracé 130" d="M22,32.5H17v5a1,1,0,0,1-2,0v-5H10a1,1,0,0,1,0-2h5v-5a1,1,0,0,1,2,0v5h5a1,1,0,0,1,0,2Z" fill="#fff"/>
        <path id="Tracé_131" data-name="Tracé 131" d="M42,32.5H30a1,1,0,0,1,0-2H42a1,1,0,0,1,0,2Z" fill="#fff"/>
      </g>
    </g>
  </g>
</svg>
