<svg xmlns="http://www.w3.org/2000/svg" width="49.024" height="47.712" viewBox="0 0 49.024 47.712">
  <g id="shopping-cart" transform="translate(0 -6.028)">
    <g id="Groupe_60" data-name="Groupe 60" transform="translate(0 6.028)">
      <g id="Groupe_59" data-name="Groupe 59" transform="translate(0 0)">
        <path id="Tracé_184" data-name="Tracé 184" d="M101.771,350.322a5.118,5.118,0,1,0,5.118,5.118A5.118,5.118,0,0,0,101.771,350.322Zm0,7.962a2.843,2.843,0,1,1,2.843-2.843A2.843,2.843,0,0,1,101.771,358.284Z" transform="translate(-86.132 -312.846)" fill="#fff"/>
        <path id="Tracé_185" data-name="Tracé 185" d="M300.3,350.322a5.118,5.118,0,1,0,5.118,5.118A5.118,5.118,0,0,0,300.3,350.322Zm0,7.962a2.843,2.843,0,1,1,2.843-2.843A2.843,2.843,0,0,1,300.3,358.284Z" transform="translate(-263.054 -312.846)" fill="#fff"/>
        <path id="Tracé_186" data-name="Tracé 186" d="M48.792,13.648a1.422,1.422,0,0,0-.91-.455l-37.021-.512L9.838,9.554A5.232,5.232,0,0,0,4.947,6.028H1.137a1.137,1.137,0,0,0,0,2.275h3.81a2.957,2.957,0,0,1,2.73,1.99L14.9,32.073l-.569,1.308a5.459,5.459,0,0,0,.512,4.947,5.289,5.289,0,0,0,4.265,2.388H41.229a1.137,1.137,0,0,0,0-2.275H19.108a2.9,2.9,0,0,1-2.388-1.365,3.128,3.128,0,0,1-.284-2.73l.455-1.024,23.941-2.5a6.255,6.255,0,0,0,5.4-4.777l2.73-11.43A.967.967,0,0,0,48.792,13.648ZM44.016,25.534a3.867,3.867,0,0,1-3.469,3.014L16.89,30.993,11.6,14.956l34.86.512Z" transform="translate(0 -6.028)" fill="#fff"/>
      </g>
    </g>
  </g>
</svg>
