<svg xmlns="http://www.w3.org/2000/svg" width="63.305" height="59.903" viewBox="0 0 63.305 59.903">
  <g id="promotion" transform="translate(0 0)">
    <path id="Tracé_448" data-name="Tracé 448" d="M24.416,210.293l7.419,12.849-10.708,6.182a7.418,7.418,0,0,1-7.419-12.849Zm0,0" transform="translate(-8.762 -184.292)" fill="#2bbdc4"/>
    <path id="Tracé_449" data-name="Tracé 449" d="M271.078,58.5A2.473,2.473,0,0,1,269,62.208l-1.391.273-.031-.157L251.659,34.756l-.1-.082.89-1.134a2.473,2.473,0,0,1,4.252.051C281.4,76.375,250.236,22.4,271.079,58.5Zm0,0" transform="translate(-220.453 -28.354)" fill="#2bbdc4"/>
    <path id="Tracé_450" data-name="Tracé 450" d="M113.229,345.994A3.709,3.709,0,0,1,106.8,349.7l-6.8-11.78,6.425-3.709,6.8,11.78Zm0,0" transform="translate(-87.639 -292.891)" fill="#495d85"/>
    <path id="Tracé_451" data-name="Tracé 451" d="M338.656,108.934l2.473,4.283-3.047,4.614-4.946-8.566Zm0,0" transform="translate(-291.947 -95.465)" fill="#e9eef0"/>
    <path id="Tracé_452" data-name="Tracé 452" d="M158.074,78.763l.031.157-24.082,4.723L126.6,70.794l15.449-19.681.1.082Zm0,0" transform="translate(-110.951 -44.793)" fill="#adf3ff"/>
    <path id="Tracé_453" data-name="Tracé 453" d="M123.818,291.882a1.236,1.236,0,1,0-1.689-.453A1.237,1.237,0,0,0,123.818,291.882Zm0,0" transform="translate(-106.884 -253.771)"/>
    <path id="Tracé_454" data-name="Tracé 454" d="M11.868,66.236l6.227,10.785a4.946,4.946,0,1,0,8.566-4.945L22.951,65.65,26.163,63.8a1.237,1.237,0,0,0,.453-1.689l-1.608-2.785L48.69,54.677A3.709,3.709,0,0,0,51.7,49.119L47.587,42l2.626-3.977a1.237,1.237,0,0,0,.039-1.3L47.78,32.442a1.239,1.239,0,0,0-1.145-.616l-4.757.285-4.562-7.9a3.677,3.677,0,0,0-3.166-1.854H34.1a3.677,3.677,0,0,0-3.123,1.71L14.828,44.641,4.328,50.7a8.655,8.655,0,0,0,7.54,15.532Zm12.652,7.077a2.473,2.473,0,0,1-4.284,2.472L14.054,65.076,18.337,62.6l6.183,10.709Zm-2.8-9.8-1.236-2.142L22.62,60.13l1.236,2.142ZM46.02,34.34l1.709,2.96-1.524,2.308-2.945-5.1ZM33.048,25.421a1.236,1.236,0,0,1,2.126.025L49.555,50.356a1.236,1.236,0,0,1-1.04,1.854,4.54,4.54,0,0,0-.678.115L32.624,25.976c.319-.411.36-.45.424-.554Zm-2.069,2.65L45.272,52.827,23.7,57.058,17.142,45.7ZM3.3,61.29a6.178,6.178,0,0,1,2.263-8.445L15.2,47.281l6.182,10.708-9.637,5.564A6.19,6.19,0,0,1,3.3,61.29Zm0,0" transform="translate(0 -19.591)"/>
    <path id="Tracé_455" data-name="Tracé 455" d="M50.509,310.191a1.237,1.237,0,0,0-1.689-.453l-2.142,1.236a1.238,1.238,0,0,1-1.689-.453,1.236,1.236,0,0,0-2.142,1.236,3.714,3.714,0,0,0,5.067,1.358l2.142-1.236a1.236,1.236,0,0,0,.453-1.689Zm0,0" transform="translate(-37.405 -271.296)"/>
    <path id="Tracé_456" data-name="Tracé 456" d="M443.8,42.637l-6.89,3.834a1.236,1.236,0,1,0,1.2,2.161L445,44.8a1.236,1.236,0,0,0-1.2-2.161Zm0,0" transform="translate(-382.333 -37.228)"/>
    <path id="Tracé_457" data-name="Tracé 457" d="M446.4,137.943l-4.777-1.28a1.236,1.236,0,1,0-.64,2.388l4.778,1.28a1.236,1.236,0,1,0,.639-2.388Zm0,0" transform="translate(-385.653 -119.729)"/>
    <path id="Tracé_458" data-name="Tracé 458" d="M384.816.917l-1.281,4.778a1.237,1.237,0,1,0,2.389.64L387.2,1.557a1.236,1.236,0,1,0-2.388-.64Zm0,0" transform="translate(-336.077 0)"/>
  </g>
</svg>
