<svg xmlns="http://www.w3.org/2000/svg" xmlns:xlink="http://www.w3.org/1999/xlink" width="176.857" height="174.696" viewBox="0 0 176.857 174.696">
  <defs>
    <filter id="Tracé_23" x="0" y="0" width="176.857" height="174.696" filterUnits="userSpaceOnUse">
      <feOffset dy="15" input="SourceAlpha"/>
      <feGaussianBlur stdDeviation="7.5" result="blur"/>
      <feFlood flood-opacity="0.161"/>
      <feComposite operator="in" in2="blur"/>
      <feComposite in="SourceGraphic"/>
    </filter>
  </defs>
  <g id="Composant_42_1" data-name="Composant 42 – 1" transform="translate(5.649 8)">
    <path id="Tracé_22" data-name="Tracé 22" d="M79.428-2C46.714-2,14,30.714,14,63.428,14,91.1,37.414,118.78,64.6,126.7c22.732-.416,22.111-17.764,42.634-34.044,18.195-14.433,37.746-9.951,37.624-29.223C144.856,30.714,112.142-2,79.428-2Z" transform="translate(-14 2)" fill="#606c38" stroke="#707070" stroke-width="1" opacity="0.44"/>
    <g transform="matrix(1, 0, 0, 1, -5.65, -8)" filter="url(#Tracé_23)">
      <path id="Tracé_23-2" data-name="Tracé 23" d="M79.428-2C46.714-2,14,30.714,14,63.428,14,91.1,37.586,125.005,64.6,126.7c22.732-.416,24.729-14.067,45.252-30.347,18.195-14.433,35.128-13.648,35.006-32.921C144.856,30.714,112.142-2,79.428-2Z" transform="translate(9 10)" fill="#fff" stroke="#707070" stroke-width="1"/>
    </g>
    <g id="delivery-box" transform="translate(58.479 36.896)">
      <path id="Tracé_24" data-name="Tracé 24" d="M77.856,243.008l-3.843-7.548a1.073,1.073,0,0,0-.956-.586H34.287a1.073,1.073,0,0,0-.956.586l-3.843,7.548a1.073,1.073,0,0,0,.956,1.56h1.339v18.938a1.073,1.073,0,0,0,1.073,1.073H74.484a1.073,1.073,0,0,0,1.073-1.073V244.568H76.9a1.073,1.073,0,0,0,.956-1.56ZM72.4,237.02l2.751,5.4H58.173l-2.75-5.4Zm-37.454,0H51.922l-2.75,5.4H32.195Zm38.466,25.413H54.745v-5.946a1.073,1.073,0,1,0-2.146,0v5.946H33.93V244.568h15.9a1.073,1.073,0,0,0,.956-.586l1.814-3.563v6.434a1.073,1.073,0,1,0,2.146,0v-6.434l1.814,3.563a1.073,1.073,0,0,0,.956.586h15.9Z" transform="translate(-29.372 -209.675)" fill="#7d8f41"/>
      <path id="Tracé_25" data-name="Tracé 25" d="M110.6,436.98h-6.109a1.073,1.073,0,1,0,0,2.146H110.6a1.073,1.073,0,1,0,0-2.146Z" transform="translate(-95.474 -390.098)" fill="#7d8f41"/>
      <path id="Tracé_26" data-name="Tracé 26" d="M164.238,22.044A11.022,11.022,0,1,0,153.225,11.02,11.029,11.029,0,0,0,164.238,22.044Zm0-19.9a8.876,8.876,0,1,1-8.867,8.875A8.879,8.879,0,0,1,164.238,2.146Z" transform="translate(-139.937)" fill="#7d8f41"/>
      <path id="Tracé_27" data-name="Tracé 27" d="M207.884,68.68,210.74,71.1a1.073,1.073,0,0,0,.694.254q.046,0,.092,0a1.073,1.073,0,0,0,.731-.381l5.374-6.423a1.073,1.073,0,1,0-1.646-1.377L211.3,68.765l-2.032-1.722a1.073,1.073,0,0,0-1.388,1.637Z" transform="translate(-188.394 -56.05)" fill="#7d8f41"/>
      <path id="Tracé_28" data-name="Tracé 28" d="M50.493,94.866h4.642a1.073,1.073,0,0,0,0-2.146H50.493a1.073,1.073,0,0,0,0,2.146Z" transform="translate(-47.269 -82.772)" fill="#7d8f41"/>
      <path id="Tracé_29" data-name="Tracé 29" d="M49.991,26.312l4.642,2.448a1.073,1.073,0,1,0,1-1.9l-4.642-2.448a1.073,1.073,0,1,0-1,1.9Z" transform="translate(-47.267 -21.684)" fill="#7d8f41"/>
      <path id="Tracé_30" data-name="Tracé 30" d="M49.542,142.373a1.072,1.072,0,0,0,1.449.449l4.642-2.445a1.073,1.073,0,0,0-1-1.9l-4.642,2.445A1.073,1.073,0,0,0,49.542,142.373Z" transform="translate(-47.267 -123.511)" fill="#7d8f41"/>
      <path id="Tracé_31" data-name="Tracé 31" d="M400.1,94.866h4.642a1.073,1.073,0,1,0,0-2.146H400.1a1.073,1.073,0,1,0,0,2.146Z" transform="translate(-359.371 -82.772)" fill="#7d8f41"/>
      <path id="Tracé_32" data-name="Tracé 32" d="M400.1,28.884a1.068,1.068,0,0,0,.5-.124l4.642-2.448a1.073,1.073,0,1,0-1-1.9L399.6,26.862a1.073,1.073,0,0,0,.5,2.022Z" transform="translate(-359.37 -21.684)" fill="#7d8f41"/>
      <path id="Tracé_33" data-name="Tracé 33" d="M399.6,140.376l4.642,2.445a1.073,1.073,0,0,0,1-1.9l-4.642-2.445a1.073,1.073,0,0,0-1,1.9Z" transform="translate(-359.37 -123.51)" fill="#7d8f41"/>
      <path id="Tracé_34" data-name="Tracé 34" d="M246.946,381.423a1.073,1.073,0,0,0-1.073,1.073v.006a1.073,1.073,0,1,0,1.073-1.079Z" transform="translate(-222.645 -340.501)" fill="#7d8f41"/>
    </g>
  </g>
</svg>
