<svg xmlns="http://www.w3.org/2000/svg" xmlns:xlink="http://www.w3.org/1999/xlink" width="154.273" height="144.707" viewBox="0 0 154.273 144.707">
  <defs>
    <linearGradient id="linear-gradient" x1="0.5" y1="1" x2="1.057" y2="0.185" gradientUnits="objectBoundingBox">
      <stop offset="0" stop-color="#7d8f41"/>
      <stop offset="1" stop-color="#606c38"/>
    </linearGradient>
    <filter id="Tracé_122" x="0" y="0" width="154.273" height="144.707" filterUnits="userSpaceOnUse">
      <feOffset dy="15" input="SourceAlpha"/>
      <feGaussianBlur stdDeviation="7.5" result="blur"/>
      <feFlood flood-opacity="0.161"/>
      <feComposite operator="in" in2="blur"/>
      <feComposite in="SourceGraphic"/>
    </filter>
  </defs>
  <g id="Icon" transform="translate(23 8)">
    <g transform="matrix(1, 0, 0, 1, -23, -8)" filter="url(#Tracé_122)">
      <path id="Tracé_122-2" data-name="Tracé 122" d="M68.157,96.246c-25,0-55.071-25.354-55.071-50.355,0-21.151,18.725-47.06,39.368-48.352,17.373.318,23.917,9.165,39.6,21.607,13.905,11.03,29.4,12.016,29.3,26.745C121.358,70.893,93.158,96.246,68.157,96.246Z" transform="translate(9.91 10.46)" stroke="#707070" stroke-width="1" fill="url(#linear-gradient)"/>
    </g>
    <g id="XMLID_1487_" transform="translate(-31.625 17.834)">
      <g id="XMLID_1153_" transform="translate(61.857 -0.001)">
        <path id="XMLID_1329_" d="M106.76,34.96,97.347,20.2a4.184,4.184,0,0,0-.389-7.6l2.852-9.969A1.232,1.232,0,0,0,99.5,1.43a4.871,4.871,0,0,0-6.88,0,2.386,2.386,0,0,1-1.7.7,2.388,2.388,0,0,1-1.7-.707l-.006-.006a4.874,4.874,0,0,0-6.869-.011l-.035.035a2.407,2.407,0,0,1-3.391-.006l-.009-.009a4.871,4.871,0,0,0-6.88,0,1.232,1.232,0,0,0-.313,1.21l2.858,9.966a4.184,4.184,0,0,0-.4,7.6L64.761,34.96A18.261,18.261,0,0,0,80.156,63.041H91.365a18.261,18.261,0,0,0,15.4-28.081ZM77.164,3.171l.009.009a4.874,4.874,0,0,0,6.869.011l.035-.035a2.408,2.408,0,0,1,3.394.009l.006.006a4.871,4.871,0,0,0,6.88,0,2.407,2.407,0,0,1,2.855-.407l-2.73,9.546H77.047L74.31,2.763a2.406,2.406,0,0,1,2.854.408Zm28.054,49.2a15.592,15.592,0,0,1-13.853,8.2H80.156A15.8,15.8,0,0,1,66.838,36.284l9.952-15.6h3.43a1.231,1.231,0,1,0,0-2.463h-4.1a1.724,1.724,0,0,1,0-3.448H95.406a1.724,1.724,0,0,1,0,3.448H91.3a1.231,1.231,0,0,0,0,2.463h3.429l9.952,15.6a15.592,15.592,0,0,1,.534,16.091Z" transform="translate(-61.857 0.001)" fill="#fff"/>
        <path id="XMLID_1341_" d="M216.592,248.881c-.309-.109-.624-.223-.94-.341v-5.581a5.058,5.058,0,0,1,1.416.661,1.231,1.231,0,0,0,1.482-1.967,7.521,7.521,0,0,0-2.9-1.226V239.2a1.231,1.231,0,1,0-2.463,0v1.217a6.363,6.363,0,0,0-.634.155,4.931,4.931,0,0,0-3.381,3.868,4.348,4.348,0,0,0,1.424,4.286,11.853,11.853,0,0,0,2.591,1.472v7.141a4.923,4.923,0,0,1-2.7-.989,1.231,1.231,0,1,0-1.348,2.061,7.268,7.268,0,0,0,4.048,1.393v1.273a1.231,1.231,0,0,0,2.463,0v-1.4a5.936,5.936,0,0,0,4.525-4.836,5.208,5.208,0,0,0-3.585-5.96Zm-4.473-2.092a1.919,1.919,0,0,1-.524-1.892,2.508,2.508,0,0,1,1.595-1.94v4.51A7.372,7.372,0,0,1,212.118,246.789Zm5.63,7.643a3.53,3.53,0,0,1-2.1,2.667v-5.94l.119.043A2.786,2.786,0,0,1,217.748,254.433Z" transform="translate(-190.517 -208.668)" fill="#fff"/>
        <path id="XMLID_1343_" d="M247.216,150.432a1.232,1.232,0,1,0-.871-.361A1.241,1.241,0,0,0,247.216,150.432Z" transform="translate(-223.312 -129.749)" fill="#fff"/>
      </g>
    </g>
  </g>
</svg>
