<svg xmlns="http://www.w3.org/2000/svg" xmlns:xlink="http://www.w3.org/1999/xlink" width="154.273" height="144.707" viewBox="0 0 154.273 144.707">
  <defs>
    <linearGradient id="linear-gradient" x1="0.5" y1="1" x2="1.057" y2="0.185" gradientUnits="objectBoundingBox">
      <stop offset="0" stop-color="#7d8f41"/>
      <stop offset="1" stop-color="#606c38"/>
    </linearGradient>
    <filter id="Tracé_112" x="0" y="0" width="154.273" height="144.707" filterUnits="userSpaceOnUse">
      <feOffset dy="15" input="SourceAlpha"/>
      <feGaussianBlur stdDeviation="7.5" result="blur"/>
      <feFlood flood-opacity="0.161"/>
      <feComposite operator="in" in2="blur"/>
      <feComposite in="SourceGraphic"/>
    </filter>
  </defs>
  <g id="Icon" transform="translate(23 8)">
    <g transform="matrix(1, 0, 0, 1, -23, -8)" filter="url(#Tracé_112)">
      <path id="Tracé_112-2" data-name="Tracé 112" d="M68.157,96.246c-25,0-55.071-25.354-55.071-50.355,0-21.151,18.725-47.06,39.368-48.352,17.373.318,23.917,9.165,39.6,21.607,13.905,11.03,29.4,12.016,29.3,26.745C121.358,70.893,93.158,96.246,68.157,96.246Z" transform="translate(9.91 10.46)" stroke="#707070" stroke-width="1" fill="url(#linear-gradient)"/>
    </g>
    <g id="renewable-energy" transform="translate(28.03 23.246)">
      <g id="Groupe_50" data-name="Groupe 50" transform="translate(15.399 9.28)">
        <g id="Groupe_49" data-name="Groupe 49">
          <path id="Tracé_124" data-name="Tracé 124" d="M172.374,107.475a1.528,1.528,0,0,0-1.005-1.1l-7.505-2.5,5.33-10.66a1.53,1.53,0,0,0-2.45-1.766l-15.3,15.3a1.528,1.528,0,0,0,.6,2.532l7.505,2.5-5.33,10.66a1.53,1.53,0,0,0,2.45,1.766l15.3-15.3A1.531,1.531,0,0,0,172.374,107.475Z" transform="translate(-150.998 -90.999)" fill="#fff"/>
        </g>
      </g>
      <g id="Groupe_52" data-name="Groupe 52" transform="translate(3.059)">
        <g id="Groupe_51" data-name="Groupe 51">
          <path id="Tracé_125" data-name="Tracé 125" d="M53.048,0A26.294,26.294,0,0,0,33.059,9.436V7.751a1.53,1.53,0,1,0-3.059,0v6.5c0,1.46,1.886,1.669,1.53,1.53l.094,0,6.119-.379a1.53,1.53,0,1,0-.188-3.054l-3.1.193A23.024,23.024,0,0,1,76.1,26.107a1.53,1.53,0,1,0,3.059,0A26.209,26.209,0,0,0,53.048,0Z" transform="translate(-30)" fill="#fff"/>
        </g>
      </g>
      <g id="Groupe_54" data-name="Groupe 54" transform="translate(0 24.577)">
        <g id="Groupe_53" data-name="Groupe 53">
          <path id="Tracé_126" data-name="Tracé 126" d="M47.531,252.861l-6.119.379a1.529,1.529,0,0,0-1.433,1.621,1.547,1.547,0,0,0,1.621,1.433l3.1-.193A23.024,23.024,0,0,1,3.059,242.53a1.53,1.53,0,0,0-3.059,0,26.209,26.209,0,0,0,26.107,26.107A26.294,26.294,0,0,0,46.1,259.2v1.686a1.53,1.53,0,0,0,3.059,0v-6.5A1.6,1.6,0,0,0,47.531,252.861Z" transform="translate(0 -241)" fill="#fff"/>
        </g>
      </g>
    </g>
  </g>
</svg>
