<svg xmlns="http://www.w3.org/2000/svg" xmlns:xlink="http://www.w3.org/1999/xlink" width="176.857" height="174.696" viewBox="0 0 176.857 174.696">
  <defs>
    <filter id="Tracé_18" x="0" y="0" width="176.857" height="174.696" filterUnits="userSpaceOnUse">
      <feOffset dy="15" input="SourceAlpha"/>
      <feGaussianBlur stdDeviation="7.5" result="blur"/>
      <feFlood flood-opacity="0.161"/>
      <feComposite operator="in" in2="blur"/>
      <feComposite in="SourceGraphic"/>
    </filter>
  </defs>
  <g id="Composant_40_1" data-name="Composant 40 – 1" transform="translate(5.649 8)">
    <path id="Tracé_17" data-name="Tracé 17" d="M79.428-2C46.714-2,14,30.714,14,63.428,14,91.1,37.414,118.78,64.6,126.7c22.732-.416,22.111-17.764,42.634-34.044,18.195-14.433,37.746-9.951,37.624-29.223C144.856,30.714,112.142-2,79.428-2Z" transform="translate(-14 2)" fill="#606c38" stroke="#707070" stroke-width="1" opacity="0.44"/>
    <g transform="matrix(1, 0, 0, 1, -5.65, -8)" filter="url(#Tracé_18)">
      <path id="Tracé_18-2" data-name="Tracé 18" d="M79.428-2C46.714-2,14,30.714,14,63.428,14,91.1,37.586,125.005,64.6,126.7c22.732-.416,24.729-14.067,45.252-30.347,18.195-14.433,35.128-13.648,35.006-32.921C144.856,30.714,112.142-2,79.428-2Z" transform="translate(9 10)" fill="#fff" stroke="#707070" stroke-width="1"/>
    </g>
    <path id="engineer" d="M55,20H53a3,3,0,0,0-3,3v.171A3.006,3.006,0,0,0,48,26v1.171a2.982,2.982,0,0,0,.879,2.122l1.071,1.071-1.078,9.163a20.966,20.966,0,0,0-13.1-9.385L35.321,28.8A5,5,0,0,0,38.576,26H39a4,4,0,0,0,4-4V17a2,2,0,0,0,2-2V13a2,2,0,0,0-2-2h-.174a11.993,11.993,0,0,0-23.652,0H19a2,2,0,0,0-2,2v2a2,2,0,0,0,2,2v5a4,4,0,0,0,4,4h.424a5,5,0,0,0,3.255,2.8l-.448,1.343a18.413,18.413,0,0,0-6.321,2.79l-1.97-6.117c-.006-.033,0-.066-.012-.1-.5-2.107-3.483-3.209-6.8-2.5a7.208,7.208,0,0,0-4.607,2.777,2.95,2.95,0,0,0-.445,2.292,2.742,2.742,0,0,0,.611,1.164l6.852,10.263A18.161,18.161,0,0,0,12,48a11,11,0,0,0,6,9.786V59a4,4,0,0,0,4,4H44V49.907A7.787,7.787,0,0,0,58,45.2V23a3,3,0,0,0-3-3Zm-5,6a1,1,0,0,1,1-1h1V23a1,1,0,0,1,1-1h2a1,1,0,0,1,1,1v6H51.414l-1.121-1.121A1,1,0,0,1,50,27.171ZM34,59v2H31.444A3.959,3.959,0,0,0,32,59Zm1-2H29V52.414l1.121-1.121A1.009,1.009,0,0,1,30.828,51H32a1,1,0,0,1,1,1v1h2a1,1,0,0,1,1,1v2a1,1,0,0,1-1,1ZM33.279,29l.6,1.8L31,34.4l-2.88-3.6.6-1.8h4.559ZM28.13,34.013c-.044,0-.086-.013-.13-.013H22c-.01,0-.019,0-.029,0a16.351,16.351,0,0,1,4.647-1.88ZM22,36h2.537A3.97,3.97,0,0,0,24,38v1h2V38a2,2,0,1,1,2,2H22a2,2,0,0,1,0-4Zm-2,5.444A3.959,3.959,0,0,0,22,42h6a3.959,3.959,0,0,0,2-.556V49.13a2.97,2.97,0,0,0-1.293.749L27.586,51H24a9.008,9.008,0,0,1-4-.945Zm14,8.331A2.983,2.983,0,0,0,32,49V38a3.953,3.953,0,0,0-.248-1.34L34,33.851ZM39,24V20a2,2,0,0,1,0,4Zm2-5.444A3.959,3.959,0,0,0,39,18V17h2ZM40.8,11H34V3.458A9.912,9.912,0,0,1,40.8,11ZM32,3.05V11H30V3.05c.329-.032.662-.05,1-.05S31.671,3.018,32,3.05Zm-4,.408V11H21.2A9.912,9.912,0,0,1,28,3.458ZM19,13H43v2H19Zm4,4v1a3.959,3.959,0,0,0-2,.556V17Zm-2,5a2,2,0,0,1,2-2v4A2,2,0,0,1,21,22Zm4,2V17H37v7a3,3,0,0,1-3,3H28A3,3,0,0,1,25,24ZM8.207,28.06a5.4,5.4,0,0,1,3.334-1.891A7.694,7.694,0,0,1,13.132,26a3.372,3.372,0,0,1,2.751.96l.1.3a1.038,1.038,0,0,1-.188.682,5.4,5.4,0,0,1-3.334,1.891c-2.064.437-3.623-.018-4.2-.629l-.2-.294a.9.9,0,0,1-.044-.088,1.01,1.01,0,0,1,.19-.761ZM10.905,32a9.494,9.494,0,0,0,1.97-.212,8.04,8.04,0,0,0,3.932-1.962l1.9,5.909A3.969,3.969,0,0,0,18,38v5.794L10.1,31.956c.263.026.532.043.809.043ZM14,48a16.2,16.2,0,0,1,.876-5.282L18,47.4v1.291A8.943,8.943,0,0,1,16.8,47.4l-1.6,1.2A11.052,11.052,0,0,0,24,53h3v4H23a9.01,9.01,0,0,1-9-9ZM25,61H22a2,2,0,0,1-2-2v-.426A10.966,10.966,0,0,0,23,59h7a2,2,0,0,1-2,2ZM50.2,51a5.767,5.767,0,0,1-5.186-3.205L44,45.764V42H42V61H36V58.816A3,3,0,0,0,38,56V54a3,3,0,0,0-2-2.816V32.264A18.964,18.964,0,0,1,48.31,42.7l.151.331-.453,3.854,1.986.233L51.889,31H56V45.2A5.805,5.805,0,0,1,50.2,51Z" transform="translate(50.803 32.622)" fill="#7d8f41"/>
  </g>
</svg>
