<svg xmlns="http://www.w3.org/2000/svg" xmlns:xlink="http://www.w3.org/1999/xlink" width="1920" height="320" viewBox="0 0 1920 320">
  <defs>
    <clipPath id="clip-path">
      <rect id="Rectangle_39" data-name="Rectangle 39" width="1920" height="320" transform="translate(0 2525)" fill="#fff" stroke="#707070" stroke-width="1"/>
    </clipPath>
  </defs>
  <g id="Groupe_de_masques_9" data-name="Groupe de masques 9" transform="translate(0 -2525)" clip-path="url(#clip-path)">
    <g id="fond" transform="translate(-5.132 2524.964)">
      <g id="banner" transform="translate(5.132 0.036)" stroke="#707070" stroke-width="1">
        <rect width="1918" height="318" stroke="none"/>
        <rect x="0.5" y="0.5" width="1917" height="317" fill="none"/>
      </g>
      <path id="Tracé_87" data-name="Tracé 87" d="M4037.182,2919.036s59.571-90.146,120.155-184.738c65.73-102.628,132.811-210.334,130.943-210.334-3.591,0-536.312.919-536.312.919s-110.485,108.017-208.966,214c-69.013,74.27-129.211,148.794-153.492,178.75-6.821,8.415-10.339,13.5-9.6,14.266,7.039,7.257,9.958-13.606,9.958-13.606Z" transform="translate(-2504.697 -2523.964)" fill="#606c38" opacity="0.72"/>
      <path id="Tracé_89" data-name="Tracé 89" d="M4037.182,2919.036s59.571-90.146,120.155-184.738c65.73-102.628,132.811-210.334,130.943-210.334-3.591,0-652.975.231-652.975.231s-66.1,99.8-127.913,199.782c-55.366,89.552-106.4,179.488-117.882,193.657-6.821,8.415-10.339,13.5-9.6,14.266,7.039,7.257,9.958-13.606,9.958-13.606Z" transform="translate(-2750.999 -2523.927)" fill="#606c38" opacity="0.96"/>
      <path id="Tracé_90" data-name="Tracé 90" d="M4037.182,2919.042s59.571-90.147,120.155-184.741c65.73-102.629,132.811-210.337,130.943-210.337-3.591,0-564.925.8-564.925.8s-114.437,89.136-218.947,191.247c-94.547,92.378-180.019,198.525-182.533,201.628-6.821,8.415,57.3,13.5,58.036,14.267,7.039,7.257-58.036-14.267-58.036-14.267Z" transform="translate(-3111.372 -2523.865)" fill="#606c38" opacity="0.72"/>
      <path id="Tracé_91" data-name="Tracé 91" d="M4037.182,2919.036s59.571-90.146,120.155-184.738c65.73-102.628,132.811-210.334,130.943-210.334-3.591,0-652.975.231-652.975.231s-66.1,99.8-127.913,199.782c-55.366,89.552-106.4,179.488-117.882,193.657-6.821,8.415-10.339,13.5-9.6,14.266,7.039,7.257,9.958-13.606,9.958-13.606Z" transform="translate(-3374.681 -2523.927)" fill="#606c38" opacity="0.93"/>
      <path id="Tracé_92" data-name="Tracé 92" d="M4041.182,2919.03,4145.24,2738.8V2524.718H3751.968S3641.483,2632.778,3543,2738.8c-69.013,74.3-129.211,148.854-153.492,178.822-6.821,8.418-10.339,13.51-9.6,14.272,7.039,7.26,9.958-13.612,9.958-13.612Z" transform="translate(-2223.697 -2523.896)" fill="#606c38" opacity="0.75"/>
      <path id="Tracé_93" data-name="Tracé 93" d="M4037.182,2921.625s59.571-90.737,120.155-185.949c65.73-103.3,132.811-211.712,130.943-211.712H4019.868l17.314,194.188V2806.2S4028.119,2921.614,4037.182,2921.625Z" transform="translate(-4019.868 -2523.927)" fill="#606c38" stroke="#707070" stroke-width="1" opacity="0.72"/>
      <path id="Tracé_88" data-name="Tracé 88" d="M4037.182,2921.367s59.571-90.678,120.155-185.828c65.73-103.233,132.811-211.575,130.943-211.575H3767.387v397.4h0C3774.426,2928.667,3772.906,2904.124,4037.182,2921.367Z" transform="translate(-3761.868 -2523.896)" fill="#606c38" opacity="0.86"/>
      <path id="Tracé_94" data-name="Tracé 94" d="M3995.495,2917.627v-197.5s1.867-195.41,0-195.41H3751.968S3641.483,2632.778,3543,2738.8c-69.013,74.3-129.211,148.854-153.492,178.822-6.821,8.418-10.339,13.51-9.6,14.272,7.039,7.26,9.958-13.612,9.958-13.612Z" transform="translate(-2071.192 -2523.896)" fill="#606c38" opacity="0.88"/>
    </g>
  </g>
</svg>
