<svg xmlns="http://www.w3.org/2000/svg" width="73.689" height="66.507" viewBox="0 0 73.689 66.507">
  <g id="heart" transform="translate(0 -0.501)">
    <path id="Tracé_162" data-name="Tracé 162" d="M126.092,266.43l17.584-6.045a4.11,4.11,0,1,1,3.038,7.638l-26.892,11.841a16.909,16.909,0,0,1-15.7-.893l-7.527-4.516a15.5,15.5,0,0,0-6.59-1.7V252.6h11.394a8.625,8.625,0,0,1,4.235,1.109l7.6,4.278a2.875,2.875,0,0,0,1.412.37h9.32a4.317,4.317,0,0,1,2.126,8.076Zm0,0" transform="translate(-77.047 -215.813)" fill="#ffcebf"/>
    <path id="Tracé_163" data-name="Tracé 163" d="M194.814,10.5c5.529,0,9.34,4.642,9.34,10.139,0,7.275-6.859,12.145-18.51,22.243-11.079-9.6-18.855-14.638-18.855-22.243,0-5.5,3.811-10.139,9.342-10.139,7.1,0,9.34,8.1,9.34,8.1s2.242-8.1,9.342-8.1Zm0,0" transform="translate(-142.784 -8.56)" fill="#7d8f41"/>
    <path id="Tracé_164" data-name="Tracé 164" d="M21.514,235.477v20.158a2.877,2.877,0,0,1-2.878,2.87H10V232.6h8.635a2.878,2.878,0,0,1,2.878,2.878Zm0,0" transform="translate(-8.561 -198.693)" fill="#faecd8"/>
    <path id="Tracé_165" data-name="Tracé 165" d="M41.439,262.6a1.439,1.439,0,1,0,1.439,1.439A1.44,1.44,0,0,0,41.439,262.6Zm0,0" transform="translate(-34.243 -224.375)"/>
    <path id="Tracé_166" data-name="Tracé 166" d="M66.15,233.345,52.582,238.01a5.743,5.743,0,0,0-5.663-6.777H37.6a1.44,1.44,0,0,1-.707-.185l-7.6-4.277a10.083,10.083,0,0,0-4.941-1.3h-10.2a4.324,4.324,0,0,0-4.07-2.878H1.439A1.439,1.439,0,0,0,0,224.037v25.906a1.439,1.439,0,0,0,1.439,1.439h8.635a4.326,4.326,0,0,0,4.029-2.77,13.139,13.139,0,0,1,4.7,1.395l7.527,4.516a18.347,18.347,0,0,0,17.033.972l26.863-11.828a5.548,5.548,0,0,0-4.075-10.322ZM11.514,247.071a1.441,1.441,0,0,1-1.439,1.433h-7.2V225.476h7.2a1.441,1.441,0,0,1,1.439,1.439ZM69.132,241l-.046.019L42.178,252.871a15.468,15.468,0,0,1-14.367-.816l-7.527-4.516a15.869,15.869,0,0,0-5.891-1.792V228.354h9.955a7.2,7.2,0,0,1,3.529.925l7.6,4.277a4.324,4.324,0,0,0,2.118.555h9.32a2.879,2.879,0,0,1,0,5.757H32.288a1.439,1.439,0,1,0,0,2.878H46.919a5.746,5.746,0,0,0,2.7-.674l17.5-6.016A2.672,2.672,0,1,1,69.132,241Zm0,0" transform="translate(0 -190.131)"/>
    <path id="Tracé_167" data-name="Tracé 167" d="M178.846,35.41a1.441,1.441,0,0,0,1.886,0c11.743-10.177,19.007-15.327,19.007-23.331C199.738,5.748,195.256.5,188.958.5c-4.136,0-7.3,2.384-9.342,5.961C177.581,2.892,174.417.5,170.276.5a10.63,10.63,0,0,0-10.268,7.959,1.439,1.439,0,1,0,2.762.81,7.809,7.809,0,0,1,7.506-5.89c4.106,0,6.986,3.646,7.954,7.041a1.439,1.439,0,0,0,2.774,0c.02-.07,2.019-7.041,7.955-7.041,4.5,0,7.9,3.74,7.9,8.7,0,6.4-6.258,11.018-17.072,20.342-6.589-5.658-11.822-9.641-14.8-13.537a1.439,1.439,0,1,0-2.288,1.747c3.353,4.391,9.013,8.6,16.143,14.779Zm0,0" transform="translate(-136.928)"/>
    <path id="Tracé_168" data-name="Tracé 168" d="M160.439,88.6a1.439,1.439,0,1,0,1.439,1.439A1.44,1.44,0,0,0,160.439,88.6Zm0,0" transform="translate(-136.116 -75.418)"/>
  </g>
</svg>
