<svg xmlns="http://www.w3.org/2000/svg" xmlns:xlink="http://www.w3.org/1999/xlink" width="154.273" height="144.707" viewBox="0 0 154.273 144.707">
  <defs>
    <linearGradient id="linear-gradient" x1="0.5" y1="1" x2="1.057" y2="0.185" gradientUnits="objectBoundingBox">
      <stop offset="0" stop-color="#7d8f41"/>
      <stop offset="1" stop-color="#606c38"/>
    </linearGradient>
    <filter id="Tracé_123" x="0" y="0" width="154.273" height="144.707" filterUnits="userSpaceOnUse">
      <feOffset dy="15" input="SourceAlpha"/>
      <feGaussianBlur stdDeviation="7.5" result="blur"/>
      <feFlood flood-opacity="0.161"/>
      <feComposite operator="in" in2="blur"/>
      <feComposite in="SourceGraphic"/>
    </filter>
  </defs>
  <g id="Composant_57_1" data-name="Composant 57 – 1" transform="translate(23 8)">
    <g transform="matrix(1, 0, 0, 1, -23, -8)" filter="url(#Tracé_123)">
      <path id="Tracé_123-2" data-name="Tracé 123" d="M68.157,96.246c-25,0-55.072-25.354-55.072-50.355,0-21.151,18.725-47.06,39.368-48.352,17.373.318,23.917,9.165,39.6,21.607,13.905,11.03,29.4,12.016,29.3,26.745C121.358,70.893,93.158,96.246,68.157,96.246Z" transform="translate(9.91 10.46)" stroke="#707070" stroke-width="1" fill="url(#linear-gradient)"/>
    </g>
    <g id="easy-use" transform="translate(-35.524 21.415)">
      <g id="Groupe_56" data-name="Groupe 56" transform="translate(69.876 4.628)">
        <path id="Tracé_133" data-name="Tracé 133" d="M113.649,57.845a3.371,3.371,0,0,0-3.371,3.371V58.5a3.371,3.371,0,0,0-6.743,0V57.137a3.371,3.371,0,1,0-6.743,0V45.749a3.371,3.371,0,1,0-6.743,0V69.9a.489.489,0,0,1-.848.331l-5.4-5.87a3.226,3.226,0,0,0-4.683-.1,4.126,4.126,0,0,0-.468,5.035l8.624,12.609a10.068,10.068,0,0,0,6.152,4.15.368.368,0,0,1,.368.368v5.689a.689.689,0,0,0,.689.689h19.69a.689.689,0,0,0,.689-.689v-4.98a2.988,2.988,0,0,1,.206-1.091l.261-.666a24.486,24.486,0,0,0,1.687-8.6l0-3.491V61.217a3.371,3.371,0,0,0-3.371-3.371Z" transform="translate(-78.005 -42.378)" fill="none"/>
      </g>
      <g id="Groupe_57" data-name="Groupe 57" transform="translate(68.879 0)">
        <path id="Tracé_139" data-name="Tracé 139" d="M205.195,50.345a4.169,4.169,0,0,0-2.592.9,4.188,4.188,0,0,0-7.048-2.455,4.186,4.186,0,0,0-6.4-1.656V39.069a4.191,4.191,0,0,0-8.381,0V52.62a.819.819,0,0,0,1.638,0V39.069a2.552,2.552,0,1,1,5.1,0V57.44a.819.819,0,0,0,1.638,0V50.456a2.552,2.552,0,0,1,5.1,0V57.44a.819.819,0,1,0,1.638,0V51.817a2.552,2.552,0,1,1,5.1,0V57.44a.819.819,0,0,0,1.638,0v-2.9a2.552,2.552,0,1,1,5.1,0V66.6l0,3.48a23.586,23.586,0,0,1-1.631,8.316l-.261.666a3.792,3.792,0,0,0-.263,1.39v5.669a.819.819,0,1,0,1.638,0V80.457a2.158,2.158,0,0,1,.15-.792l.261-.666a25.23,25.23,0,0,0,1.744-8.9l0-3.492V54.536a4.2,4.2,0,0,0-4.191-4.191Z" transform="translate(-168.554 -31.069)" fill="#fff"/>
        <path id="Tracé_140" data-name="Tracé 140" d="M85.473,245.081a9.216,9.216,0,0,1-5.651-3.813L71,228.374a2.741,2.741,0,0,1,4.28-3.4l5.185,5.639a1.308,1.308,0,0,0,2.27-.885v-7.113a.819.819,0,0,0-1.638,0v6.265l-4.611-5.015A4.379,4.379,0,0,0,69.65,229.3l8.819,12.895a10.845,10.845,0,0,0,6.377,4.424v6.01a.819.819,0,1,0,1.638,0v-6.288a1.3,1.3,0,0,0-1.011-1.257Z" transform="translate(-68.879 -197.57)" fill="#fff"/>
        <path id="Tracé_141" data-name="Tracé 141" d="M274.462,36.1a7.387,7.387,0,0,1-.83,3.422.819.819,0,1,0,1.456.752,9.112,9.112,0,0,0-.821-9.657.819.819,0,1,0-1.308.986A7.413,7.413,0,0,1,274.462,36.1Z" transform="translate(-250.523 -26.98)" fill="#fff"/>
        <path id="Tracé_142" data-name="Tracé 142" d="M137.846,13.735a.819.819,0,0,0,.727-1.2,7.386,7.386,0,0,1-.83-3.422,7.481,7.481,0,0,1,11.069-6.563.819.819,0,0,0,.788-1.437,9.119,9.119,0,0,0-13.5,8,9.008,9.008,0,0,0,1.013,4.173.819.819,0,0,0,.728.444Z" transform="translate(-128.763 0)" fill="#fff"/>
        <path id="Tracé_143" data-name="Tracé 143" d="M92.954,37a.82.82,0,0,0,.739-1.171,12.446,12.446,0,0,1,0-10.649.819.819,0,0,0-1.48-.7,14.085,14.085,0,0,0,0,12.056A.819.819,0,0,0,92.954,37Z" transform="translate(-88.458 -21.387)" fill="#fff"/>
        <path id="Tracé_144" data-name="Tracé 144" d="M322.1,36.921a.818.818,0,0,0,1.091-.388,14.085,14.085,0,0,0,0-12.056.819.819,0,1,0-1.48.7,12.446,12.446,0,0,1,0,10.649.819.819,0,0,0,.388,1.092Z" transform="translate(-294.032 -21.387)" fill="#fff"/>
      </g>
    </g>
  </g>
</svg>
