<svg id="g12" xmlns="http://www.w3.org/2000/svg" xmlns:xlink="http://www.w3.org/1999/xlink" width="636.189" height="528.184" viewBox="0 0 636.189 528.184">
  <defs>
    <clipPath id="clip-path">
      <path id="path138" d="M183.154-284.574v-34.771L430.081-461.91l0,34.774L183.154-284.574" transform="translate(-183.153 461.91)"/>
    </clipPath>
  </defs>
  <path id="path14" d="M93.169-15.2c124.224,64.894,325.63,64.9,449.85,0s124.226-170.112,0-235.008-325.628-64.9-449.853,0S-31.057-80.1,93.168-15.2" transform="translate(0.001 494.715)" fill="#ededeb"/>
  <path id="path16" d="M512.27-154.44s1.567-7.828,14.189-13.877c12.293-5.892,19.38-4.559,27.817-7.956,8.541-3.437,2.38-19.344-20.785-12.251-21.187,6.487-23.341,24.831-23.341,24.831l2.12,9.253" transform="translate(57.129 506.871)" fill="#26b6a6"/>
  <path id="path18" d="M512.27-154.44l-2.12-9.253s2.154-18.345,23.341-24.831a37.157,37.157,0,0,1,10.81-1.8c9.216,0,13.646,4.808,13.642,8.923a5.46,5.46,0,0,1-3.667,5.13c-8.438,3.4-15.525,2.064-27.817,7.956-12.622,6.049-14.189,13.877-14.189,13.877" transform="translate(57.129 506.871)" fill="#14b099"/>
  <path id="path20" d="M510.172-158.027l-.262-.046a.807.807,0,0,1-.5-1.025c2.912-8.487,10.408-16.37,20.05-21.092,12.395-6.067,21.221-4.131,21.592-4.043a.8.8,0,0,1,.6.965.8.8,0,0,1-.967.606c-.086-.018-8.679-1.874-20.52,3.923-9.265,4.535-16.454,12.075-19.233,20.164a.807.807,0,0,1-.762.547" transform="translate(57.041 507.513)" fill="#fafaf9"/>
  <path id="path22" d="M510.872-161.235s1.521-4.47,7.185-13.148c9.849-15.1,25.9-21.691,32.922-30.319,7.575-9.312-5.511-15.067-17.262-11.806-6.734,1.868-12.874,8-16.088,12.146a55.429,55.429,0,0,0-11.2,31.121l4.439,12.006" transform="translate(56.713 503.836)" fill="#26b6a6"/>
  <path id="path24" d="M508.509-161.4h-.024a.805.805,0,0,1-.783-.829,68.4,68.4,0,0,1,8.16-27.94c8.885-15.977,22.1-21.652,22.656-21.885a.807.807,0,0,1,1.056.431.809.809,0,0,1-.431,1.057c-.132.055-13.268,5.717-21.87,21.181a66.6,66.6,0,0,0-7.957,27.2.807.807,0,0,1-.807.784" transform="translate(56.855 504.43)" fill="#fafaf9"/>
  <path id="path26" d="M123.475-148.978c-10.66-7.173-11.136-26.443-9.589-38.586,2.452-19.245-7.446-23.737-12.444-15.216-2.432,4.147-5.484,13.129-5.136,23.59.546,16.4,7.652,36.012,24.849,43.13l2.32-12.918" transform="translate(10.782 505.015)" fill="#26b6a6"/>
  <path id="path28" d="M120.612-136.29c-16.806-7.3-23.767-26.677-24.307-42.9q-.027-.83-.027-1.643c0-9.753,2.859-18.019,5.163-21.948,1.6-2.731,3.707-4.125,5.749-4.125,3.642,0,7.078,4.439,7.08,13.645a45.081,45.081,0,0,1-.384,5.7,82.244,82.244,0,0,0-.653,10.27c0,9.416,1.717,19.784,7.38,25.86v15.144" transform="translate(10.782 505.015)" fill="#14b099"/>
  <path id="path30" d="M120.626-137.851a.737.737,0,0,1-.482-.178c-18.049-15.436-20.871-43.017-15.856-62.111a.735.735,0,0,1,.905-.528.741.741,0,0,1,.529.9c-4.9,18.66-2.177,45.585,15.386,60.607a.742.742,0,0,1,.081,1.045.736.736,0,0,1-.564.259" transform="translate(11.432 505.71)" fill="#fafaf9"/>
  <path id="path32" d="M142.152-116.573c-9.279,6.663-30.6,12.432-37.548,1-6.453-10.621-2.136-15.273-15.234-13.436s-16.1-8.331-13-16.868-9.795-21.033-.385-30.732,14.881,10.464,20.289,12.653,8.79-2.522,15.082.9,6.884,17.427,13.009,17.7c10.032.448,26.905.385,28.148,9.329s-10.356,19.446-10.356,19.446" transform="translate(8.117 508.114)" fill="#26b6a6"/>
  <path id="path34" d="M145.5-120.857l-.077,0c-48.561-5.076-67.345-47.4-68.5-53.612a.742.742,0,0,1,.594-.864.741.741,0,0,1,.864.592c1.129,6.07,19.532,47.428,67.2,52.412a.739.739,0,0,1,.66.814.739.739,0,0,1-.735.664" transform="translate(8.614 508.548)" fill="#fafaf9"/>
  <path id="path36" d="M91.828-143.194a56.979,56.979,0,0,1-9.144-.737.741.741,0,0,1-.6-.86.74.74,0,0,1,.86-.6c.089.015,9.125,1.591,16.735-.021a.747.747,0,0,1,.879.572.742.742,0,0,1-.572.879,40.036,40.036,0,0,1-8.159.765" transform="translate(9.191 511.9)" fill="#fafaf9"/>
  <path id="path38" d="M103.948-137.219l-.164-.019a.741.741,0,0,1-.56-.885,59.384,59.384,0,0,0,1.052-20.13.74.74,0,0,1,.614-.848.736.736,0,0,1,.85.612,59.7,59.7,0,0,1-1.069,20.69.743.743,0,0,1-.722.58" transform="translate(11.558 510.367)" fill="#fafaf9"/>
  <path id="path40" d="M22.521-190.157l23.266-13.434a7.988,7.988,0,0,1,7.223,0l2.941,1.7a7.98,7.98,0,0,1,3.611,6.254v26.867a7.977,7.977,0,0,1-3.611,6.254L32.684-149.083a7.988,7.988,0,0,1-7.223,0l-2.941-1.7a7.982,7.982,0,0,1-3.611-6.254V-183.9a7.98,7.98,0,0,1,3.611-6.254" transform="translate(2.118 505.289)" fill="#26b6a6"/>
  <path id="path42" d="M29.073-148.221a7.388,7.388,0,0,1-3.612-.863,7.342,7.342,0,0,0,3.589.857,7.988,7.988,0,0,0,2.919-.526,3.983,3.983,0,0,0,.65-.3,7.437,7.437,0,0,1-3.547.827m3.561-.835.006,0-.006,0m.026-.015h0m-3.586-2.024v0M18.91-157.036h0V-183.9a7.98,7.98,0,0,1,3.611-6.254l23.266-13.434a7.389,7.389,0,0,1,3.612-.863,7.386,7.386,0,0,1,3.611.863l2.941,1.7a8,8,0,0,1,3.611,6.178c-.025-1.586-.832-2.5-2-2.5a3.273,3.273,0,0,0-1.613.494L32.684-184.29a7.442,7.442,0,0,0-2.612,2.8l.059-.1h0l-10.162-5.867A7.377,7.377,0,0,0,18.91-183.9v26.867m40.652-38.626v0m0-.024v0" transform="translate(2.118 505.289)" fill="#6fcec2"/>
  <path id="path44" d="M58.539-196.267c0-2.3-1.617-3.237-3.611-2.085L31.661-184.918a7.983,7.983,0,0,0-3.611,6.255V-151.8c0,2.3,1.617,3.235,3.611,2.085l23.266-13.434a7.977,7.977,0,0,0,3.611-6.254v-26.867" transform="translate(3.142 505.918)" fill="#26b6a6"/>
  <path id="path46" d="M18.91-158.748a7.982,7.982,0,0,0,3.611,6.254l2.941,1.7a8.075,8.075,0,0,0,6.605.291c-1.7.643-2.994-.317-2.994-2.375v-26.867a7.394,7.394,0,0,1,1.058-3.56l-10.162-5.867a7.377,7.377,0,0,0-1.058,3.558v26.867" transform="translate(2.118 507.001)" fill="#26b6a6"/>
  <path id="path48" d="M29.051-149.938a7.342,7.342,0,0,1-3.589-.857l-2.941-1.7a7.982,7.982,0,0,1-3.611-6.254v-26.867a7.377,7.377,0,0,1,1.058-3.558l10.162,5.867-.059.1a7.331,7.331,0,0,0-1,3.456h0v26.867c0,1.631.813,2.572,2,2.572a2.823,2.823,0,0,0,1-.2,7.918,7.918,0,0,1-3.016.566" transform="translate(2.118 507.001)" fill="#1db3a0"/>
  <path id="path50" d="M33-177.869l19.785-11.474c.532-.308.963-.059.963.554v13.424a2.134,2.134,0,0,1-.963,1.669L33-162.223c-.531.308-.962.061-.962-.553V-176.2A2.139,2.139,0,0,1,33-177.869" transform="translate(3.588 506.967)" fill="#fafaf9"/>
  <path id="path52" d="M32.036-177.268l11.825,3.833,9.884-16.423-9.564,17.805-12.145-5.214" transform="translate(3.588 506.924)" fill="#dadbd8"/>
  <path id="path54" d="M22.522-251.136l23.266-13.433a7.979,7.979,0,0,1,7.223,0l2.94,1.7a7.982,7.982,0,0,1,3.611,6.255v26.865a7.979,7.979,0,0,1-3.611,6.255L32.684-210.062a7.978,7.978,0,0,1-7.222,0l-2.94-1.7a7.98,7.98,0,0,1-3.612-6.255V-244.88a7.984,7.984,0,0,1,3.612-6.255" transform="translate(2.118 498.461)" fill="#26b6a6"/>
  <path id="path56" d="M28.967-209.2a7.369,7.369,0,0,1-3.611-.864,7.323,7.323,0,0,0,3.589.858,8,8,0,0,0,2.926-.529,4.189,4.189,0,0,0,.643-.292,6.988,6.988,0,0,1-2.7.786c-.281.027-.565.041-.849.041m3.561-.835.006,0-.006,0m.026-.015,0,0,0,0m-3.584-1.985v0m0-.039v0m0-26.941a7.388,7.388,0,0,1,1.057-3.56h0L19.862-248.44a7.391,7.391,0,0,1,2.554-2.7l23.266-13.433a7.389,7.389,0,0,1,3.612-.863,7.387,7.387,0,0,1,3.611.863l2.94,1.7a8,8,0,0,1,3.611,6.178c-.025-1.586-.831-2.5-2-2.5a3.273,3.273,0,0,0-1.613.494L32.578-245.267a7.983,7.983,0,0,0-3.611,6.255m30.489-17.627v0m0-.025v0" transform="translate(2.225 498.461)" fill="#6fcec2"/>
  <path id="path58" d="M58.539-257.244c0-2.3-1.616-3.237-3.611-2.085L31.661-245.9a7.983,7.983,0,0,0-3.611,6.255v26.865c0,2.3,1.617,3.237,3.611,2.085l23.267-13.433a7.979,7.979,0,0,0,3.611-6.255v-26.865" transform="translate(3.142 499.089)" fill="#26b6a6"/>
  <path id="path60" d="M18.91-219.726a7.98,7.98,0,0,0,3.612,6.255l2.94,1.7a8.075,8.075,0,0,0,6.605.292c-1.7.641-2.994-.317-2.994-2.377v-26.865a7.388,7.388,0,0,1,1.057-3.56l-10.162-5.868a7.382,7.382,0,0,0-1.058,3.56v26.865" transform="translate(2.118 500.172)" fill="#26b6a6"/>
  <path id="path62" d="M29.052-210.915a7.323,7.323,0,0,1-3.589-.858l-2.94-1.7a7.98,7.98,0,0,1-3.612-6.255v-26.865a7.382,7.382,0,0,1,1.058-3.56l10.162,5.868a7.389,7.389,0,0,0-1.057,3.56h0v26.865h0c0,1.632.813,2.574,2,2.574a2.853,2.853,0,0,0,1-.2,7.921,7.921,0,0,1-3.016.566" transform="translate(2.118 500.172)" fill="#1db3a0"/>
  <path id="path64" d="M42.524-226.115l-2.476-.2c-3.259-.259-7.145-1.549-7.145-6.2a10.943,10.943,0,0,1,4.95-8.576c2.131-1.231,3.946-.725,4.644,1.051a11.061,11.061,0,0,1,4.644-6.414c2.735-1.579,4.951-.3,4.951,2.859,0,4.57-3.863,10.356-7.1,14.405l-2.463,3.076" transform="translate(3.685 500.51)" fill="#fafaf9"/>
  <path id="path66" d="M22.521-312.1,45.787-325.53a7.989,7.989,0,0,1,7.223,0l2.941,1.7a7.985,7.985,0,0,1,3.611,6.255v26.865a7.978,7.978,0,0,1-3.611,6.255L32.684-271.023a7.979,7.979,0,0,1-7.223,0l-2.941-1.7a7.984,7.984,0,0,1-3.611-6.254v-26.867a7.98,7.98,0,0,1,3.611-6.254" transform="translate(2.118 491.634)" fill="#26b6a6"/>
  <path id="path68" d="M29.053-270.159a7.372,7.372,0,0,1-3.612-.864,7.322,7.322,0,0,0,3.588.858,7.951,7.951,0,0,0,2.917-.526,4.065,4.065,0,0,0,.654-.3,7.439,7.439,0,0,1-3.547.827m3.561-.835.007,0-.007,0m.026-.015,0,0,0,0m-3.587-28.965c0-.031,0-.061,0-.092,0,.031,0,.061,0,.092m.6-2.642a8.958,8.958,0,0,1,.461-.918h0L19.947-309.4a8.378,8.378,0,0,0-.851,2.046,8.075,8.075,0,0,1,3.4-4.74L45.766-325.53a7.389,7.389,0,0,1,3.612-.863,7.385,7.385,0,0,1,3.611.863l2.941,1.7a8,8,0,0,1,3.611,6.18c-.025-1.586-.832-2.5-2-2.5a3.27,3.27,0,0,0-1.612.494L32.663-306.229a7.8,7.8,0,0,0-3.015,3.613M59.541-317.6v0m0-.024v0" transform="translate(2.139 491.634)" fill="#6fcec2"/>
  <path id="path70" d="M31.661-271.651c-1.994,1.152-3.611.219-3.611-2.085V-300.6a7.984,7.984,0,0,1,3.611-6.255L54.927-320.29c1.994-1.152,3.611-.218,3.611,2.085v26.865a7.978,7.978,0,0,1-3.611,6.255L31.661-271.651" transform="translate(3.142 492.262)" fill="#26b6a6"/>
  <path id="path72" d="M18.91-280.686a7.984,7.984,0,0,0,3.611,6.254l2.941,1.7a8.07,8.07,0,0,0,6.605.291c-1.7.644-2.994-.316-2.994-2.375v-26.865a7.394,7.394,0,0,1,1.058-3.56l-10.162-5.868a7.382,7.382,0,0,0-1.058,3.56v26.867" transform="translate(2.118 493.345)" fill="#26b6a6"/>
  <path id="path74" d="M29.05-271.876a7.322,7.322,0,0,1-3.588-.858l-2.941-1.7a7.984,7.984,0,0,1-3.611-6.254v-26.867a7.382,7.382,0,0,1,1.058-3.56l10.162,5.868a8.969,8.969,0,0,0-.461.918,6.89,6.89,0,0,0-.6,2.55c0,.031,0,.061,0,.092h0v26.865c0,1.632.813,2.574,2,2.574a2.827,2.827,0,0,0,1-.2,7.9,7.9,0,0,1-3.017.568" transform="translate(2.118 493.345)" fill="#1db3a0"/>
  <path id="path76" d="M37.94-297.464s2.72-6.257,2.977-7.16a27.594,27.594,0,0,0-.021-4.658c0-.6,2.476-2.273,3.268-.55a8.97,8.97,0,0,1,.418,5.782l6.033-3.518c1.273-.743,1.8.305,1.8,1.133a4.493,4.493,0,0,1-.969,2.6s1.208-.366,1.215,1.25a4.243,4.243,0,0,1-1.459,2.959s.394.3.4,1.425a4.746,4.746,0,0,1-1.687,3.019,3.453,3.453,0,0,1,.267,1.425,4.622,4.622,0,0,1-2.208,3.472L38-284.466l-.057-13" transform="translate(4.249 493.404)" fill="#fafaf9"/>
  <path id="path78" d="M32.8-280.707l4.349-2.537-.066-15.127-4.349,2.537.066,15.127" transform="translate(3.667 494.772)" fill="#fafaf9"/>
  <path id="path80" d="M11.256-382.683l35.667-20.592a12.233,12.233,0,0,1,11.072,0l4.507,2.6a12.239,12.239,0,0,1,5.536,9.59V-349.9a12.239,12.239,0,0,1-5.536,9.59L26.837-319.719a12.235,12.235,0,0,1-11.073,0l-4.508-2.6a12.236,12.236,0,0,1-5.536-9.588v-41.185a12.235,12.235,0,0,1,5.536-9.588" transform="translate(0.641 482.876)" fill="#26b6a6"/>
  <path id="path82" d="M21.3-318.4a11.307,11.307,0,0,1-5.536-1.324,11.233,11.233,0,0,0,5.5,1.317,12.2,12.2,0,0,0,4.486-.812,6.189,6.189,0,0,0,1.021-.467A11.373,11.373,0,0,1,21.3-318.4m5.476-1.288.015-.009-.015.009m.021-.012.014-.009-.014.009m.02-.012.02-.012-.02.012m-21.1-12.2h0v-41.185c0-.045,0-.089,0-.133,0,.044,0,.089,0,.133v41.185M68.039-349.9v0h0M21.3-364.182a10.537,10.537,0,0,1,.915-3.969h0a10.532,10.532,0,0,0-.916,3.969m.531-6L7.342-378.551a11.311,11.311,0,0,1,3.915-4.132l35.667-20.592a11.322,11.322,0,0,1,5.536-1.324A11.321,11.321,0,0,1,58-403.275l4.507,2.6a12.194,12.194,0,0,1,4.907,6.264,2.88,2.88,0,0,0-2.659-1.914,5.918,5.918,0,0,0-3,1.048c-5.282,3.241-31.3,17.944-34.868,20.076a13.233,13.233,0,0,0-5.047,5.014m46.208-20.933v0m0-.027c0-.065,0-.129,0-.193h0c0,.065,0,.129,0,.193" transform="translate(0.641 482.876)" fill="#1db3a0"/>
  <path id="path84" d="M66.47-392.173c0-2.052-1.011-7.177-6.293-3.935s-31.3,17.944-34.868,20.076a12.806,12.806,0,0,0-5.578,6.125l2.825,2.845L66.47-392.173" transform="translate(2.21 483.71)" fill="#26b6a6"/>
  <path id="path86" d="M20.593-368.985h0a13.719,13.719,0,0,1,.705-1.4h0l-1.089-.629a13.233,13.233,0,0,1,5.047-5.014c3.565-2.132,29.586-16.835,34.868-20.076a5.918,5.918,0,0,1,3-1.048c2.688,0,3.288,3.4,3.288,4.983l0,0c-.082-2.349-1.3-3.7-3.06-3.7a5.023,5.023,0,0,0-2.472.756L25.214-374.522a11.973,11.973,0,0,0-4.621,5.538" transform="translate(2.264 483.71)" fill="#14b099"/>
  <path id="path88" d="M25.268-320.682c-3.058,1.766-5.536.335-5.536-3.2v-41.183a12.24,12.24,0,0,1,5.536-9.59l35.666-20.591c3.058-1.766,5.536-.334,5.536,3.2v41.183a12.239,12.239,0,0,1-5.536,9.59L25.268-320.682" transform="translate(2.21 483.839)" fill="#26b6a6"/>
  <path id="path90" d="M22.793-319.932c-1.815,0-3.062-1.443-3.062-3.947h0v-41.266a12.261,12.261,0,0,1,5.536-9.507l35.666-20.591A5.024,5.024,0,0,1,63.406-396c1.817,0,3.064,1.449,3.064,3.953v41.183a12.239,12.239,0,0,1-5.536,9.59L25.268-320.682a6.3,6.3,0,0,1-1.085.5l.139-.056h0a4.36,4.36,0,0,1-1.528.3" transform="translate(2.21 483.839)" fill="#1db3a0"/>
  <path id="path92" d="M5.721-334.533a12.236,12.236,0,0,0,5.536,9.588l4.508,2.6a12.381,12.381,0,0,0,10.126.448c-2.606.984-4.59-.486-4.59-3.644v-41.183a11.322,11.322,0,0,1,1.621-5.456l-15.579-9a11.31,11.31,0,0,0-1.621,5.456v41.185" transform="translate(0.641 485.5)" fill="#26b6a6"/>
  <path id="path94" d="M21.266-321.026a11.233,11.233,0,0,1-5.5-1.317l-4.508-2.6a12.236,12.236,0,0,1-5.536-9.588v-41.185a11.31,11.31,0,0,1,1.621-5.456l15.579,9a13.719,13.719,0,0,0-.705,1.4,10.536,10.536,0,0,0-.915,3.969v.083h0v41.183c0,2.5,1.246,3.947,3.062,3.947a4.36,4.36,0,0,0,1.528-.3,12.127,12.127,0,0,1-4.625.869" transform="translate(0.641 485.5)" fill="#14b099"/>
  <path id="path96" d="M43.536-381.1l4.63,8.16,10.355-4.24c.978-.4,1.369.762.661,1.967l-7.493,12.76,1.769,10.886c.166,1.029-.856,2.476-1.731,2.451l-9.261-.274L33.206-338.42c-.875,1.036-1.9.768-1.731-.452l1.769-12.93-7.493-4.107c-.708-.388-.317-2,.661-2.73l10.355-7.716,4.63-13.508c.437-1.275,1.7-2.006,2.138-1.235" transform="translate(2.844 485.473)" fill="#fafaf9"/>
  <path id="path98" d="M500.489-208.2c-17.758,8.464-46.55,8.464-64.311,0s-17.758-22.188,0-30.652,46.553-8.464,64.311,0,17.761,22.189,0,30.652" transform="translate(47.354 500.727)" fill="#dadbd8"/>
  <path id="path100" d="M128.993-108c0,3.839,2.875,8.613,6.421,10.66L315.3,6.517a14.189,14.189,0,0,0,12.84,0l246.13-142.1c3.545-2.048,6.42-6.82,6.42-10.66s-2.875-8.616-6.42-10.663L394.383-260.763a14.2,14.2,0,0,0-12.84,0l-246.13,142.1c-3.546,2.048-6.421,6.82-6.42,10.662" transform="translate(14.446 498.812)" fill="#273e47"/>
  <path id="path102" d="M203.208-168.325l-67.8,39.142c-3.546,2.048-6.42,6.82-6.42,10.662s2.875,8.613,6.421,10.66L315.3-4.007a13.14,13.14,0,0,0,6.421,1.536V-168.325H203.208" transform="translate(14.446 509.335)" fill="#17282f"/>
  <path id="path104" d="M124.184-94.612c-3.326-1.92-6.022-6.8-6.022-10.89V-320.166a14.191,14.191,0,0,1,6.42-11.121l246.127-142.1c3.546-2.046,9.118-2.148,12.444-.228s6.024,6.8,6.024,10.89v214.663a14.189,14.189,0,0,1-6.42,11.12l-246.13,142.1c-3.546,2.048-9.116,2.15-12.442.23" transform="translate(13.233 474.993)" fill="#33535f"/>
  <path id="path106" d="M148.275-325.147l-28.234-16.3a13.128,13.128,0,0,0-1.88,6.328v214.664c0,4.094,2.7,8.97,6.022,10.889s8.9,1.819,12.442-.229L164.7-126,148.275-325.147" transform="translate(13.233 489.948)" fill="#17282f"/>
  <path id="path108" d="M128.992-313.986V-99.322c0,4.093,2.874,5.754,6.421,3.706l246.13-142.1a14.189,14.189,0,0,0,6.42-11.12V-463.5c0-4.094-2.875-5.754-6.42-3.707l-246.13,142.1a14.191,14.191,0,0,0-6.421,11.12" transform="translate(14.446 475.767)" fill="#273e47"/>
  <path id="path110" d="M135.034-111.247,314.917-7.392a14.188,14.188,0,0,0,12.84,0l246.13-142.1c3.545-2.046,3.545-5.366,0-7.413L394-260.763a14.2,14.2,0,0,0-12.84,0l-246.13,142.1c-3.546,2.048-3.546,5.366,0,7.413" transform="translate(14.824 498.812)" fill="#33535f"/>
  <path id="path112" d="M138.26-314.829,377.482-452.943c2.128-1.228,3.852-.233,3.852,2.224v185.825a8.512,8.512,0,0,1-3.852,6.672L138.26-120.111c-2.128,1.229-3.852.233-3.852-2.224V-308.157a8.515,8.515,0,0,1,3.852-6.672" transform="translate(15.052 477.404)" fill="#fafaf9"/>
  <path id="path114" d="M153.678-118.1,382.139-250a7.1,7.1,0,0,1,6.42,0l11.685,6.747c1.773,1.023,1.773,2.682,0,3.705l-228.5,131.879a7.089,7.089,0,0,1-6.42,0l-11.651-6.725c-1.773-1.023-1.773-2.682,0-3.707" transform="translate(17.061 500.103)" fill="#17282f"/>
  <path id="path116" d="M180.76-102.462l228.459-131.9a7.089,7.089,0,0,1,6.42,0l71.874,41.5c1.772,1.024,1.772,2.684,0,3.707L259.315-57.44a7.127,7.127,0,0,1-6.427.009L180.766-98.765c-1.776-1.019-1.779-2.674-.006-3.7" transform="translate(20.094 501.854)" fill="#17282f"/>
  <path id="path118" d="M303.034-159.2a1.263,1.263,0,0,0,1.14.024l7.154-4.131c.3-.176.286-.47-.04-.658l-8.272-4.777a1.266,1.266,0,0,0-1.142-.022l-7.152,4.131c-.3.175-.286.469.042.657Zm85.114-52.646a1.258,1.258,0,0,0,1.14.024l7.154-4.129c.3-.176.286-.471-.042-.66l-2.2-1.271a1.269,1.269,0,0,0-1.143-.024l-7.152,4.129c-.3.178-.285.471.041.66Zm64.419,24.486,7.152-4.129c.3-.175.288-.471-.04-.66l-8.272-4.774a1.271,1.271,0,0,0-1.142-.025l-7.152,4.131c-.3.175-.285.471.04.658l8.273,4.776A1.263,1.263,0,0,0,452.567-187.355Zm-26.136-26.526a1.269,1.269,0,0,0,1.143.024l7.152-4.129c.3-.175.285-.471-.04-.66l-8.273-4.774a1.263,1.263,0,0,0-1.14-.024l-7.152,4.129c-.3.175-.288.471.04.658Zm-17.375-10.03a1.266,1.266,0,0,0,1.142.022l7.154-4.129c.3-.176.286-.47-.042-.658l-2.2-1.274a1.262,1.262,0,0,0-1.14-.021l-7.154,4.129c-.3.175-.286.47.04.658Zm-31.364,18.106a1.266,1.266,0,0,0,1.142.024l7.154-4.129c.3-.175.285-.47-.042-.658l-2.2-1.272a1.258,1.258,0,0,0-1.14-.022l-7.154,4.129c-.3.175-.286.47.042.658Zm-53.75,34.537a1.264,1.264,0,0,0,1.143.024l7.152-4.129c.3-.175.285-.47-.04-.658l-8.273-4.776a1.263,1.263,0,0,0-1.14-.024l-7.152,4.129c-.3.176-.286.471.04.66Zm-10.454,6.037a1.266,1.266,0,0,0,1.142.022l7.152-4.129c.3-.175.286-.47-.039-.658l-8.272-4.776a1.26,1.26,0,0,0-1.143-.022l-7.152,4.129c-.3.175-.285.47.04.658Zm44.129-25.479a1.264,1.264,0,0,0,1.143.025l7.152-4.131c.3-.176.285-.471-.042-.66L357.6-200.25a1.263,1.263,0,0,0-1.14-.024l-7.152,4.129c-.3.176-.288.47.039.658ZM334.4-177.3a1.258,1.258,0,0,0,1.14.025l7.155-4.131c.3-.176.285-.471-.043-.66l-8.27-4.774a1.263,1.263,0,0,0-1.14-.024l-7.155,4.129c-.3.175-.285.47.043.66Zm33.675-19.44a1.258,1.258,0,0,0,1.14.022l7.154-4.129c.3-.176.285-.47-.042-.66l-8.272-4.776a1.258,1.258,0,0,0-1.14-.022l-7.154,4.129c-.3.175-.285.471.042.658Zm-20.91,12.07a1.261,1.261,0,0,0,1.142.024l7.152-4.129c.3-.175.286-.47-.04-.658l-8.27-4.776a1.265,1.265,0,0,0-1.143-.025l-7.152,4.131c-.3.176-.286.471.04.66Zm51.439-33.2a1.261,1.261,0,0,0,1.142.022l7.152-4.131c.3-.175.286-.468-.04-.657l-2.2-1.272a1.266,1.266,0,0,0-1.142-.024l-7.152,4.131c-.3.175-.286.47.04.658Zm-47.83,89.291,7.154-4.129c.3-.175.285-.47-.04-.658l-8.272-4.776a1.266,1.266,0,0,0-1.142-.024l-7.152,4.131c-.3.175-.286.47.04.658l8.27,4.776A1.261,1.261,0,0,0,350.772-128.585Zm-20.91,12.072,7.155-4.129c.3-.176.286-.469-.042-.659l-8.272-4.776a1.258,1.258,0,0,0-1.14-.024l-7.154,4.129c-.3.176-.286.471.042.66l8.272,4.776A1.26,1.26,0,0,0,329.863-116.513Zm10.456-6.034,7.152-4.129c.3-.178.288-.471-.04-.66l-8.27-4.776a1.266,1.266,0,0,0-1.142-.024l-7.154,4.131c-.3.173-.285.47.04.657l8.273,4.777A1.263,1.263,0,0,0,340.318-122.547ZM298.5-98.4l7.152-4.129c.3-.176.288-.471-.04-.661l-8.27-4.773a1.261,1.261,0,0,0-1.142-.025l-7.152,4.129c-.305.177-.286.471.039.661l8.272,4.774a1.266,1.266,0,0,0,1.142.024Zm20.91-12.073,7.154-4.129c.3-.175.285-.47-.043-.658l-8.27-4.777a1.259,1.259,0,0,0-1.14-.021l-7.152,4.129c-.305.175-.288.47.039.658l8.272,4.776a1.257,1.257,0,0,0,1.142.022Zm-10.454,6.037,7.152-4.131c.3-.175.285-.47-.04-.659L307.8-114a1.265,1.265,0,0,0-1.142-.024L299.5-109.9c-.3.175-.286.47.04.658l8.27,4.776A1.27,1.27,0,0,0,308.956-104.44Zm98.45-57.523a1.264,1.264,0,0,0,1.143.022l7.152-4.129c.3-.175.285-.47-.042-.658l-8.272-4.776a1.254,1.254,0,0,0-1.14-.024L399.1-167.4c-.3.175-.288.47.04.658Zm-46.178,27.343,7.152-4.129c.305-.175.286-.47-.04-.658l-8.272-4.776a1.254,1.254,0,0,0-1.14-.024l-7.154,4.131c-.3.175-.286.47.042.658l8.27,4.776A1.266,1.266,0,0,0,361.228-134.621Zm58.615-47.485,7.152-4.129c.3-.175.286-.471-.04-.66l-8.27-4.774a1.266,1.266,0,0,0-1.142-.025l-7.154,4.131c-.3.175-.286.471.04.66l8.272,4.774A1.266,1.266,0,0,0,419.843-182.105Zm10.675,6.8a1.258,1.258,0,0,0,1.14.022l7.154-4.129c.3-.176.285-.47-.041-.66l-8.272-4.776a1.255,1.255,0,0,0-1.139-.022l-7.154,4.131c-.305.175-.286.47.04.657Zm-58.836,34.649,20.91-12.072c.3-.175.285-.47-.04-.658l-8.273-4.776a1.253,1.253,0,0,0-1.14-.022l-20.91,12.07c-.3.175-.285.471.042.66l8.27,4.774A1.261,1.261,0,0,0,371.682-140.656ZM395.37-181.62l7.154-4.129c.3-.176.286-.471-.04-.66l-8.272-4.774a1.261,1.261,0,0,0-1.142-.025l-7.152,4.131c-.305.175-.286.47.04.66l8.27,4.773A1.261,1.261,0,0,0,395.37-181.62Zm46.742.3,7.154-4.129c.3-.176.286-.47-.04-.658l-8.272-4.776a1.258,1.258,0,0,0-1.14-.024l-7.155,4.129c-.3.176-.285.471.043.66l8.27,4.774A1.263,1.263,0,0,0,442.112-181.319Zm-22.907,16.637a1.263,1.263,0,0,0-1.14-.024l-7.154,4.129c-.3.176-.285.471.042.66l8.27,4.776a1.263,1.263,0,0,0,1.14.024l7.155-4.129c.3-.176.285-.471-.042-.66Zm-37.416,21.6a1.261,1.261,0,0,0-1.142-.022l-8.8,5.082c-.3.175-.286.47.042.658l8.272,4.774a1.258,1.258,0,0,0,1.14.025l8.8-5.084c.3-.175.286-.47-.04-.658Zm-110.6,63.855a1.264,1.264,0,0,0-1.142-.024l-8.8,5.084c-.3.175-.285.469.042.658l8.272,4.776a1.263,1.263,0,0,0,1.14.023l8.8-5.081c.3-.178.286-.471-.04-.661ZM357.579-129.1a1.266,1.266,0,0,0-1.142-.024l-8.8,5.082c-.3.176-.288.47.039.66l8.272,4.774a1.261,1.261,0,0,0,1.142.025l8.8-5.084c.3-.175.286-.47-.042-.658ZM283.3-86.215a1.266,1.266,0,0,0-1.142-.024l-8.8,5.084c-.3.175-.286.47.04.658l8.272,4.775a1.261,1.261,0,0,0,1.142.023l8.8-5.083c.3-.175.285-.47-.042-.658Zm62.178-35.9a1.269,1.269,0,0,0-1.143-.024L285.457-88.144c-.3.175-.286.47.04.657l8.272,4.778a1.265,1.265,0,0,0,1.142.023l58.874-33.991c.3-.177.286-.473-.04-.661ZM396.1-151.34a1.263,1.263,0,0,0-1.14-.024l-11.006,6.355c-.3.176-.286.47.04.658l8.272,4.776a1.266,1.266,0,0,0,1.142.024l11.006-6.353c.3-.176.285-.471-.041-.658Zm-26.41,15.249a1.266,1.266,0,0,0-1.142-.024l-8.8,5.082c-.3.175-.286.47.04.66l8.272,4.774a1.261,1.261,0,0,0,1.142.025l8.8-5.084c.3-.175.288-.47-.04-.658ZM481.95-191.357l-20.087-11.6a1.266,1.266,0,0,0-1.142-.022l-7.152,4.129c-.306.175-.288.47.04.658l20.087,11.6a1.271,1.271,0,0,0,1.142.025l7.152-4.131C482.3-190.874,482.277-191.169,481.95-191.357ZM463.225-190.1a1.261,1.261,0,0,0-1.142-.022l-7.152,4.131c-.3.175-.286.47.04.657l8.272,4.777a1.261,1.261,0,0,0,1.142.022l7.152-4.129c.3-.176.285-.47-.04-.658Zm-54.474,31.451a1.266,1.266,0,0,0-1.142-.024l-7.152,4.131c-.3.176-.286.47.04.658l8.272,4.777a1.266,1.266,0,0,0,1.142.022l7.152-4.131c.3-.175.286-.47-.041-.657Zm-120.7,66.279L295.2-96.5c.3-.177.286-.471-.04-.66l-8.272-4.776a1.266,1.266,0,0,0-1.142-.024l-7.152,4.13c-.3.175-.286.47.042.659l8.27,4.777a1.266,1.266,0,0,0,1.142.023Zm141.615-78.349a1.261,1.261,0,0,0-1.142-.024l-7.154,4.129c-.3.175-.285.469.04.658l8.273,4.776a1.263,1.263,0,0,0,1.14.024l7.152-4.129c.3-.176.288-.471-.04-.661Zm23.11-13.344a1.266,1.266,0,0,0-1.142-.024l-17.608,10.165c-.3.175-.285.471.042.66l8.272,4.774a1.258,1.258,0,0,0,1.14.024l17.606-10.165c.3-.176.288-.47-.039-.658ZM231.209-117.727a1.262,1.262,0,0,0,1.142.022l7.154-4.129c.3-.175.285-.47-.042-.658l-8.27-4.776a1.257,1.257,0,0,0-1.142-.022l-7.154,4.129c-.3.175-.286.47.042.658Zm10.456-6.038a1.263,1.263,0,0,0,1.14.024l7.154-4.129c.3-.175.285-.47-.042-.658l-8.27-4.776a1.266,1.266,0,0,0-1.142-.024l-7.152,4.129c-.3.176-.286.471.04.66Zm17.422,51.527a1.266,1.266,0,0,0-1.143-.024l-11,6.353c-.3.175-.286.47.04.658l8.272,4.775a1.261,1.261,0,0,0,1.142.025l11-6.354c.305-.177.286-.47-.04-.66Zm-2.42-60.188a1.266,1.266,0,0,0,1.142.022l7.152-4.129c.3-.175.286-.471-.04-.66l-8.272-4.776a1.266,1.266,0,0,0-1.142-.024l-7.152,4.131c-.3.176-.286.47.042.66Zm20.91-12.073a1.258,1.258,0,0,0,1.14.024l7.154-4.129c.3-.176.285-.471-.042-.66l-8.27-4.774a1.261,1.261,0,0,0-1.142-.024l-7.152,4.129c-.3.175-.286.47.04.658Zm-56.822,32.806a1.266,1.266,0,0,0,1.142.024l7.152-4.13c.3-.175.286-.47-.04-.659l-8.272-4.777a1.275,1.275,0,0,0-1.142-.022l-7.152,4.13c-.3.175-.286.47.04.658Zm46.367-26.77a1.266,1.266,0,0,0,1.142.024l7.154-4.131c.3-.173.285-.47-.042-.658L267.1-148a1.258,1.258,0,0,0-1.14-.025L258.81-143.9c-.3.176-.285.471.04.661Zm20.91-12.072a1.254,1.254,0,0,0,1.14.024l7.154-4.131c.3-.175.286-.469-.042-.658l-8.27-4.776a1.261,1.261,0,0,0-1.142-.022l-7.152,4.129c-.3.176-.286.47.04.658Zm-34.691,77.52-8.272-4.776a1.261,1.261,0,0,0-1.142-.022l-8.8,5.082c-.3.176-.285.472.042.66l8.27,4.774a1.266,1.266,0,0,0,1.142.024l8.8-5.084c.3-.175.285-.47-.04-.658Zm-6.865-9.68-8.27-4.776a1.266,1.266,0,0,0-1.142-.024l-13.756,7.943c-.3.175-.286.47.042.659l8.27,4.775a1.264,1.264,0,0,0,1.14.024l13.756-7.943c.305-.175.286-.47-.04-.658ZM210.3-105.657a1.258,1.258,0,0,0,1.14.026l7.152-4.13c.305-.175.288-.47-.039-.659l-8.272-4.776a1.266,1.266,0,0,0-1.142-.024l-7.152,4.129c-.3.177-.286.471.04.66Zm-6.75,3.9-8.27-4.775a1.26,1.26,0,0,0-1.142-.023l-8.8,5.082c-.3.175-.286.47.042.658l8.27,4.776a1.266,1.266,0,0,0,1.142.022l8.8-5.081c.3-.177.285-.471-.042-.66Zm28.358,13.83L223.637-92.7a1.261,1.261,0,0,0-1.142-.026l-11,6.353c-.3.175-.285.471.042.66l8.27,4.774a1.266,1.266,0,0,0,1.142.026l11-6.354c.3-.176.286-.472-.04-.66Zm-15.667-4.6L207.969-97.3a1.263,1.263,0,0,0-1.14-.024l-7.152,4.132c-.3.175-.286.469.04.658l8.27,4.776a1.266,1.266,0,0,0,1.142.023l7.154-4.129C216.586-92.044,216.567-92.337,216.242-92.526Zm61.349,6.195,7.154-4.132c.3-.175.286-.469-.04-.658L276.433-95.9a1.261,1.261,0,0,0-1.142-.022l-7.154,4.129c-.3.175-.285.47.042.659l8.27,4.776a1.267,1.267,0,0,0,1.142.025Zm7.633-42.613-7.152,4.131c-.3.176-.286.471.04.66l8.272,4.774a1.263,1.263,0,0,0,1.14.024l7.154-4.129c.3-.175.286-.47-.04-.658l-8.273-4.776a1.258,1.258,0,0,0-1.14-.025Zm-10.453,6.037-7.154,4.131c-.3.175-.286.47.04.657l8.272,4.777a1.257,1.257,0,0,0,1.14.022l7.154-4.129c.3-.177.286-.47-.042-.659l-8.27-4.775A1.258,1.258,0,0,0,274.771-122.906Zm41.816-24.145-7.152,4.131c-.3.176-.286.47.04.658l8.27,4.777a1.266,1.266,0,0,0,1.142.022l7.154-4.131c.3-.175.286-.469-.041-.657l-8.27-4.777a1.266,1.266,0,0,0-1.142-.024Zm-20.908,12.073-7.154,4.129c-.3.175-.286.471.04.658l8.272,4.776a1.263,1.263,0,0,0,1.14.024l7.155-4.129c.3-.176.285-.471-.042-.66l-8.272-4.774A1.258,1.258,0,0,0,295.679-134.978Zm10.454-6.036-7.154,4.129c-.3.176-.285.47.042.658l8.272,4.776a1.258,1.258,0,0,0,1.14.024l7.152-4.131c.305-.175.286-.47-.039-.658l-8.272-4.776A1.266,1.266,0,0,0,306.133-141.014Zm-41.818,24.143-7.154,4.129c-.3.176-.286.47.042.658l8.272,4.778a1.263,1.263,0,0,0,1.14.024l7.154-4.131c.3-.176.285-.47-.042-.66l-8.272-4.775A1.267,1.267,0,0,0,264.315-116.871Zm-10.454,6.036-7.154,4.129c-.3.175-.285.471.04.66l8.272,4.774a1.26,1.26,0,0,0,1.142.024l7.152-4.129c.305-.175.286-.471-.04-.66L255-110.811a1.258,1.258,0,0,0-1.14-.024Zm37.775,2.749,7.154-4.129c.3-.177.286-.471-.04-.66l-8.272-4.775a1.27,1.27,0,0,0-1.142-.023l-7.152,4.129c-.3.175-.286.47.04.658l8.272,4.776A1.257,1.257,0,0,0,291.636-108.086Zm-10.454,6.037,7.154-4.13c.3-.175.285-.471-.04-.66l-8.272-4.774a1.266,1.266,0,0,0-1.142-.024l-7.154,4.129c-.3.175-.285.471.042.66l8.272,4.774A1.267,1.267,0,0,0,281.182-102.049Zm-10.454,6.035,7.152-4.129c.3-.175.288-.47-.04-.659l-8.272-4.775a1.267,1.267,0,0,0-1.142-.026l-7.152,4.132c-.3.175-.286.47.04.659l8.273,4.775A1.263,1.263,0,0,0,270.727-96.014ZM243.405-104.8l-7.152,4.132c-.3.175-.286.47.04.658l8.272,4.776a1.263,1.263,0,0,0,1.14.023l7.154-4.129c.3-.175.286-.47-.042-.659l-8.27-4.775A1.261,1.261,0,0,0,243.405-104.8ZM259.132-90a1.266,1.266,0,0,0,1.142.024l7.154-4.131c.3-.177.285-.47-.042-.658l-8.272-4.777a1.261,1.261,0,0,0-1.14-.022l-7.154,4.13c-.3.175-.286.47.04.657ZM337.5-159.121l-7.152,4.129c-.305.175-.286.47.04.658l8.27,4.776a1.261,1.261,0,0,0,1.142.024l7.154-4.131c.3-.175.285-.47-.042-.658l-8.272-4.776A1.258,1.258,0,0,0,337.5-159.121Zm91.66-29.043a1.271,1.271,0,0,0,1.142.025l7.152-4.132c.3-.175.285-.47-.042-.658l-8.272-4.776a1.263,1.263,0,0,0-1.14-.022l-7.152,4.129c-.3.175-.288.47.04.658ZM327.043-153.087l-7.154,4.131c-.3.175-.286.471.04.658l8.272,4.776a1.266,1.266,0,0,0,1.142.024l7.152-4.129c.3-.176.286-.471-.04-.66l-8.27-4.776A1.266,1.266,0,0,0,327.043-153.087Zm78.684-45.428-7.154,4.131c-.3.175-.285.47.04.658l8.273,4.776a1.258,1.258,0,0,0,1.14.022l7.152-4.129c.3-.175.288-.47-.04-.658l-8.27-4.776A1.266,1.266,0,0,0,405.726-198.515Zm24.252-13.319,20.087,11.6a1.263,1.263,0,0,0,1.14.024l7.154-4.129c.3-.176.286-.471-.04-.66L438.23-216.6a1.258,1.258,0,0,0-1.14-.022l-7.154,4.129C429.632-212.317,429.65-212.022,429.978-211.834Zm-2.2,1.271a1.26,1.26,0,0,0-1.139-.024l-7.154,4.131c-.3.175-.286.47.04.657l8.272,4.777a1.266,1.266,0,0,0,1.142.024l7.152-4.129c.3-.178.286-.471-.042-.66Zm-9.293,15.6,7.152-4.131c.3-.175.285-.47-.04-.658l-8.272-4.776a1.266,1.266,0,0,0-1.142-.024l-7.152,4.129c-.3.176-.286.471.04.66l8.27,4.776A1.269,1.269,0,0,0,418.482-194.963Zm22.269.784,7.154-4.129c.3-.175.285-.47-.042-.658l-8.272-4.776a1.263,1.263,0,0,0-1.14-.024l-7.154,4.131c-.3.175-.285.47.042.658l8.272,4.776A1.258,1.258,0,0,0,440.751-194.178ZM312.545-120.157l7.154-4.129c.3-.176.285-.47-.042-.658l-8.272-4.777a1.263,1.263,0,0,0-1.14-.024l-7.152,4.131c-.3.176-.288.471.04.658l8.27,4.776A1.266,1.266,0,0,0,312.545-120.157Zm103.416-97.227a1.269,1.269,0,0,0-1.143-.025l-7.151,4.131c-.3.176-.286.471.039.66l8.272,4.774a1.266,1.266,0,0,0,1.142.024l7.152-4.129c.3-.175.286-.47-.039-.658ZM350.25-155.572,357.4-159.7c.305-.175.286-.47-.042-.658l-8.27-4.776a1.258,1.258,0,0,0-1.14-.022l-7.155,4.129c-.3.175-.285.47.042.658l8.272,4.776A1.263,1.263,0,0,0,350.25-155.572Zm54.113-55.8-7.152,4.129c-.3.175-.285.47.04.658l8.273,4.776a1.255,1.255,0,0,0,1.139.022l7.154-4.129c.3-.176.286-.47-.04-.658l-8.27-4.777A1.264,1.264,0,0,0,404.364-211.371Zm-23.11,13.341L374.1-193.9c-.3.175-.286.469.042.658l8.27,4.776a1.258,1.258,0,0,0,1.14.022l7.154-4.129c.3-.175.286-.47-.04-.658l-8.272-4.776A1.257,1.257,0,0,0,381.254-198.03Zm12.657-7.306-7.155,4.131c-.3.175-.285.469.042.657l8.272,4.777a1.263,1.263,0,0,0,1.14.024l7.155-4.129c.3-.178.285-.471-.043-.661l-8.27-4.774a1.263,1.263,0,0,0-1.14-.024Zm-91.82,91.215,7.152-4.13c.3-.175.286-.47-.04-.657l-8.27-4.777a1.261,1.261,0,0,0-1.142-.022l-7.154,4.129c-.3.177-.285.47.042.66l8.27,4.776a1.261,1.261,0,0,0,1.142.022Zm-53.443-7.348-7.154,4.129c-.3.178-.286.471.04.661l8.272,4.775a1.263,1.263,0,0,0,1.14.024l7.154-4.131c.3-.175.286-.47-.04-.658l-8.272-4.776A1.263,1.263,0,0,0,248.648-121.47Zm10.454-6.036-7.154,4.131c-.3.175-.286.471.04.658l8.273,4.776a1.263,1.263,0,0,0,1.14.024l7.154-4.129c.3-.176.285-.471-.042-.66l-8.272-4.776A1.263,1.263,0,0,0,259.1-127.505Zm10.454-6.034-7.152,4.129c-.305.175-.288.47.04.658l8.272,4.776a1.258,1.258,0,0,0,1.14.024l7.154-4.131c.3-.175.286-.47-.042-.658l-8.272-4.776A1.258,1.258,0,0,0,269.556-133.54Zm20.908-12.073-7.152,4.131c-.3.173-.286.47.042.658l8.27,4.774a1.261,1.261,0,0,0,1.142.025l7.152-4.131c.3-.175.285-.47-.04-.66l-8.272-4.774A1.266,1.266,0,0,0,290.464-145.613Zm-52.272,30.18L231.04-111.3c-.305.175-.286.47.04.658l8.27,4.775a1.262,1.262,0,0,0,1.143.024l7.152-4.131c.3-.175.286-.47-.042-.658l-8.27-4.776A1.262,1.262,0,0,0,238.192-115.433Zm41.818-24.145-7.152,4.131c-.3.175-.286.47.04.658l8.272,4.776a1.263,1.263,0,0,0,1.14.024l7.154-4.131c.3-.175.286-.47-.04-.658l-8.272-4.776A1.266,1.266,0,0,0,280.01-139.577ZM227.737-109.4l-7.152,4.129c-.3.175-.286.47.042.658l8.27,4.776a1.266,1.266,0,0,0,1.142.026l7.152-4.131c.305-.176.286-.471-.04-.66l-8.272-4.774A1.266,1.266,0,0,0,227.737-109.4Zm27.8,35.112a1.263,1.263,0,0,0,1.14.024l7.154-4.131c.3-.175.286-.468-.04-.657l-8.272-4.776a1.258,1.258,0,0,0-1.14-.025l-7.154,4.131c-.3.176-.286.47.04.658Zm11.6-6.012,7.152-4.129c.305-.175.286-.471-.039-.66l-8.273-4.775a1.263,1.263,0,0,0-1.14-.023l-7.154,4.129c-.3.175-.285.471.042.66l8.27,4.774A1.261,1.261,0,0,0,267.136-80.3Zm-33.027-8.9a1.266,1.266,0,0,0,1.142.024l7.154-4.13c.3-.175.285-.47-.042-.659l-8.27-4.776a1.263,1.263,0,0,0-1.142-.024L225.8-94.632c-.3.175-.286.47.042.658Zm-16.827-14.164-7.152,4.131c-.3.176-.286.472.04.66l8.272,4.774a1.263,1.263,0,0,0,1.14.024l7.154-4.129c.3-.175.286-.471-.042-.66l-8.27-4.774A1.266,1.266,0,0,0,217.283-103.362Zm31.395,19.4a1.267,1.267,0,0,0,1.142.024l7.152-4.131c.3-.175.286-.471-.042-.66l-8.27-4.774a1.266,1.266,0,0,0-1.142-.024L240.366-89.4c-.305.176-.286.471.04.66Zm52.242-67.684-7.154,4.129c-.3.176-.286.471.04.66l8.272,4.776a1.266,1.266,0,0,0,1.142.024l7.154-4.131c.3-.175.285-.471-.042-.658l-8.272-4.777A1.267,1.267,0,0,0,300.92-151.649Zm10.456-6.036-7.155,4.131c-.3.175-.285.47.042.658l8.272,4.776a1.258,1.258,0,0,0,1.14.022l7.154-4.129c.3-.175.286-.47-.042-.658l-8.27-4.776A1.254,1.254,0,0,0,311.375-157.685Zm53.443,7.348,15.956-9.213c.3-.175.286-.471-.04-.66l-20.088-11.6a1.261,1.261,0,0,0-1.142-.022l-8.252,4.764c-.3.178-.285.471.04.66l10.635,6.14c.326.188.344.483.042.66l-6.6,3.812c-.305.175-.286.47.04.658l8.272,4.776a1.266,1.266,0,0,0,1.142.024Zm9.643-19.211,7.152-4.132c.3-.175.286-.47-.04-.658l-8.272-4.776a1.263,1.263,0,0,0-1.14-.022l-7.154,4.129c-.3.175-.286.47.04.658l8.272,4.776A1.261,1.261,0,0,0,374.462-169.547ZM323-126.193l7.154-4.129c.3-.176.286-.471-.042-.66l-8.27-4.774a1.258,1.258,0,0,0-1.14-.024l-7.155,4.129c-.3.175-.285.47.042.658l8.272,4.776A1.258,1.258,0,0,0,323-126.193Zm10.454-6.036,7.154-4.131c.3-.175.286-.47-.04-.658l-8.272-4.776a1.266,1.266,0,0,0-1.142-.022L324-137.687c-.3.175-.285.47.042.658l8.27,4.776A1.263,1.263,0,0,0,333.454-132.229Zm10.456-6.036,7.154-4.131c.3-.175.286-.469-.042-.658l-8.27-4.776a1.266,1.266,0,0,0-1.142-.024l-7.154,4.131c-.3.175-.285.47.04.658l8.272,4.776A1.266,1.266,0,0,0,343.909-138.265Zm10.456-6.036,7.152-4.131c.3-.173.285-.471-.04-.658l-8.273-4.776a1.263,1.263,0,0,0-1.14-.024l-7.152,4.129c-.3.176-.288.471.04.661l8.272,4.774A1.266,1.266,0,0,0,354.365-144.3Zm-32.537-19.42-7.152,4.129c-.3.176-.285.471.042.66l8.27,4.774a1.258,1.258,0,0,0,1.14.024l7.154-4.129c.3-.175.286-.47-.04-.658L322.97-163.7A1.261,1.261,0,0,0,321.828-163.72Zm10.456-6.036-7.154,4.129c-.3.176-.285.47.04.658l8.272,4.776a1.261,1.261,0,0,0,1.142.025l7.152-4.131c.3-.176.288-.47-.04-.658l-8.27-4.776A1.266,1.266,0,0,0,332.284-169.756Zm28.062-16.2-7.154,4.131c-.3.175-.286.47.042.658l8.27,4.774a1.262,1.262,0,0,0,1.142.025L369.8-180.5c.3-.176.286-.473-.039-.66l-8.273-4.774A1.258,1.258,0,0,0,360.346-185.958Zm-12.656,7.308-12.1,6.989c-.3.173-.286.47.04.657l8.272,4.777a1.261,1.261,0,0,0,1.142.022l12.1-6.988c.3-.176.285-.471-.042-.66l-8.27-4.776a1.266,1.266,0,0,0-1.142-.022Zm23.11-13.344-7.154,4.129c-.3.176-.285.471.042.66l8.272,4.776a1.263,1.263,0,0,0,1.14.024l7.154-4.129c.3-.176.286-.471-.042-.66l-8.272-4.776A1.263,1.263,0,0,0,370.8-191.994Zm14.116,16.41,7.152-4.129c.3-.176.286-.471-.04-.66l-8.272-4.776a1.266,1.266,0,0,0-1.142-.024l-7.152,4.131c-.3.175-.285.47.042.658l8.272,4.777a1.263,1.263,0,0,0,1.14.022" transform="translate(20.731 502.418)" fill="#dadbd8"/>
  <path id="path120" d="M329.389-103.352l78.292-45.2,48.181,27.817-78.294,45.2-48.18-27.819" transform="translate(36.887 511.549)" fill="#17282f"/>
  <path id="path122" d="M188.49-335.3l233.3-134.692c4.562-2.635,8.3-.479,8.3,4.789v180.7a8.545,8.545,0,0,1-3.852,6.672L187-139.728c-2.117,1.223-3.852.222-3.852-2.224V-326.059a11.841,11.841,0,0,1,5.337-9.244" transform="translate(20.511 475.427)" fill="#f3f2f1"/>
  <path id="path124" d="M430.081-460.878v-4.328c0-5.268-3.733-7.424-8.3-4.789L188.49-335.3a11.841,11.841,0,0,0-5.337,9.244v7.745L430.081-460.878" transform="translate(20.511 475.427)" fill="#17282f"/>
  <path id="path126" d="M374.218-453a6.313,6.313,0,0,0-2.859,4.949c0,1.821,1.28,2.561,2.859,1.649a6.316,6.316,0,0,0,2.857-4.949c0-1.822-1.279-2.559-2.857-1.649" transform="translate(41.587 477.413)" fill="#dadbd8"/>
  <path id="path128" d="M384.412-458.883a6.313,6.313,0,0,0-2.857,4.948c0,1.822,1.28,2.56,2.857,1.649a6.309,6.309,0,0,0,2.857-4.948c0-1.822-1.278-2.56-2.857-1.649" transform="translate(42.729 476.754)" fill="#dadbd8"/>
  <path id="path130" d="M394.608-464.772a6.318,6.318,0,0,0-2.857,4.949c0,1.822,1.278,2.562,2.857,1.65a6.316,6.316,0,0,0,2.856-4.949c0-1.822-1.278-2.561-2.856-1.65" transform="translate(43.87 476.094)" fill="#dadbd8"/>
  <path id="path132" d="M183.153-319.345v34.771L430.078-427.136l0-34.774L183.153-319.345" transform="translate(20.511 476.458)" fill="#26b6a6"/>
  <g id="g134" transform="translate(203.664 14.549)">
    <g id="g136" clip-path="url(#clip-path)">
      <path id="path142" d="M183.153-284.574H430.081V-461.91H183.153Z" transform="translate(-183.153 461.91)" fill="#1db3a0"/>
    </g>
  </g>
  <path id="path144" d="M204.163-323.719a9.363,9.363,0,0,0,.984-4.461q0-2.186-.786-2.752t-2.624.5a7.463,7.463,0,0,0-2.24,2.025,4.435,4.435,0,0,0-.97,2.7v5.834a2.557,2.557,0,0,0,1.145-.157,7.432,7.432,0,0,0,1.443-.646,7.681,7.681,0,0,0,3.048-3.039Zm-6.209,6.948a5.3,5.3,0,0,1-2.563.144v-17.041a1.884,1.884,0,0,1,.212-.928,1.82,1.82,0,0,1,.71-.669l1.269-.732q.5-.287.721-.157c.15.086.225.31.225.675v5.6a9.576,9.576,0,0,1,1.692-1.984,13.042,13.042,0,0,1,2.24-1.638q2.813-1.624,4.329-.718t1.518,4.123a13.472,13.472,0,0,1-1.779,6.833,13.908,13.908,0,0,1-5.263,5.108,12.877,12.877,0,0,1-3.311,1.38" transform="translate(21.881 490.536)" fill="#fafaf9"/>
  <path id="path146" d="M209.412-323.542c-.141-.09-.212-.308-.212-.654v-17.443a1.882,1.882,0,0,1,.212-.927,1.816,1.816,0,0,1,.709-.669l1.32-.762q.5-.287.722-.157c.15.086.224.31.224.675v17.443a1.837,1.837,0,0,1-.211.9,1.9,1.9,0,0,1-.735.684l-1.32.762q-.5.285-.709.15" transform="translate(23.428 489.641)" fill="#fafaf9"/>
  <path id="path148" d="M223.691-335.144a8.288,8.288,0,0,0,.919-3.981q0-2.242-.919-2.875t-2.688.39a6.926,6.926,0,0,0-2.676,2.707,8.074,8.074,0,0,0-.933,3.945q0,2.242.933,2.9c.621.437,1.514.317,2.676-.353a6.892,6.892,0,0,0,2.688-2.729Zm-7.68,6.344q-1.753-.956-1.752-4.347a12.365,12.365,0,0,1,1.752-6.372,13.472,13.472,0,0,1,4.992-4.85q3.236-1.868,5-.919t1.767,4.338a12.329,12.329,0,0,1-1.767,6.381,13.531,13.531,0,0,1-5,4.857q-3.236,1.866-4.992.912" transform="translate(23.994 489.482)" fill="#fafaf9"/>
  <path id="path150" d="M237.065-342.936a5.161,5.161,0,0,0,.87-2.845V-350.9a3.911,3.911,0,0,0-1.192.286,10.444,10.444,0,0,0-1.52.734,7.449,7.449,0,0,0-3.932,6.9q0,2.128.872,2.673t2.638-.476A6.535,6.535,0,0,0,237.065-342.936Zm-4.878,10.964a4.907,4.907,0,0,1-2.091.374c-.265-.019-.331-.193-.2-.516l.722-1.827a.955.955,0,0,1,.3-.46l.251-.058a7.547,7.547,0,0,0,3.557-1.25,6.335,6.335,0,0,0,2.44-2.328,7.169,7.169,0,0,0,.77-3.549,10.071,10.071,0,0,1-1.628,2.22,10.41,10.41,0,0,1-2.254,1.718q-2.787,1.608-4.341.753t-1.557-4.045a12.392,12.392,0,0,1,1.855-6.63,14.835,14.835,0,0,1,5.363-5.037,12.193,12.193,0,0,1,3.173-1.317,5.784,5.784,0,0,1,2.526-.163v9.858a13.461,13.461,0,0,1-1.469,6.307,11.451,11.451,0,0,1-4.6,4.641,16.51,16.51,0,0,1-2.813,1.308" transform="translate(25.55 488.524)" fill="#fafaf9"/>
  <path id="path152" d="M221.066-310.263v122.211c0,.818.423,1.228.944.913a2.6,2.6,0,0,0,.944-2.052V-311.4c0-.82-.423-1.229-.944-.913a2.6,2.6,0,0,0-.944,2.052" transform="translate(24.756 493.199)" fill="#26b6a6"/>
  <path id="path154" d="M156.4-264.675,210.2-295.739c1.772-1.024,3.21-.194,3.21,1.853v37.847a7.1,7.1,0,0,1-3.21,5.56L156.4-219.414c-1.773,1.023-3.21.193-3.21-1.853v-37.847a7.092,7.092,0,0,1,3.21-5.56" transform="translate(17.155 495.018)" fill="#dadbd8"/>
  <path id="path156" d="M213.414-293.886c0-2.048-1.438-2.878-3.21-1.853L156.4-264.675a7.093,7.093,0,0,0-3.21,5.56v3.225l60.225-34.772v-3.223" transform="translate(17.155 495.018)" fill="#26b6a6"/>
  <path id="path158" d="M158.6-255.42l24.09-13.909v24.341l-24.088,13.907V-255.42" transform="translate(17.762 498.024)" fill="#fafaf9"/>
  <path id="path160" d="M158.6-235.495l9.034-16.041a1.007,1.007,0,0,1,1.726-.2l3.164,3.466,5.438-12.562c.326-.752.971-.818,1.443-.148l3.284,4.672v10.432L158.6-231.965v-3.53" transform="translate(17.762 498.908)" fill="#26b6a6"/>
  <path id="path162" d="M185.685-269.391c0,1.158.863,1.6,1.926.986l14.214-8.208a4.138,4.138,0,0,0,1.927-3.21c0-1.159-.861-1.6-1.926-.986L187.611-272.6a4.14,4.14,0,0,0-1.926,3.21" transform="translate(20.794 496.708)" fill="#fafaf9"/>
  <path id="path164" d="M185.685-260.386c0,1.158.863,1.6,1.926.986l14.214-8.208a4.138,4.138,0,0,0,1.927-3.21c0-1.158-.861-1.6-1.926-.986L187.611-263.6a4.14,4.14,0,0,0-1.926,3.21" transform="translate(20.794 497.716)" fill="#fafaf9"/>
  <path id="path166" d="M185.685-251.38c0,1.158.863,1.6,1.926.986l14.214-8.208a4.138,4.138,0,0,0,1.927-3.21c0-1.158-.861-1.6-1.926-.986l-14.216,8.206a4.145,4.145,0,0,0-1.926,3.211" transform="translate(20.794 498.725)" fill="#fafaf9"/>
  <path id="path168" d="M156.4-211.975,210.2-243.041c1.772-1.023,3.21-.193,3.21,1.853v37.849a7.1,7.1,0,0,1-3.21,5.56L156.4-166.714c-1.773,1.023-3.21.194-3.21-1.853v-37.847a7.093,7.093,0,0,1,3.21-5.56" transform="translate(17.155 500.919)" fill="#dadbd8"/>
  <path id="path170" d="M213.414-241.187c0-2.046-1.438-2.876-3.21-1.853L156.4-211.975a7.093,7.093,0,0,0-3.21,5.56v3.223l60.225-34.771v-3.225" transform="translate(17.155 500.919)" fill="#26b6a6"/>
  <path id="path172" d="M158.6-202.722l24.09-13.907v24.339l-24.088,13.909v-24.341" transform="translate(17.762 503.926)" fill="#fafaf9"/>
  <path id="path174" d="M158.6-182.795l9.034-16.041a1.007,1.007,0,0,1,1.726-.2l3.164,3.468,5.438-12.564c.326-.75.971-.815,1.443-.147l3.284,4.67v10.432L158.6-179.265v-3.53" transform="translate(17.762 504.81)" fill="#26b6a6"/>
  <path id="path176" d="M185.685-216.691c0,1.159.863,1.6,1.926.986l14.214-8.208a4.138,4.138,0,0,0,1.927-3.21c0-1.159-.861-1.6-1.926-.987L187.611-219.9a4.14,4.14,0,0,0-1.926,3.21" transform="translate(20.794 502.609)" fill="#fafaf9"/>
  <path id="path178" d="M185.685-207.686c0,1.159.863,1.6,1.926.987l14.214-8.209a4.138,4.138,0,0,0,1.927-3.21c0-1.159-.861-1.6-1.926-.986L187.611-210.9a4.145,4.145,0,0,0-1.926,3.211" transform="translate(20.794 503.618)" fill="#fafaf9"/>
  <path id="path180" d="M185.685-198.68c0,1.159.863,1.6,1.926.986l14.214-8.208a4.138,4.138,0,0,0,1.927-3.21c0-1.158-.861-1.6-1.926-.986l-14.216,8.206a4.145,4.145,0,0,0-1.926,3.211" transform="translate(20.794 504.626)" fill="#fafaf9"/>
  <path id="path182" d="M240.524-256.922l165.42-95.5c1.773-1.024,3.21-.194,3.21,1.853v48.238a7.1,7.1,0,0,1-3.21,5.56l-165.421,95.5c-1.772,1.023-3.21.193-3.21-1.853v-48.241a7.1,7.1,0,0,1,3.21-5.56" transform="translate(26.576 488.671)" fill="#dadbd8"/>
  <path id="path184" d="M409.154-350.564c0-2.047-1.437-2.878-3.21-1.853l-165.42,95.5a7.1,7.1,0,0,0-3.21,5.56v3.226l171.84-99.2v-3.225" transform="translate(26.576 488.671)" fill="#26b6a6"/>
  <path id="path186" d="M277.624-275.549,244.215-256.26a5.673,5.673,0,0,0-2.568,4.448v33.021c0,1.637,1.149,2.3,2.568,1.483L277.624-236.6a5.673,5.673,0,0,0,2.568-4.448v-33.023c0-1.637-1.149-2.3-2.568-1.483" transform="translate(27.061 497.289)" fill="#fafaf9"/>
  <path id="path188" d="M253.431-247.585l-11.784,25.131v2.608c0,1.637,1.149,2.3,2.568,1.483l33.408-19.288a5.673,5.673,0,0,0,2.568-4.448v-11.409l-6.318-11.914c-.768-1.447-1.91-1.4-2.552.11l-9.947,23.389-4.832-6.031a1.7,1.7,0,0,0-3.112.371" transform="translate(27.061 498.344)" fill="#26b6a6"/>
  <path id="path190" d="M245.51-248.449a12.762,12.762,0,0,0,5.773-10,4.821,4.821,0,0,0-.87-3.007l-6.2,3.579a5.673,5.673,0,0,0-2.568,4.448v5.487a4.19,4.19,0,0,0,3.862-.507" transform="translate(27.061 498.906)" fill="#26b6a6"/>
  <path id="path192" d="M290.15-276.082l103.272-59.623c1.417-.818,2.568-.258,2.568,1.253a5.463,5.463,0,0,1-2.566,4.217L290.15-270.611c-1.417.818-2.566.258-2.566-1.253a5.466,5.466,0,0,1,2.566-4.218" transform="translate(32.205 490.549)" fill="#fafaf9"/>
  <path id="path194" d="M290.15-263.574,393.422-323.2c1.417-.82,2.568-.259,2.568,1.251a5.468,5.468,0,0,1-2.566,4.218L290.15-258.1c-1.417.818-2.566.256-2.566-1.254a5.465,5.465,0,0,1,2.566-4.217" transform="translate(32.205 491.95)" fill="#fafaf9"/>
  <path id="path196" d="M290.15-251.068l103.272-59.623c1.417-.818,2.568-.258,2.568,1.253a5.471,5.471,0,0,1-2.566,4.218L290.15-245.6c-1.417.818-2.566.258-2.566-1.253a5.466,5.466,0,0,1,2.566-4.218" transform="translate(32.205 493.35)" fill="#fafaf9"/>
  <path id="path198" d="M445.665-401.811l-15.157-.423c-1.02-.872-16.941-18.84-16.941-18.84s-5.729,9.04-5.825,9.616,15.611,17.372,17.163,19.067a4.679,4.679,0,0,0,3.707,1.812c4.108.246,19.491,1.327,19.491,1.327l-2.437-12.559" transform="translate(45.661 481.031)" fill="#f47089"/>
  <path id="path200" d="M463.584-386.336l-23.366-1.727,1.81-15.688,24.123.526-2.566,16.889" transform="translate(49.298 482.971)" fill="#26b6a6"/>
  <path id="path202" d="M451.9-387.2l-11.683-.864,1.81-15.688,24.123.526c-10.462.608-14.25,8.8-14.25,15.618v.408" transform="translate(49.298 482.971)" fill="#14b099"/>
  <path id="path204" d="M267.6-332.023l165.421-95.5c1.772-1.024,3.21-.194,3.21,1.853v48.238a7.093,7.093,0,0,1-3.21,5.56L267.6-276.371c-1.772,1.025-3.21.194-3.21-1.853v-48.239a7.1,7.1,0,0,1,3.21-5.56" transform="translate(29.608 480.261)" fill="#dadbd8"/>
  <path id="path206" d="M436.235-425.665c0-2.048-1.438-2.878-3.21-1.853L267.6-332.023a7.1,7.1,0,0,0-3.21,5.56v3.226l171.841-99.2v-3.225" transform="translate(29.608 480.261)" fill="#26b6a6"/>
  <path id="path208" d="M304.7-350.651,271.3-331.361a5.673,5.673,0,0,0-2.568,4.448v33.021c0,1.637,1.149,2.3,2.568,1.483L304.7-311.7a5.673,5.673,0,0,0,2.568-4.448v-33.023c0-1.637-1.149-2.3-2.568-1.483" transform="translate(30.094 488.878)" fill="#fafaf9"/>
  <path id="path210" d="M280.511-322.686l-11.784,25.131v2.608c0,1.637,1.149,2.3,2.568,1.483L304.7-312.752a5.673,5.673,0,0,0,2.568-4.448v-11.409l-6.318-11.914c-.768-1.447-1.908-1.4-2.55.11l-9.949,23.387-4.832-6.03a1.7,1.7,0,0,0-3.112.371" transform="translate(30.094 489.934)" fill="#26b6a6"/>
  <path id="path212" d="M272.59-323.552a12.757,12.757,0,0,0,5.773-10,4.819,4.819,0,0,0-.87-3.005l-6.2,3.579a5.673,5.673,0,0,0-2.568,4.448v5.487a4.187,4.187,0,0,0,3.862-.509" transform="translate(30.094 490.496)" fill="#26b6a6"/>
  <path id="path214" d="M317.231-351.183,420.5-410.806c1.417-.818,2.568-.258,2.568,1.253a5.459,5.459,0,0,1-2.568,4.217l-103.27,59.624c-1.419.818-2.568.258-2.568-1.253a5.463,5.463,0,0,1,2.568-4.218" transform="translate(35.238 482.139)" fill="#fafaf9"/>
  <path id="path216" d="M317.231-338.675,420.5-398.3c1.417-.818,2.568-.258,2.568,1.253a5.462,5.462,0,0,1-2.568,4.218l-103.27,59.623c-1.419.82-2.568.258-2.568-1.253a5.461,5.461,0,0,1,2.568-4.217" transform="translate(35.238 483.54)" fill="#fafaf9"/>
  <path id="path218" d="M317.231-326.169,420.5-385.792c1.417-.818,2.568-.258,2.568,1.251a5.46,5.46,0,0,1-2.568,4.218L317.231-320.7c-1.419.818-2.568.258-2.568-1.254a5.463,5.463,0,0,1,2.568-4.217" transform="translate(35.238 484.94)" fill="#fafaf9"/>
  <path id="path220" d="M488.943-226.191h-8.754v-12.749h8.754v12.749" transform="translate(53.774 501.427)" fill="#f6879f"/>
  <path id="path222" d="M461.694-240.388l-8.751.3-.439-12.742,8.751-.3.439,12.74" transform="translate(50.674 499.839)" fill="#f6879f"/>
  <path id="path224" d="M492.3-350.856c0,8.359,1.081,62.436,1.081,62.436.2,2.4,2.458,6.839,1.97,16.079-.663,12.549-1.747,47.413-1.747,47.413s-4.105,4.068-9.9,0c0,0-7.926-47.37-9.495-59.807-1.368-10.854-3.692-40.341-3.692-40.341l-8.11,34.709s1.426,8.159,1.739,13.918-1.486,39.02-1.486,39.02a9.56,9.56,0,0,1-9.524.363s-7.034-48.6-7.937-53.8,6.156-59.992,6.156-59.992H492.3" transform="translate(49.847 488.895)" fill="#33535f"/>
  <path id="path226" d="M478.491-402.88l.119.028a17.354,17.354,0,0,1,13.059,16.884v40.982c-6.14,6.678-27.54,9.788-40.945,0V-387.66c0-6.819,3.788-15.01,14.25-15.618l13.517.4" transform="translate(50.474 483.024)" fill="#26b6a6"/>
  <path id="path228" d="M478.472-434.3a4.664,4.664,0,0,1,3.861,1.357c1.658,1.695,1.314,4.833,0,12.045l-5.123.589,1.265-13.99" transform="translate(53.44 479.546)" fill="#17282f"/>
  <path id="path230" d="M451.961-436.09a8.019,8.019,0,0,1-3.206-.651c-1.573-.9-1.984.884-1.121,2.438a7.322,7.322,0,0,0,5.944,3.959c.046-.222,1.471-4,1.471-4l-3.088-1.744" transform="translate(50.079 479.25)" fill="#17282f"/>
  <path id="path232" d="M478.934-419.729c.761.454,1.846-1.007,2.784-1.988s4-2.323,5.529.9c1.555,3.28-1.978,7.643-4.054,9.084-2.466,1.712-4.26.369-4.26.369l-.543,12.545s-2.721,6.656-10.088,7.653-5.849-5.075-3.429-8.051l.012-4.561s-3.806.765-5.6.288c-.961-.256-3.251-3.027-4.731-6.128-1.661-3.48-4.424-9.661-1.965-20.112,2.642-11.228,14.7-11.571,21.9-7.043s4.449,17.047,4.449,17.047" transform="translate(50.574 478.968)" fill="#f6879f"/>
  <path id="path234" d="M479.2-417.654c.383.007,1.837-2.406,2.784-3.268,1.312-1.2-.381-12-.381-12s1.328-4.1-1.265-6.82-7.618-2.26-11.292-2.393a33,33,0,0,1-13.136-2.635c-5.217-2.266-5.607-2.535-6.255-.243s-.891,7.539,2.222,11.058l2.592.952s1.4,1.241,6.266,1.834a71.957,71.957,0,0,0,13.485-.257c1.41-.193,1.712,1.176,2.473,4.912.667,3.28,1.222,8.84,2.507,8.865" transform="translate(50.309 478.172)" fill="#17282f"/>
  <path id="path236" d="M478.366-433.153l4.6-2.469a2.533,2.533,0,0,0-3.481-1.152,2.745,2.745,0,0,0-1.118,3.621" transform="translate(53.538 479.24)" fill="#17282f"/>
  <path id="path238" d="M463.549-406.784s6.82-1.374,9.206-2.642a7.848,7.848,0,0,0,3.294-3.262,10.751,10.751,0,0,1-1.871,3.847c-1.745,2.23-10.629,3.871-10.629,3.871v-1.815" transform="translate(51.911 481.97)" fill="#f47089"/>
  <path id="path240" d="M465.023-423.11a1.389,1.389,0,0,0,1.367,1.416,1.4,1.4,0,0,0,1.367-1.423,1.389,1.389,0,0,0-1.367-1.417,1.4,1.4,0,0,0-1.367,1.425" transform="translate(52.076 480.644)" fill="#17282f"/>
  <path id="path242" d="M466.327-427.8l2.924,1.615a1.754,1.754,0,0,0-.682-2.329,1.63,1.63,0,0,0-2.242.715" transform="translate(52.222 480.175)" fill="#17282f"/>
  <path id="path244" d="M465.429-414.92l-3.12,1.171a1.638,1.638,0,0,0,2.12,1.033,1.745,1.745,0,0,0,1-2.2" transform="translate(51.772 481.721)" fill="#f47089"/>
  <path id="path246" d="M454.094-426.594l2.667-2.053a1.614,1.614,0,0,0-2.317-.356,1.769,1.769,0,0,0-.35,2.409" transform="translate(50.816 480.105)" fill="#17282f"/>
  <path id="path248" d="M454.8-423.461a1.391,1.391,0,0,0,1.367,1.417,1.4,1.4,0,0,0,1.367-1.425,1.389,1.389,0,0,0-1.367-1.416,1.4,1.4,0,0,0-1.367,1.423" transform="translate(50.931 480.605)" fill="#17282f"/>
  <path id="path250" d="M461.539-424.77l-.448,8.22-4.292-1.463Z" transform="translate(51.155 480.618)" fill="#f47089"/>
  <path id="path252" d="M481.584-231.235v-1.251c-.836.365-2.784,7.79-6.257,10.957-2.762,2.521-6.528,5.429-7.486,8.236-1,2.921,5.246,4.534,7.825,4.076,3-.531,8.192-2.641,9.5-4.6s1.914-4.842,2.974-6.277,3.5-3.035,4.076-4.694c.316-.91-.058-2.907-.5-4.6-.4-1.546-.845-3.248-1.374-3.1,0,.19,0,.953,0,.953a6.9,6.9,0,0,1-4.377,1.48c-1.28.05-4.387-.2-4.377-1.182" transform="translate(52.379 502.149)" fill="#17282f"/>
  <path id="path254" d="M454.912-243.778c-.455.016-.826.657-1.828,1.742a19.1,19.1,0,0,1-5.149,3.705c-3.278,1.641-9.651,4.165-12.534,5.465-1.8.811-1.718,2.988.144,4.227s6.359,2.131,11.759.924c2.942-.658,6.771-3.374,9.194-3.229s6.958.111,8.749-1.121,1.072-3.867.566-6.129c-.552-2.47-1.342-6.249-2.159-6.08l.027.777c-1.053,1.594-6.409,2.245-8.722,1.072l-.046-1.352" transform="translate(48.612 500.829)" fill="#17282f"/>
  <path id="path256" d="M486.617-397.808l-27.031,27.966s-23.706-4.243-31.816-6.564c-2.556-.732-4.331-4.538-4.894-7.483s-2.033-3.844-2.033-3.844-.059,2.085-.538,5.52c-.206,1.493-2.55,1.675-4.636,2.123-7.449,1.6-9.945-.036-13,2.144-2.371,1.689.6,6.079,6.018,7.562,7.6,2.083,11.794,1.044,16.423,2.19,3.569.887,29.279,8.96,34.172,10.029,2.59.565,4.561.387,7.37-2.4s24.155-21.383,24.155-21.383l-4.188-15.863" transform="translate(45.001 483.637)" fill="#f6879f"/>
  <path id="path258" d="M481.254-398.674c-2.976-.743-21.045,20.827-21.045,20.827l9.963,8.355s12.89-8.45,15.181-11.833,4.875-15.1-4.1-17.348" transform="translate(51.537 483.538)" fill="#26b6a6"/>
  <path id="path260" d="M469.915-369.874s13.609-12.187,14.245-13.52c1.229-2.569.894-7.318.894-7.318s1.48,4.129.042,7.315-11.828,12.238-13.505,13.8l-1.675,1.564-1.616-1.5.968-.854.648.513" transform="translate(52.443 484.431)" fill="#26b6a6"/>
  <path id="path262" d="M469.915-368.029l-1.616-1.5h0l.968-.854.648.513s13.609-12.187,14.245-13.52a15.165,15.165,0,0,0,.936-5.843c0-.881-.042-1.475-.042-1.475a13.474,13.474,0,0,1,.67,4.073,7.941,7.941,0,0,1-.629,3.243c-1.437,3.188-11.829,12.238-13.505,13.8l-1.675,1.564" transform="translate(52.443 484.431)" fill="#14b099"/>
  <path id="path264" d="M409.141-426.043c2.964-.325,4.936-2.523,5.6-1.9a1.641,1.641,0,0,1,.085,2.148c-.826.955-4.432,2.558-4.432,2.558a33.41,33.41,0,0,0-.805,4.586c-.248,2.267-.162,6.8-2.1,8.35-5.793,4.644-7.284-2.737-7.051-7.683.289-6.148,5.592-7.714,8.7-8.055" transform="translate(44.841 480.25)" fill="#f47089"/>
</svg>
