<svg xmlns="http://www.w3.org/2000/svg" xmlns:xlink="http://www.w3.org/1999/xlink" width="176.857" height="174.696" viewBox="0 0 176.857 174.696">
  <defs>
    <filter id="Tracé_18" x="0" y="0" width="176.857" height="174.696" filterUnits="userSpaceOnUse">
      <feOffset dy="15" input="SourceAlpha"/>
      <feGaussianBlur stdDeviation="7.5" result="blur"/>
      <feFlood flood-opacity="0.161"/>
      <feComposite operator="in" in2="blur"/>
      <feComposite in="SourceGraphic"/>
    </filter>
  </defs>
  <g id="Composant_39_1" data-name="Composant 39 – 1" transform="translate(5.649 8)">
    <path id="Tracé_17" data-name="Tracé 17" d="M79.428-2C46.714-2,14,30.714,14,63.428,14,91.1,37.414,118.78,64.6,126.7c22.732-.416,22.111-17.764,42.634-34.044,18.195-14.433,37.746-9.951,37.624-29.223C144.856,30.714,112.142-2,79.428-2Z" transform="translate(-14 2)" fill="#606c38" stroke="#707070" stroke-width="1" opacity="0.44"/>
    <g transform="matrix(1, 0, 0, 1, -5.65, -8)" filter="url(#Tracé_18)">
      <path id="Tracé_18-2" data-name="Tracé 18" d="M79.428-2C46.714-2,14,30.714,14,63.428,14,91.1,37.586,125.005,64.6,126.7c22.732-.416,24.729-14.067,45.252-30.347,18.195-14.433,35.128-13.648,35.006-32.921C144.856,30.714,112.142-2,79.428-2Z" transform="translate(9 10)" fill="#fff" stroke="#707070" stroke-width="1"/>
    </g>
    <g id="mind" transform="translate(52.778 34.346)">
      <path id="Shape" d="M2.472,38.391a7.137,7.137,0,0,0,1.039.6c.432.221,1.156.591,1.207.85A1.737,1.737,0,0,1,4.6,40.854c-.149.32-.3.6-.44.832-.366.647-.979,1.731-.055,2.486.216.2.589.489.929.75a2.519,2.519,0,0,0-.325,1.443,1.44,1.44,0,0,0,.593.983c.222.157.459.293.693.426.591.337.822.494.9.807a2.755,2.755,0,0,1-.1,1.2c-.059.267-.116.535-.15.8a5.951,5.951,0,0,0,.329,2.694A3.746,3.746,0,0,0,10.511,56a4.021,4.021,0,0,0,.82-.087,75.883,75.883,0,0,0,8.431-2.523c2.253,1.322,3.676,5.342,4.047,6.851A1,1,0,0,0,24.78,61l25.1-.07a1,1,0,0,0,.952-1.3,7.716,7.716,0,0,0-1.013-1.9,9.334,9.334,0,0,1-.647-1.082A18.89,18.89,0,0,1,48.043,53.8a33.742,33.742,0,0,1-1.174-5.85,1,1,0,1,0-1.984.244,35.674,35.674,0,0,0,1.247,6.2,20.959,20.959,0,0,0,1.241,3.13,11.094,11.094,0,0,0,.775,1.307l.067.1L25.536,59a15.93,15.93,0,0,0-3.52-6.386l.9-.315c.67-.234,1.175-.41,1.434-.493,4.284-1.355,6.426-3.306,6.368-5.8A.974.974,0,0,0,29.7,45.03a1,1,0,0,0-.976,1.023c.024,1.029-.819,2.53-4.976,3.845-.271.087-.793.269-1.486.511-.743.26-1.688.59-2.73.944h-.007a77.809,77.809,0,0,1-8.6,2.6A1.77,1.77,0,0,1,8.867,52.62a3.976,3.976,0,0,1-.235-1.784c.026-.21.074-.418.12-.627a4.381,4.381,0,0,0,.087-2.129,3.323,3.323,0,0,0-1.851-2.044l-.208-.119a3.749,3.749,0,0,1,.385-.618,1,1,0,0,0-.191-1.424c-.24-.176-.806-.6-1.22-.934.048-.087.1-.183.15-.27.157-.275.336-.6.511-.965a3.749,3.749,0,0,0,.267-2.238c-.24-1.22-1.408-1.818-2.261-2.254a5.683,5.683,0,0,1-.822-.477,4.246,4.246,0,0,1-.6-.488c0-.151.162-.517.924-1.446A40.225,40.225,0,0,0,8.5,27.369a2.954,2.954,0,0,0,.387-1.353,3.5,3.5,0,0,0-1.461-2.5c-.405-.371-.786-.721-.83-1.044a1.817,1.817,0,0,1,.156-.687c.163-.429.351-.849.54-1.27a14.609,14.609,0,0,0,.978-2.637l.1-.426A25,25,0,0,1,9.188,14.5a17.15,17.15,0,0,1,3.588-5.861C14.689,6.615,17.7,5.183,21.74,4.38a65,65,0,0,1,9.382-1.352,21.328,21.328,0,0,1,4.707.267,1,1,0,0,0,.342-1.97,23.225,23.225,0,0,0-5.153-.294,66.745,66.745,0,0,0-9.673,1.388c-4.509.9-7.786,2.481-10.023,4.845a19.16,19.16,0,0,0-4.011,6.543A27.124,27.124,0,0,0,6.425,17l-.1.422A13.048,13.048,0,0,1,5.47,19.7c-.2.456-.408.912-.587,1.384a3.349,3.349,0,0,0-.265,1.673A3.818,3.818,0,0,0,6.076,24.99c.489.449.81.765.814,1.04a1.66,1.66,0,0,1-.171.435,38.579,38.579,0,0,1-4.38,7.117c-.723.881-1.48,1.908-1.319,2.935A3.053,3.053,0,0,0,2.472,38.391Z" transform="translate(-0.998 -0.997)" fill="#7d8f41"/>
      <path id="Shape-2" data-name="Shape" d="M12.167,18.793l.1-.445a22.284,22.284,0,0,1,.667-2.458,13.177,13.177,0,0,1,2.744-4.5,10.47,10.47,0,0,1,4.609-2.531A1,1,0,1,0,19.7,6.946a12.384,12.384,0,0,0-5.481,3.071A15.18,15.18,0,0,0,11.061,15.2a23.836,23.836,0,0,0-.741,2.709l-.1.433a1,1,0,0,0,.747,1.2.98.98,0,0,0,.227.026A1,1,0,0,0,12.167,18.793Z" transform="translate(-0.998 -0.997)" fill="#7d8f41"/>
      <circle id="Oval" cx="1" cy="1" r="1" transform="translate(8.002 20.003)" fill="#7d8f41"/>
      <path id="Shape-3" data-name="Shape" d="M28,21.21a13.706,13.706,0,0,0,3.379,9.29,17.179,17.179,0,0,0,2.3,2c1.463,1.131,2.849,2.212,3.217,3.716A3,3,0,0,0,35,39v2a3,3,0,0,0,2,2.816V44a4,4,0,0,0,8,0v-.184A3,3,0,0,0,47,41V39a3,3,0,0,0-1.9-2.784c.367-1.5,1.754-2.585,3.217-3.716a17.254,17.254,0,0,0,2.3-2A13.713,13.713,0,0,0,54,21.21,13.264,13.264,0,0,0,41,8,13.264,13.264,0,0,0,28,21.21ZM38,23H37a1,1,0,1,1,1-1Zm4,13H40V25h2ZM41,46a2,2,0,0,1-2-2h4A2,2,0,0,1,41,46Zm4-5a1,1,0,0,1-1,1H38a1,1,0,0,1-1-1V39a1,1,0,0,1,1-1h6a1,1,0,0,1,1,1Zm7-19.759a11.693,11.693,0,0,1-2.863,7.919A15.627,15.627,0,0,1,47.1,30.917,14,14,0,0,0,44,33.876V25h1a3,3,0,1,0-3-3v1H40V22a3,3,0,1,0-3,3h1v8.876a13.983,13.983,0,0,0-3.1-2.958,15.658,15.658,0,0,1-2.038-1.758A11.687,11.687,0,0,1,30,21.241C30.1,15.147,35.132,10,41,10S51.9,15.147,52,21.241ZM44,23V22a1,1,0,1,1,1,1Z" transform="translate(-0.998 -0.997)" fill="#7d8f41"/>
      <path id="Shape-4" data-name="Shape" d="M57,22h3a1,1,0,0,0,0-2H57a1,1,0,0,0,0,2Z" transform="translate(-0.998 -0.997)" fill="#7d8f41"/>
      <path id="Shape-5" data-name="Shape" d="M52.313,10.687a1,1,0,0,0,.708-.293l2.121-2.122a1,1,0,1,0-1.414-1.414L51.606,8.979a1,1,0,0,0,.707,1.708Z" transform="translate(-0.998 -0.997)" fill="#7d8f41"/>
      <path id="Shape-6" data-name="Shape" d="M41,6a1,1,0,0,0,1-1V2a1,1,0,0,0-2,0V5A1,1,0,0,0,41,6Z" transform="translate(-0.998 -0.997)" fill="#7d8f41"/>
      <path id="Shape-7" data-name="Shape" d="M30.394,10.394a1,1,0,0,0,0-1.415L28.272,6.858a1,1,0,1,0-1.414,1.414l2.121,2.122a1,1,0,0,0,1.415,0Z" transform="translate(-0.998 -0.997)" fill="#7d8f41"/>
      <path id="Shape-8" data-name="Shape" d="M22,20a1,1,0,0,0,0,2h3a1,1,0,0,0,0-2Z" transform="translate(-0.998 -0.997)" fill="#7d8f41"/>
    </g>
  </g>
</svg>
