<svg xmlns="http://www.w3.org/2000/svg" xmlns:xlink="http://www.w3.org/1999/xlink" width="176.857" height="174.696" viewBox="0 0 176.857 174.696">
  <defs>
    <linearGradient id="linear-gradient" x1="0.552" y1="0.046" x2="0.755" y2="1.442" gradientUnits="objectBoundingBox">
      <stop offset="0" stop-color="#7d8f41"/>
      <stop offset="1" stop-color="#3f4821"/>
    </linearGradient>
    <filter id="Tracé_50" x="0" y="0" width="176.857" height="174.696" filterUnits="userSpaceOnUse">
      <feOffset dy="15" input="SourceAlpha"/>
      <feGaussianBlur stdDeviation="7.5" result="blur"/>
      <feFlood flood-opacity="0.161"/>
      <feComposite operator="in" in2="blur"/>
      <feComposite in="SourceGraphic"/>
    </filter>
  </defs>
  <g id="Icon" transform="translate(23 8)">
    <g transform="matrix(1, 0, 0, 1, -23, -8)" filter="url(#Tracé_50)">
      <path id="Tracé_50-2" data-name="Tracé 50" d="M79.428,126.7C46.714,126.7,14,93.981,14,61.267,14,33.591,37.586-.31,64.6-2c22.732.416,24.729,14.067,45.252,30.347C128.044,42.779,144.978,42,144.856,61.267,144.856,93.981,112.142,126.7,79.428,126.7Z" transform="translate(9 10)" stroke="#707070" stroke-width="1" fill="url(#linear-gradient)"/>
    </g>
    <g id="easy-slalom" transform="translate(29.604 15.792)">
      <path id="Tracé_52" data-name="Tracé 52" d="M12.086,23.881h3.164a4.629,4.629,0,0,0-.025.486,4.544,4.544,0,0,0,4.539,4.539h10.33a4.539,4.539,0,1,0,0-9.079H26.93a4.628,4.628,0,0,0,.025-.486A4.544,4.544,0,0,0,22.416,14.8H12.085a4.539,4.539,0,1,0,0,9.079Zm0-6.98h10.33a2.443,2.443,0,0,1,2.44,2.44,2.415,2.415,0,0,1-.248,1.073,1.05,1.05,0,0,0,.942,1.512h4.544a2.44,2.44,0,1,1,0,4.881H19.763a2.443,2.443,0,0,1-2.44-2.44,2.415,2.415,0,0,1,.248-1.073,1.05,1.05,0,0,0-.942-1.512H12.086a2.44,2.44,0,1,1,0-4.881Z" transform="translate(-6.49)" fill="#fff"/>
      <path id="Tracé_53" data-name="Tracé 53" d="M295.674,99.086h7.968a3.746,3.746,0,0,0,3.741-3.741c0-.045,0-.09,0-.135h.564a3.741,3.741,0,1,0,0-7.483H301.6a3.745,3.745,0,0,0-3.741,3.741q0,.068,0,.135h-2.183a3.741,3.741,0,1,0,0,7.483Zm0-5.384h3.5a1.049,1.049,0,0,0,.942-1.512,1.625,1.625,0,0,1-.167-.722,1.644,1.644,0,0,1,1.642-1.642h6.349a1.642,1.642,0,1,1,0,3.285h-1.886a1.049,1.049,0,0,0-.942,1.512,1.624,1.624,0,0,1,.167.722,1.644,1.644,0,0,1-1.643,1.642h-7.968a1.642,1.642,0,1,1,0-3.285Z" transform="translate(-251.08 -62.72)" fill="#fff"/>
      <path id="Tracé_54" data-name="Tracé 54" d="M70.886,159.212,59.56,139.593a5.565,5.565,0,0,0-3.835-2.72v-3.292l5.892-3.4a1.049,1.049,0,0,0,0-1.818l-6.417-3.7a1.05,1.05,0,0,0-1.574.909v11.309a5.566,5.566,0,0,0-3.824,2.718l-.083.143L37.555,118.668a9.16,9.16,0,0,0-8.014-4.626h0a9.158,9.158,0,0,0-8.012,4.626l-2.289,3.964a1.049,1.049,0,0,0,1.818,1.05l2.289-3.964a7.081,7.081,0,0,1,6.195-3.577h0a7.083,7.083,0,0,1,6.2,3.577l12.77,22.118-1.338,2.317a3.194,3.194,0,0,1-3.826-3.14,5.3,5.3,0,0,0-10.6,0,3.2,3.2,0,1,1-6.4,0,5.3,5.3,0,0,0-10.6,0,3.2,3.2,0,0,1-5.781,1.895l9.006-15.6a1.049,1.049,0,1,0-1.818-1.049L1.254,153.78a9.254,9.254,0,0,0,8.015,13.881H61.512a1.05,1.05,0,1,0,0-2.1H43.355a3.533,3.533,0,0,1-3.061-5.3l2.169-3.756a4.642,4.642,0,0,0,6.863-4.074,2.54,2.54,0,0,1,5.081,0,4.64,4.64,0,1,0,9.28,0,2.537,2.537,0,0,1,.24-1.073l5.14,8.9a3.533,3.533,0,0,1-3.061,5.3h-.3a1.05,1.05,0,1,0,0,2.1h.3a5.633,5.633,0,0,0,4.879-8.449ZM55.725,131.158v-3.774l3.268,1.887ZM38.476,159.212a5.575,5.575,0,0,0,0,5.632,5.791,5.791,0,0,0,.492.718H9.269a7.155,7.155,0,0,1-6.2-10.733l5.776-10a5.3,5.3,0,0,0,8.987-3.812,3.2,3.2,0,0,1,6.4,0,5.3,5.3,0,1,0,10.6,0,3.2,3.2,0,1,1,6.4,0,5.308,5.308,0,0,0,4.7,5.267Zm23.112-6.781a2.541,2.541,0,0,1-5.082,0,4.639,4.639,0,0,0-9.279,0,2.541,2.541,0,0,1-3.714,2.254l8.107-14.042a3.5,3.5,0,0,1,3.046-1.767h.023a3.5,3.5,0,0,1,3.053,1.767l5.025,8.7a4.657,4.657,0,0,0-1.178,3.085Z" transform="translate(0 -85.352)" fill="#fff"/>
    </g>
  </g>
</svg>
