<svg xmlns="http://www.w3.org/2000/svg" width="78.881" height="78.881" viewBox="0 0 78.881 78.881">
  <g id="profile" transform="translate(0)">
    <g id="Groupe_101" data-name="Groupe 101" transform="translate(0 0)">
      <g id="Groupe_87" data-name="Groupe 87" transform="translate(0 0.023)">
        <path id="Tracé_459" data-name="Tracé 459" d="M39.444,74.591l15.627-3.946A40.384,40.384,0,0,0,38.087.149,39.439,39.439,0,0,0,11.68,67.581Z" transform="translate(0 -0.149)" fill="#cbe2ff"/>
      </g>
      <g id="Groupe_88" data-name="Groupe 88" transform="translate(34.427)">
        <path id="Tracé_460" data-name="Tracé 460" d="M257.884,39.44a39.379,39.379,0,0,1-15.832,31.6l14.179-3.581A39.439,39.439,0,0,0,228.471,0a39.824,39.824,0,0,0-5.014.316A39.448,39.448,0,0,1,257.884,39.44Z" transform="translate(-223.457 0)" fill="#bed8fb"/>
      </g>
      <g id="Groupe_100" data-name="Groupe 100" transform="translate(10.789 11.289)">
        <g id="Groupe_99" data-name="Groupe 99">
          <g id="Groupe_98" data-name="Groupe 98">
            <path id="Tracé_461" data-name="Tracé 461" d="M184.49,76.925a3.647,3.647,0,0,0-3.647-3.647H168.274a8.394,8.394,0,0,0-8.394,8.394v9.32h29.613V81.8a3.647,3.647,0,0,0-3.647-3.647h-.123A1.232,1.232,0,0,1,184.49,76.925Z" transform="translate(-146.038 -73.278)" fill="#365e7d"/>
            <path id="Tracé_462" data-name="Tracé 462" d="M293.382,78.156h-.123a1.232,1.232,0,0,1-1.232-1.232,3.647,3.647,0,0,0-3.647-3.647H287V90.991h10.027V81.8A3.647,3.647,0,0,0,293.382,78.156Z" transform="translate(-253.575 -73.277)" fill="#2b4d66"/>
            <path id="Tracé_463" data-name="Tracé 463" d="M124.727,339.739a8.744,8.744,0,0,0-3.511-2.118l-10.768-3.409L98.685,333.8l-11.767.413L76.15,337.621a8.764,8.764,0,0,0-6.118,8.355v2.942a39.327,39.327,0,0,0,27.3,12.313A40.454,40.454,0,0,0,124.727,339.739Z" transform="translate(-70.032 -293.662)" fill="#4a80aa"/>
            <path id="Tracé_464" data-name="Tracé 464" d="M257.172,378.378v-2.942a8.762,8.762,0,0,0-3.252-6.812,39.473,39.473,0,0,1-30.4,21.772,39.8,39.8,0,0,0,4.934.317,42.166,42.166,0,0,0,4.749-.275A39.339,39.339,0,0,0,257.172,378.378Z" transform="translate(-199.87 -323.122)" fill="#407093"/>
            <path id="Tracé_465" data-name="Tracé 465" d="M212.764,345.657c2.386-4.738,8.6-18.19,6.828-26.593l-7.719-3-7.726,3c-1.827,8.662,4.833,22.69,7.038,27.006Q211.98,345.879,212.764,345.657Z" transform="translate(-183.22 -278.656)" fill="#e4f6ff"/>
            <path id="Tracé_466" data-name="Tracé 466" d="M233.765,416.184l-3.13-12.312h-3.662l-3.122,12.279,3.861,4.3q1.47-.337,2.9-.779Z" transform="translate(-200.154 -352.939)" fill="#e28086"/>
            <path id="Tracé_467" data-name="Tracé 467" d="M245.124,499.828c.32.008.64.014.962.015.372,0,.743-.007,1.113-.017l1.989-2.2a39.144,39.144,0,0,1-4.824,1.353Z" transform="translate(-217.505 -432.251)" fill="#dd636e"/>
            <g id="Groupe_96" data-name="Groupe 96" transform="translate(13.842 9.883)">
              <g id="Groupe_95" data-name="Groupe 95" transform="translate(8.214 22.446)">
                <g id="Groupe_94" data-name="Groupe 94">
                  <g id="Groupe_93" data-name="Groupe 93">
                    <g id="Groupe_92" data-name="Groupe 92">
                      <g id="Groupe_91" data-name="Groupe 91">
                        <g id="Groupe_90" data-name="Groupe 90">
                          <g id="Groupe_89" data-name="Groupe 89">
                            <path id="Tracé_468" data-name="Tracé 468" d="M226.379,290.06v-6.943H213.194v6.943c0,3.641,6.592,7.618,6.592,7.618S226.379,293.7,226.379,290.06Z" transform="translate(-213.194 -283.117)" fill="#ffddce"/>
                          </g>
                        </g>
                      </g>
                    </g>
                  </g>
                </g>
              </g>
              <path id="Tracé_469" data-name="Tracé 469" d="M189.493,144.033h-2.52a2.538,2.538,0,0,1-2.538-2.538v-1.389a2.679,2.679,0,0,0-3.52-2.544,19.843,19.843,0,0,1-12.452,0l0,0a2.679,2.679,0,0,0-3.52,2.544v1.39a2.538,2.538,0,0,1-2.538,2.538h-2.52v4.15a1.92,1.92,0,0,0,1.92,1.92.631.631,0,0,1,.628.6,12.283,12.283,0,0,0,24.516,0,.632.632,0,0,1,.628-.6,1.92,1.92,0,0,0,1.92-1.92v-4.15Z" transform="translate(-159.88 -137.424)" fill="#ffddce"/>
              <path id="Tracé_470" data-name="Tracé 470" d="M260.905,144.035a2.538,2.538,0,0,1-2.538-2.538v-1.389a2.679,2.679,0,0,0-3.52-2.544q-.718.237-1.449.417v13.707a12.28,12.28,0,0,1-6.12,10.439,12.27,12.27,0,0,0,13.6-11.427.632.632,0,0,1,.628-.6,1.92,1.92,0,0,0,1.92-1.92v-4.15h-2.52Z" transform="translate(-233.813 -137.427)" fill="#ffcbbe"/>
            </g>
            <g id="Groupe_97" data-name="Groupe 97" transform="translate(16.886 37.404)">
              <path id="Tracé_471" data-name="Tracé 471" d="M184.806,316.06l-5.17,4.2,5.422,6.7a1.8,1.8,0,0,0,2.4.091l4.077-3.406Z" transform="translate(-179.636 -316.06)" fill="#f4fbff"/>
              <path id="Tracé_472" data-name="Tracé 472" d="M263.352,316.06l-6.454,7.59,3.832,3.277a1.8,1.8,0,0,0,2.411-.07l5.383-6.6Z" transform="translate(-244.995 -316.06)" fill="#f4fbff"/>
            </g>
          </g>
          <path id="Tracé_473" data-name="Tracé 473" d="M166.736,316.06l-7.589,3.728a1.149,1.149,0,0,0-.515,1.559l1.487,2.883a1.93,1.93,0,0,1-.352,2.251l-.925.923a1.926,1.926,0,0,0-.473,1.962c1.795,5.472,10.434,13.839,13.7,16.867q.33.009.661.012C170.364,341.633,161.962,324.113,166.736,316.06Z" transform="translate(-144.68 -278.656)" fill="#365e7d"/>
          <path id="Tracé_474" data-name="Tracé 474" d="M272.832,326.48a1.93,1.93,0,0,1-.352-2.251l1.487-2.883a1.149,1.149,0,0,0-.515-1.559l-7.589-3.728c4.773,8.051-3.623,25.564-6,30.181q.335-.006.668-.017c3.276-3.034,11.9-11.392,13.694-16.858a1.926,1.926,0,0,0-.473-1.962Z" transform="translate(-230.62 -278.656)" fill="#365e7d"/>
          <path id="Tracé_475" data-name="Tracé 475" d="M234.853,365.327l-4.015,3.353,2.046,2.585h3.662l2.046-2.738Z" transform="translate(-206.064 -320.333)" fill="#dd636e"/>
        </g>
      </g>
    </g>
  </g>
</svg>
