<svg id="Groupe_101" data-name="Groupe 101" xmlns="http://www.w3.org/2000/svg" width="350" height="350" viewBox="0 0 350 350">
  <g id="Groupe_87" data-name="Groupe 87" transform="translate(0 0.107)">
    <path id="Tracé_459" data-name="Tracé 459" d="M173.75,329.373l68.834-17.452A178.477,178.477,0,0,0,306.9,174.477C306.9,89.208,247.376,17.9,167.77.149,74.581,3.3,0,80.146,0,174.476a174.231,174.231,0,0,0,51.449,123.9Z" transform="translate(0 -0.149)" fill="#cbe2ff"/>
  </g>
  <g id="Groupe_88" data-name="Groupe 88" transform="translate(141.95)">
    <path id="Tracé_460" data-name="Tracé 460" d="M384.577,173.941c0,57.017-29.116,107.62-74.1,139.343l66.358-15.791c33.755-31.52,54.669-75.232,54.669-123.551C431.507,77.876,348.865,0,246.922,0a197.634,197.634,0,0,0-23.465,1.393C314.321,12.256,384.577,85.367,384.577,173.941Z" transform="translate(-223.457 0)" fill="#bed8fb"/>
  </g>
  <g id="Groupe_100" data-name="Groupe 100" transform="translate(50.496 52.835)">
    <g id="Groupe_99" data-name="Groupe 99">
      <g id="Groupe_98" data-name="Groupe 98">
        <path id="Tracé_461" data-name="Tracé 461" d="M259.127,90.348c0-9.428-6.585-17.07-14.709-17.07H193.731c-18.7,0-33.851,17.589-33.851,39.286v43.618H279.3v-43c0-9.428-6.585-17.07-14.709-17.07h-.5C261.351,96.112,259.127,93.532,259.127,90.348Z" transform="translate(-95.096 -73.277)" fill="#365e7d"/>
        <path id="Tracé_462" data-name="Tracé 462" d="M316.862,96.112h-.575a5.765,5.765,0,0,1-5.765-5.765,17.07,17.07,0,0,0-17.07-17.07H287v82.9h46.929v-43A17.069,17.069,0,0,0,316.862,96.112Z" transform="translate(-144.114 -73.277)" fill="#2b4d66"/>
        <path id="Tracé_463" data-name="Tracé 463" d="M306.839,361.6a37.453,37.453,0,0,0-15.2-9.911l-46.62-15.955L194.09,333.8l-50.948,1.935-46.62,15.955c-15.771,5.4-26.49,21.219-26.49,39.1v13.768c29.876,34.125,71.674,55.929,118.188,57.625C240.334,449.67,283.692,412.016,306.839,361.6Z" transform="translate(-70.032 -165.123)" fill="#4a80aa"/>
        <path id="Tracé_464" data-name="Tracé 464" d="M381.028,414.272V400.5a41.006,41.006,0,0,0-15.218-31.879A184.739,184.739,0,0,1,223.517,470.52,186.238,186.238,0,0,0,246.609,472a197.334,197.334,0,0,0,22.225-1.285A184.11,184.11,0,0,0,381.028,414.272Z" transform="translate(-132.019 -174.839)" fill="#407093"/>
        <path id="Tracé_465" data-name="Tracé 465" d="M245.627,454.577c11.168-22.173,40.25-85.13,31.957-124.457l-36.125-14.06L205.3,330.12c-8.549,40.54,22.619,106.192,32.938,126.391Q241.961,455.617,245.627,454.577Z" transform="translate(-116.942 -160.175)" fill="#e4f6ff"/>
        <path id="Tracé_466" data-name="Tracé 466" d="M270.247,461.495,255.6,403.872H238.463l-14.611,57.466,18.068,20.115q6.88-1.576,13.563-3.646Z" transform="translate(-122.529 -184.671)" fill="#e28086"/>
        <path id="Tracé_467" data-name="Tracé 467" d="M247.924,507.922c1.5.039,3,.066,4.5.068,1.741,0,3.477-.033,5.207-.081l9.306-10.281a183.189,183.189,0,0,1-22.575,6.33Z" transform="translate(-128.475 -210.826)" fill="#dd636e"/>
        <g id="Groupe_96" data-name="Groupe 96" transform="translate(55.2 46.252)">
          <g id="Groupe_95" data-name="Groupe 95" transform="translate(38.441 105.05)">
            <g id="Groupe_94" data-name="Groupe 94">
              <g id="Groupe_93" data-name="Groupe 93">
                <g id="Groupe_92" data-name="Groupe 92">
                  <g id="Groupe_91" data-name="Groupe 91">
                    <g id="Groupe_90" data-name="Groupe 90">
                      <g id="Groupe_89" data-name="Groupe 89">
                        <path id="Tracé_468" data-name="Tracé 468" d="M274.9,315.611V283.117H213.194v32.494c0,17.04,30.853,35.652,30.853,35.652S274.9,332.651,274.9,315.611Z" transform="translate(-213.194 -283.117)" fill="#ffddce"/>
                      </g>
                    </g>
                  </g>
                </g>
              </g>
            </g>
          </g>
          <path id="Tracé_469" data-name="Tracé 469" d="M298.469,168.352h-11.8A11.877,11.877,0,0,1,274.8,156.475v-6.5a12.539,12.539,0,0,0-16.474-11.9,92.867,92.867,0,0,1-58.276,0l-.022-.007a12.539,12.539,0,0,0-16.472,11.906v6.5a11.877,11.877,0,0,1-11.878,11.878H159.88v19.423a8.987,8.987,0,0,0,8.987,8.987,2.955,2.955,0,0,1,2.939,2.79,57.486,57.486,0,0,0,114.738,0,2.955,2.955,0,0,1,2.939-2.79,8.987,8.987,0,0,0,8.987-8.987V168.352Z" transform="translate(-159.88 -137.424)" fill="#ffddce"/>
          <path id="Tracé_470" data-name="Tracé 470" d="M311.055,168.353a11.877,11.877,0,0,1-11.878-11.878v-6.5a12.539,12.539,0,0,0-16.474-11.9q-3.361,1.111-6.783,1.952v64.152a57.471,57.471,0,0,1-28.643,48.856,57.424,57.424,0,0,0,63.646-53.478,2.955,2.955,0,0,1,2.939-2.79,8.987,8.987,0,0,0,8.987-8.987V168.352h-11.8Z" transform="translate(-184.261 -137.425)" fill="#ffcbbe"/>
        </g>
        <g id="Groupe_97" data-name="Groupe 97" transform="translate(69.443 162.291)">
          <path id="Tracé_471" data-name="Tracé 471" d="M203.833,316.06l-24.2,19.66,25.375,31.374a8.4,8.4,0,0,0,11.252.428l19.082-15.94Z" transform="translate(-179.636 -316.06)" fill="#f4fbff"/>
          <path id="Tracé_472" data-name="Tracé 472" d="M287.1,316.06,256.9,351.583l17.935,15.335a8.406,8.406,0,0,0,11.285-.327l25.193-30.871Z" transform="translate(-201.189 -316.06)" fill="#f4fbff"/>
        </g>
      </g>
      <path id="Tracé_473" data-name="Tracé 473" d="M197.874,316.06l-35.515,17.448a5.38,5.38,0,0,0-2.409,7.295l6.958,13.49a9.033,9.033,0,0,1-1.645,10.534l-4.329,4.321a9.013,9.013,0,0,0-2.211,9.184c8.4,25.609,48.832,64.769,64.133,78.938q1.543.041,3.093.058C214.852,435.745,175.531,353.748,197.874,316.06Z" transform="translate(-100.732 -160.175)" fill="#365e7d"/>
      <path id="Tracé_474" data-name="Tracé 474" d="M320.544,364.827a9.032,9.032,0,0,1-1.645-10.534l6.958-13.491a5.38,5.38,0,0,0-2.409-7.295L287.932,316.06c22.336,37.678-16.957,119.641-28.065,141.251q1.566-.027,3.126-.078c15.333-14.2,55.7-53.313,64.091-78.9a9.013,9.013,0,0,0-2.212-9.184Z" transform="translate(-136.075 -160.175)" fill="#365e7d"/>
      <path id="Tracé_475" data-name="Tracé 475" d="M249.628,365.327l-18.79,15.693,9.574,12.1h17.137l9.575-12.814Z" transform="translate(-124.476 -168.739)" fill="#dd636e"/>
    </g>
  </g>
</svg>
