<svg xmlns="http://www.w3.org/2000/svg" xmlns:xlink="http://www.w3.org/1999/xlink" width="1200.458" height="852.591" viewBox="0 0 1200.458 852.591">
  <defs>
    <linearGradient id="linear-gradient" x1="0.276" y1="0.09" x2="0.724" y2="0.91" gradientUnits="objectBoundingBox">
      <stop offset="0" stop-color="#7d8f41"/>
      <stop offset="0.649" stop-color="#7d8f41"/>
      <stop offset="1" stop-color="#606c38"/>
    </linearGradient>
    <linearGradient id="linear-gradient-2" x1="0.739" y1="0.821" x2="0.261" y2="0.179" gradientUnits="objectBoundingBox">
      <stop offset="0" stop-color="#7d8f41"/>
      <stop offset="1" stop-color="#606c38"/>
    </linearGradient>
    <linearGradient id="linear-gradient-3" x1="0.671" y1="0.883" x2="0.329" y2="0.117" gradientUnits="objectBoundingBox">
      <stop offset="0" stop-color="#7d8f41"/>
      <stop offset="0.636" stop-color="#606c38"/>
      <stop offset="1" stop-color="#606c38"/>
    </linearGradient>
  </defs>
  <g id="Groupe_1" data-name="Groupe 1" transform="translate(-720.491 0.811)">
    <path id="Tracé_7" data-name="Tracé 7" d="M3362.188-1.368s-22.433,39.878-32.6,83.028c-4.186,17.768-7.449,36.178-7.068,52.083.179,7.5.944,25.77,10.145,39.187,9.373,13.667,27.373,22.487,35.129,29.929a143.251,143.251,0,0,1,27.9,38.553c2.035,4.23,9.156,23.021,18.193,46.813,6.133,16.148,9.174,40.911,16.048,58.573a77.355,77.355,0,0,0,14.457,28.027c3.691,4.527,17.605,35.374,35.382,53.9,22.255,23.191,49.175,34.636,52.091,36.039,7.591,3.655,30.719,13.039,57.86,21.409,20.431,6.3,43.211,10.9,63.535,18.642,12.415,4.729,40.2,16.189,62.9,34.368,12.352,9.892,22.787,22.861,33.1,33.987a286.456,286.456,0,0,0,28.154,26.5c.446.366,8.631,6.3,21.262,15.445,2.584,1.87,21.5,10.371,41.385,24.756,41.117,29.744,97.885,77.253,100.947,79.641,29.043,22.658,57.832,44.071,76.978,56.941,12.662,8.511,41.987,27.968,79.769,44.386,14.009,6.088,61.445,25.772,112.487,28.661a298,298,0,0,0,61.887-2.917c25.583-4.16,46.563-11.612,60.872-16.486,53.449-18.209,94.64-50.372,96.635-51.868,1.69-1.268,23.231-17.737,44.386-35.763,24.355-20.752,48.69-43.389,48.69-43.389v-46.14L4521.49-1.423Z" transform="translate(-2602 1.811)" fill="#7d8f41" opacity="0.68"/>
    <g id="Composant_36_1" data-name="Composant 36 – 1" transform="translate(861.572 -0.811)">
      <path id="Tracé_3" data-name="Tracé 3" d="M3399.155-1s-39.26,116.915-27.324,144.767,28.7,32.32,39.564,46.529,25.493,49.228,25.493,49.228,23.873,84.351,35.809,104.245,52.841,68.737,69.231,83.555,72.495,48.974,94.227,58.391,62.3,31.874,76.425,40.2,79.323,59.763,84.031,64.472,52.519,52.519,55.055,55.417,63.385,79.685,67.008,84.031,55.78,55.417,90.913,68.819,77.149,27.527,108.661,27.165,99.606-9.417,139.086-27.165,77.874-40.929,85.118-46.362,59.764-53.244,67.008-67.732,19.2-31.512,19.2-31.512l-.721-654.5Z" transform="translate(-3369.572 1.811)" fill="url(#linear-gradient)"/>
      <path id="Tracé_5" data-name="Tracé 5" d="M4004.23,598.939c18.991-4.458,83.012-15.019,99.963-19.257s48.542-13.066,67.848-22.954,45.241-26.653,54.658-35.128,27.773-27.393,37.448-41.789,24.485-43.32,29.193-56.033,16.208-45.6,19.975-60.192,14.077-52,20.925-65.311,24.222-46.288,39.821-60.746,25.617-23.969,32.287-28.465,22.6-16.048,22.6-16.048V-1.811H4197.58L3398.2-.888s-14.93,45.146-23.356,80.43a185.428,185.428,0,0,0-4.924,38.144c.054,6.985-.835,25.011,8.226,39.9,5.747,9.441,12.849,11.447,20.786,20.336,12.27,13.74,22.81,28.557,26.039,35.644,2.441,5.358,5.288,11.406,7.954,18.235,5.221,13.372,9.126,28.732,11.781,35.719,2.675,7.606,5.809,22.442,10.956,36.619,4.26,11.735,7.962,24.713,20.636,43.748,4.909,7.374,10.472,17.137,18.76,27.24,5.379,6.556,11.02,15.636,18.535,23.788,2.182,2.366,9.627,10.717,17.859,18.835a200.325,200.325,0,0,0,24.763,20.861c6.745,4.727,21.319,15.367,37.295,24.688,19.059,11.12,72.166,36.761,81.112,41s39.57,23.4,49.458,29.989c4.489,2.993,19.512,12.941,34.443,24.988,9,7.263,26.272,21.441,41.722,35.269,5.638,5.046,16.322,16.076,27.84,27.765,3.177,3.225,12.261,12.484,20.186,21.086,7.6,8.255,14.182,16.359,14.182,16.359s28.434-19.261,61.156-33.768C3956.862,611.242,3994.582,601.2,4004.23,598.939Z" transform="translate(-3369.572 1.811)" fill="url(#linear-gradient-2)"/>
      <path id="Tracé_6" data-name="Tracé 6" d="M3528,414.07a286.564,286.564,0,0,0,30.167,26.264c18.215,13.632,40.588,26.645,44.349,28.29,3.574,2.026,29.791,14.783,56.13,27.39,8.527,4.312,54.7,28.815,83.745,50.877,15.383,11.256,29.9,22.6,42.773,33.993,43.383,38.373,73.866,75.689,76.091,77.666,2.315-1.483,35.245-22.228,70.988-36.319,38.109-15.025,79.842-25.232,85.7-26.939,5.255-1.533,63.2-7.41,109.333-23.262,21.654-7.44,43.211-14.8,59.657-23.412,7.311-3.828,42.022-24.088,59.957-47.725,11.031-13.807,20.653-26.2,29.566-42.7,22.072-40.85,32.616-81.452,33.993-87.422,1.545-6.7,11.328-41.426,24.088-73.239,4.063-10.131,15.068-31.142,31.142-49.977,24.507-28.716,62.335-53.053,62.335-53.053V179.871s-31.475,1.165-45.6,5.4c-5.763,1.729-37.842,6.767-67.086,18.76a452.659,452.659,0,0,0-55.979,28.59c-26.4,15.791-57.115,37.645-88.172,57.631-30.458,19.6-59.741,39.916-83.37,54.7-23.546,14.737-65.94,38.285-85.921,47.2-13.763,6.141-72.985,32.248-120.064,32.117-8.21-.023-30.114,1.043-54.479-2.326-22.159-3.064-48.851-10.806-75.49-18.01-21.537-6.153-43.961-16.286-64.459-19.244-15-2.165-29.044-3.79-41.422-3.793-8.464,0-32.456.742-52,6.378a341.76,341.76,0,0,0-33.468,11.106A280.367,280.367,0,0,0,3528,414.07Z" transform="translate(-3369.572 1.811)" fill="url(#linear-gradient-3)"/>
    </g>
  </g>
</svg>
