<svg xmlns="http://www.w3.org/2000/svg" width="777.871" height="418.047" viewBox="0 0 777.871 418.047">
  <g id="g10" transform="translate(-43.644 2606.782)">
    <g id="g12" transform="translate(0 -2666.66)">
      <path id="path16" d="M253.853-1952.572s-68.719-104.517,6.488-217.671c66.728-100.4,172.012-20.566,231.669-122.724,81.354-139.315,487.358-84.908,435.939,129.433-24.881,103.726,112.931,107.5,61.667,211.182l-735.765-.221" transform="translate(-179.74 2429.637)" fill="#d6f1e8"/>
      <path id="path18" d="M2889.767-1458s-12.413-16.454.772-25.592c0,0,9.522-4.983,16.976-4.063,0,0-11.711,17.116-8.393,19.1s11.676-20.014,11.676-20.014,21.009-.721,27.525,2.928c0,0-18.764,13.5-15.059,14.6s23.884-12.031,23.884-12.031,19.229,4.523,17.452,16.314-8.7,15.034-11.625,14.534-19.732-8.145-20.256-5.757,9.344,10.917,16.58,11.738c0,0-14.647,14.257-23.48,9.328s-9.18-11.894-14.7-14.841-10.361-3.243-8.183-.452,12.292,6,15.179,11.947,5.558,10-3.775,7.994-24.217-9.858-24.4-17.793l-.18-7.938" transform="translate(-2302.74 1726.211)" fill="#82b378"/>
      <path id="path20" d="M2925.013-1385.4s-52.662-5.33-65.262,9.038a38.264,38.264,0,0,1-11.431,14.1l-1.447,3.292s9.748-9.073,13.058-9.452c0,0-3.95-19.022,65.083-16.976" transform="translate(-2272.724 1644.57)" fill="#82b378"/>
      <path id="path22" d="M2800.3-1271.422s-11.853,7.672-13.577,22.6l2.046.312s4.585-15.257,11.5-20.9.027-2.006.027-2.006" transform="translate(-2224.708 1553.732)" fill="#82b378"/>
      <path id="path24" d="M2537.144-1813.934s-27.522-15.413-14.679-36.331c0,0,10.275-12.843,21.283-16.145,0,0-5.87,31.19,0,31.924s4.036-35.226,4.036-35.226,28.99-13.945,40.367-12.845c0,0-17.981,30.458-12.111,29.724s26.057-31.558,26.057-31.558,29.724-5.5,34.495,12.109-2.937,26.422-7.341,27.522-32.658.734-31.927,4.4,19.818,9.541,30.458,6.239c0,0-11.743,28.99-27.154,27.522s-20.184-11.009-29.724-11.743-16.513,1.834-11.743,4.4,20.918.842,28.622,7.392,13.945,10.589-.366,13.523-40,1.1-45.138-9.906l-5.136-11.009" transform="translate(-2011.015 2042.808)" fill="#a8d29f"/>
      <path id="path26" d="M2665.576-1793.836s-77.062,24.954-85.869,52.845c0,0,.366,12.477-7.341,26.788v5.5s8.075-18.716,12.477-21.284c0,0-17.247-24.22,80.733-63.854" transform="translate(-2053.579 1969.864)" fill="#82b378"/>
      <path id="path28" d="M2543.882-1412.545s-11.883,18.046-5.109,40.015l3.057-.823s-2.966-24.2,3.251-36.366-1.2-2.826-1.2-2.826" transform="translate(-2025.094 1668.206)" fill="#82b378"/>
      <path id="path30" d="M1473.377-1839.255s32.029-13.555,20.488-38.034c0,0-9.7-15.319-21.367-20.273,0,0,2.654,34.893-3.87,34.987s-.153-39.1-.153-39.1-30.079-18.8-42.68-18.968c0,0,16.013,35.557,9.67,34.043s-24.728-37.743-24.728-37.743-31.905-9.635-39.268,9.092.013,29.31,4.706,31.05,35.7,4.762,34.454,8.694-22.873,8.054-34.135,3.146c0,0,9.355,33.191,26.422,33.451s23.451-9.619,34-9.266,17.874,4.012,12.334,6.249-23.023-1.613-32.263,4.633-16.564,9.912-1.237,14.865,43.7,6.053,50.664-5.389l6.964-11.442" transform="translate(-1092.385 2076.026)" fill="#a8d29f"/>
      <path id="path32" d="M1454.276-1831.382s81.426,36.684,87.7,68.315c0,0-1.915,13.628,4.8,30.246l-.67,6.031s-6.577-21.488-11.092-24.836c0,0,21.835-24.451-80.733-79.756" transform="translate(-1160.982 1999.839)" fill="#82b378"/>
      <path id="path34" d="M1898.393-1359.214s10.834,21.216.748,44.471l-3.251-1.272s6.185-26.156.847-40.247,1.656-2.953,1.656-2.953" transform="translate(-1512.604 1626.231)" fill="#82b378"/>
      <path id="path36" d="M1282.271-1317.024a35.757,35.757,0,0,1-6.29-15.768s15.661-11.245,6.427-23.069c0,0-7.118-7.1-14.031-8.349,0,0,5.7,18.541,2.186,19.391s-4.865-21.122-4.865-21.122-18.562-6.486-25.4-5.036c0,0,13,17.269,9.39,17.223s-17.985-17.385-17.985-17.385-18.43-1.31-20.123,9.715,3.591,15.846,6.341,16.215,19.887-1.788,19.693.489-11.383,7.15-18.073,5.873c0,0,9.116,16.806,18.377,14.859s11.506-8.07,17.25-9.167,10.156-.016,7.432,1.872-12.646,1.942-16.879,6.448-7.744,7.384,1.151,8.188,24.368-2.068,26.734-9.1c.1-.309.2-.6.3-.882a3.568,3.568,0,0,1-.3.882c1.71.753,4.617,4.942,6.672,8.177.3.557.772,1.32,1.452,2.35h0c.282.471.508.855.664,1.124,3.929,7.319,3.8,20.743,3.8,20.743l1.915.288c2.611-13.805-5.843-23.954-5.843-23.954" transform="translate(-966.975 1632.457)" fill="#82b378"/>
      <path id="path38" d="M961.01-2068.4c-.155-.844-2.142-9.912-16.169-8.365,0,0,6.982-.177,8.606,2.667,0,0-5.214-3.049-8.846-1.3s-4.9,8.745-4.6,10.939,3.436,8.96,5.939,9.21a7.428,7.428,0,0,0,2.926-.419,33.073,33.073,0,0,0-1.389,3.617c-3.91,12.24,3.455,22.58,7.991,20.662,2.909-1.232,4.513,3.8,4.513,3.8l25.926-28.047s-14.031-20.762-24.893-12.77" transform="translate(-750.389 2195.873)" fill="#2c3a64"/>
      <path id="path40" d="M1006.6-1135.2l-6.306,2.348s-27.388-37.982-30.759-71.4a50.767,50.767,0,0,1,.9-17.086s-.268-1.527-.736-4.23c-.216-1.261-.484-2.781-.788-4.52-.891-5.1-2.116-12.082-3.516-20.031-3.223-18.291-7.4-41.672-10.641-58.863l1.7-.546,18.383-5.929,3.8-12.066,13.688-3.6s3.058,5.98,5.791,34.237c.5,3.708.963,7.8,1.308,12.227a241.942,241.942,0,0,1-1.3,49.5q-.942,7.369-2.4,15.193a67.763,67.763,0,0,0-.525,15c1.38,27.32,11.408,69.777,11.408,69.777" transform="translate(-762.201 1600.476)" fill="#2b478b"/>
      <path id="path42" d="M999.421-1284.667,969.7-1225.573c-.216-1.261-.484-2.781-.788-4.52-.891-5.1-2.116-12.082-3.516-20.031-3.223-18.291-7.4-41.672-10.641-58.863l1.7-.546,18.383-5.929,3.8-12.066,13.688-3.6s3.058,5.98,5.791,34.237c.5,3.708.963,7.8,1.308,12.227" transform="translate(-762.201 1600.476)" fill="#233862"/>
      <path id="path44" d="M877.6-1350.765l-.688-5.9c-11.528,3.063-42.329-8.556-42.329-8.556s-11.168,9.818-9.7,33.349c.716,11.485,2.023,60.293,3.388,74.733.493,5.235.926,8.96,1.1,10.449l0,.013a2.066,2.066,0,0,1-.335,1.28,67.689,67.689,0,0,0-5.04,10.6c-13.4,35.713,2.064,79.692,2.064,79.692l4.013-1.619s8.8-48.943,15.952-70.565a42.784,42.784,0,0,1,3.444-8.271c3.109-5.018,5.995-13.217,8.613-22.97,4.95-18.439,8.934-42.422,11.586-60.936.366.016,7.927-31.295,7.927-31.295" transform="translate(-653.455 1627.693)" fill="#2b478b"/>
      <path id="path46" d="M1154-1673.334a7.653,7.653,0,0,0,.71.678c9.853,9.183,23.122,17.3,30.223,19.089,4.668,1.194,14.964-.406,23.516-2.165,5.7-1.121,10.657-2.366,12.7-2.85.651-.153,1.016-.269,1.016-.269l-.893-5.765s-5.125-.406-11.493-1.124c-8.868-1.043-20.111-2.643-22.991-4.345-6.679-3.969-18.4-20.617-27.8-31.082-.493-.57-.981-1.119-1.465-1.656-.354-.4-.708-.78-1.059-1.159a1.274,1.274,0,0,0-.278-.261c-.432-.417-.8-.8-1.155-1.143-.014-.04-.075-.073-.135-.108a41.638,41.638,0,0,0-4.6-3.716c-1.643-.936-3-1.116-3.949-.317a15.12,15.12,0,0,0-2.434,3.469c-.256.473-.509,1-.748,1.565a3.605,3.605,0,0,0-.4.976,19.923,19.923,0,0,0-1.274,7.79,24.633,24.633,0,0,0,1.548,7.712c1.643,4.636,5.794,9.793,10.961,14.682" transform="translate(-911.272 1902.963)" fill="#ffb27d"/>
      <path id="path48" d="M996.5-1806.352a35.917,35.917,0,0,1-12.692,4.985c-19.458,3.921-26.406-12.628-28.872-23.922a16.663,16.663,0,0,1,6.606-1.829c1.4-.124,2.874-.194,4.093-.218,2.218-1.6,5.644-8.317,6.657-18.861l.9.269,15.118,4.6s-.834,4.821-1.305,9.39c-.365,3.574-.5,7,.151,7.855,1.182.291,1.89.479,1.89.479l.007.014a98.21,98.21,0,0,1,7.443,17.237" transform="translate(-762.343 2011.664)" fill="#ffb27d"/>
      <path id="path50" d="M923.142-1718.677c-.09.417-.2.82-.319,1.24-3.416,11.42-6.179,57.072-6.179,57.072,1.81,5.706-31.364,6.876-49.659,4.238-6.652-.955-11.337-2.415-11.659-4.343-3.273-7.379,4.737-21.16,9.363-28.165a17.51,17.51,0,0,0,1.491-2.764,17.544,17.544,0,0,0,1.445-7.68c-.139-3.619-.448-7.134-.826-10.425-.709-6.209-1.655-11.63-2.15-15.467v0c.962-.957,1.9-1.845,2.772-2.689a28.059,28.059,0,0,0,3.317-3.676,5.772,5.772,0,0,0,1.29-3.824,19.178,19.178,0,0,0-.51-2.974c-.115-.468-.244-.93-.384-1.4a40.811,40.811,0,0,0-4.22-9.078c4.953-2.9,14.5-2.985,14.5-2.985s.065.522.186,1.374c.464,3.421,1.77,12.195,3.106,13.7,1.671,1.874,28.053,7.3,28.973,4.3.9-2.95-4.545-15.365-4.749-15.836l-.006-.016c8.45,2.009,12.119,4.278,12.286,4.413l-.009,0c-4.585,4.015,4.354,14.053,1.946,24.995" transform="translate(-682.216 1936.143)" fill="#ff9843"/>
      <path id="path52" d="M1060.585-1840.25s-.837,4.821-1.305,9.393c-8.608-1.108-12.382-9.438-13.814-13.991l15.12,4.6" transform="translate(-834.619 2010.589)" fill="#ed985f"/>
      <path id="path54" d="M1056.368-1939.329s-20.457-1.708-19.2-14.429-.532-21.512,12.582-20.961,15.167,5.658,15.78,10.009-3.811,25.5-9.165,25.382" transform="translate(-827.953 2114.287)" fill="#ffb27d"/>
      <path id="path56" d="M1041.042-1982.091c-2.774-4.144-5.243-3.541-6.7-2.525-10.548-7.255-18.65,1.1-18.65,1.1a24.417,24.417,0,0,1-9.386,13.561s3.492,2.673,12.295,1.326a14.661,14.661,0,0,0,7.431-4.1,47.918,47.918,0,0,1-9.2,9.194c10.725-3.711,16.269-17.557,16.829-19.022,1.135,1.245,3.349,3.923,3.859,6.381.694,3.34.484,10.057,2.45,10.025,0,0,5.229-9.724,1.069-15.935" transform="translate(-803.361 2124.534)" fill="#2c3a64"/>
      <path id="path58" d="M1539.056-1504.44c-2.046,1.949-4.117,6.822-10.417,6.73a90.33,90.33,0,0,0-11.248.74c-.858.148-1.358.21-1.358.21l-.223-7.139a1.183,1.183,0,0,0,.3-.024c1.522-.229,9.25-1.417,12.31-3.447,3.437-2.3,11.466-.167,11.466-.167s1.234,1.186-.825,3.1" transform="translate(-1210.105 1742.026)" fill="#ffb27d"/>
      <path id="path60" d="M845.155-377.992H813.4s-.761-4.84.9-8.511c1.589-3.525,4.079-5.125,3.483-9.39a11.441,11.441,0,0,0,9.9,3.789c.563.912,3.631,5.792,5.51,7.142,2.075,1.49,11.33.96,11.969,6.97" transform="translate(-649.214 853.854)" fill="#233862"/>
      <path id="path62" d="M1182.62-372.35h-31.758s-1.187-5.066.9-8.511c1.846-3.052,1.139-4.789-.229-7.311a12.363,12.363,0,0,0,5.349,1.008,11.189,11.189,0,0,0,4.723-1.662c1.367,1.557,7.22,8.191,9.049,9.506,2.075,1.49,11.33.96,11.969,6.97" transform="translate(-918.491 848.213)" fill="#233862"/>
      <path id="path64" d="M1108.387-1838.673s.286,1.683,4.431,1.689c0,0,3.48,0,3.488-1.829a11.175,11.175,0,0,0-7.92.14" transform="translate(-884.85 2006.274)" fill="#fff"/>
      <path id="path66" d="M871.32-1521.06c-1.256,7.957-7.011,23.922-4.335,31.548-6.652-.955-11.337-2.415-11.658-4.343-3.273-7.379,4.737-21.16,9.363-28.165a17.52,17.52,0,0,0,1.491-2.764,17.543,17.543,0,0,0,1.445-7.68c-.139-3.619-.448-7.134-.826-10.425,0,0,5.857,13.372,4.521,21.829" transform="translate(-682.216 1769.528)" fill="#ed7d2b"/>
      <path id="path68" d="M1160.553-1710.008c.221,7.072,5.336,26.487,6.549,23.924,1.386-2.923,6.757-14.034,9.279-14.443-.133-.514-10.456-11.926-10.907-11.794a20.749,20.749,0,0,0-4.921,2.313" transform="translate(-926.496 1904.79)" fill="#ff9843"/>
      <path id="path70" d="M796.349-1606.828l-5.269,3.506s-1.333-1.664-3.444-4.329c-.631-.8-.969-1.285-.969-1.285-1.67-2.151-3.612-4.792-5.735-7.653l-.036-.035c-3.558-5-7.466-10.681-10.457-15.82a50.01,50.01,0,0,1-4.487-9.667,5.5,5.5,0,0,1-.189-.8c-1.547-6.725,1.29-20.076,5.8-33.1.62-1.8,1.275-3.571,1.9-5.305a130.379,130.379,0,0,1,7.811-17.245,51.066,51.066,0,0,1,4.7-7.36,21.616,21.616,0,0,1,1.565-1.866c.291-.328.582-.648.869-.952a22,22,0,0,1,14.732,7.215c-.084.3-.172.6-.261.9-1.993,6.427-5.07,14.314-8.259,22.042-1.736,4.246-3.51,8.46-5.065,12.423-.986,2.369-1.878,4.628-2.683,6.712a65.894,65.894,0,0,0-3.089,9.648c-.3,1.511.129,4.356.945,7.852a213.931,213.931,0,0,0,6.536,21.262c1.012,2.907,2.009,5.612,2.841,7.855,1.332,3.63,2.237,6,2.237,6" transform="translate(-610.988 1901.932)" fill="#ffb27d"/>
      <path id="path72" d="M849.984-1715.441c-5.262-7.943-20.346-11.361-20.346-11.361,8.511-27.006,30.856-24.5,30.856-24.5s-8.129,28.095-10.51,35.863" transform="translate(-662.319 1935.96)" fill="#ff9843"/>
      <path id="path74" d="M892.975-1199.9a10.217,10.217,0,0,1,1.539,3.512c.155,1.471,1.47,6.344,3.171,7.892s5.569,4.641,6.111,4.176,2.108-4.112.656-6.69c-.656-1.164-1.545-4.41-2.719-5.2-1.424-.955-3.49-7.2-3.49-7.2l-5.269,3.506" transform="translate(-712.882 1498.514)" fill="#ffb27d"/>
      <path id="path76" d="M919.206-1199.477s4.19,2.127,4.757,3.829,2.908,5.133,2.669,5.531c-.257.425-3.9-1.9-5.137-4.012a33.262,33.262,0,0,1-2.289-5.349" transform="translate(-733.823 1495.374)" fill="#ffb27d"/>
      <path id="path78" d="M1413.583-1676.259l153.436-91.857a26.751,26.751,0,0,1,27.484,0l153.436,91.857v149.714l-334.355-16.763v-132.951" transform="translate(-1128.496 1952.365)" fill="#ed7d2b"/>
      <path id="path80" d="M1833.084-1387.311H1556.29v-239.2h276.794v239.2" transform="translate(-1242.422 1836.289)" fill="#fcecdb"/>
      <path id="path82" d="M1598.183-1586.031a2.844,2.844,0,0,1,2.845-2.845,2.845,2.845,0,0,1,2.848,2.845,2.847,2.847,0,0,1-2.848,2.845,2.846,2.846,0,0,1-2.845-2.845" transform="translate(-1275.866 1806.24)" fill="#efcbab"/>
      <path id="path84" d="M2857.793-1586.031a2.845,2.845,0,0,1,2.845-2.845,2.845,2.845,0,0,1,2.848,2.845,2.847,2.847,0,0,1-2.848,2.845,2.846,2.846,0,0,1-2.845-2.845" transform="translate(-2281.442 1806.24)" fill="#efcbab"/>
      <path id="path86" d="M1866.324-1575.684H1612.289v-.618h254.035v.618" transform="translate(-1287.128 1796.203)" fill="#efcbab"/>
      <path id="path88" d="M1610.756-1326.348v-254.034h.618v254.034h-.618" transform="translate(-1285.903 1799.46)" fill="#efcbab"/>
      <path id="path90" d="M2870.86-1326.348v-254.034h.618v254.034h-.618" transform="translate(-2291.873 1799.46)" fill="#efcbab"/>
      <path id="path92" d="M1747.939-1299.65v200.168H1413.583V-1299.65l167.176,100.085,167.179-100.085" transform="translate(-1128.496 1575.345)" fill="#ff9843"/>
      <path id="path94" d="M1413.583-759.6,1566.726-869.39a24.084,24.084,0,0,1,28.068,0L1747.939-759.6H1413.583" transform="translate(-1128.496 1235.46)" fill="#ed7d2b"/>
      <path id="path96" d="M2085.552-1483.293H1984.633a2.673,2.673,0,0,1-2.665-2.665,2.673,2.673,0,0,1,2.665-2.665h100.919a2.673,2.673,0,0,1,2.665,2.665,2.673,2.673,0,0,1-2.665,2.665" transform="translate(-1582.251 1726.206)" fill="#efcbab"/>
      <path id="path98" d="M2008.649-1430.293H1855.74a2.673,2.673,0,0,1-2.665-2.665,2.673,2.673,0,0,1,2.665-2.665h152.908a2.673,2.673,0,0,1,2.665,2.665,2.673,2.673,0,0,1-2.665,2.665" transform="translate(-1479.353 1683.895)" fill="#efcbab"/>
      <path id="path100" d="M2080.584-1260.048H1969.95a1.933,1.933,0,0,1-1.928-1.928,1.933,1.933,0,0,1,1.928-1.928h110.634a1.935,1.935,0,0,1,1.928,1.928,1.935,1.935,0,0,1-1.928,1.928" transform="translate(-1571.117 1546.807)" fill="#efcbab"/>
      <path id="path102" d="M1901.545-1210.128h-31.2a1.935,1.935,0,0,1-1.928-1.928,1.935,1.935,0,0,1,1.928-1.928h31.2a1.935,1.935,0,0,1,1.928,1.928,1.935,1.935,0,0,1-1.928,1.928" transform="translate(-1491.604 1506.955)" fill="#efcbab"/>
      <path id="path104" d="M2109.129-1210.128H2071.44a1.932,1.932,0,0,1-1.925-1.928,1.933,1.933,0,0,1,1.925-1.928h37.689a1.935,1.935,0,0,1,1.928,1.928,1.935,1.935,0,0,1-1.928,1.928" transform="translate(-1652.141 1506.955)" fill="#efcbab"/>
      <path id="path106" d="M2360.208-1210.128h-65.152a1.935,1.935,0,0,1-1.928-1.928,1.935,1.935,0,0,1,1.928-1.928h65.152a1.935,1.935,0,0,1,1.928,1.928,1.935,1.935,0,0,1-1.928,1.928" transform="translate(-1830.656 1506.955)" fill="#efcbab"/>
      <path id="path108" d="M2019.667-1152.088h-60.6a1.931,1.931,0,0,1-1.925-1.928,1.933,1.933,0,0,1,1.925-1.928h60.6a1.935,1.935,0,0,1,1.928,1.928,1.933,1.933,0,0,1-1.928,1.928" transform="translate(-1562.431 1460.621)" fill="#efcbab"/>
      <path id="path110" d="M2340.477-1152.088h-47.73a1.931,1.931,0,0,1-1.925-1.928,1.933,1.933,0,0,1,1.925-1.928h47.73a1.935,1.935,0,0,1,1.928,1.928,1.933,1.933,0,0,1-1.928,1.928" transform="translate(-1828.815 1460.621)" fill="#efcbab"/>
      <path id="path112" d="M2207.191-1023.579c-.6-1.119.258-2.5,1.234-3.41C2208.043-1025.843,2207.629-1024.706,2207.191-1023.579Zm-1.8-16.4c-.013-.57.288-1.608.941-1.6-.3.64-.6,1.275-.919,1.9C2205.4-1039.775,2205.392-1039.877,2205.389-1039.977Zm17.245,1.89a76.825,76.825,0,0,1-11.654,7.849,9.495,9.495,0,0,0,.583-3.227c-.073-1.388-1.18-2-2.288-2.571-.274-.143-.53-.293-.785-.444a1.415,1.415,0,0,0,.368-1.646,1.2,1.2,0,0,0-2.224.091,1.692,1.692,0,0,0-.151.527,1.31,1.31,0,0,1-.433-.341c.675-1.261,1.312-2.544,1.9-3.856a.717.717,0,0,0-.274-.823,2.251,2.251,0,0,0-3.084.425c-.928,1.094-.694,2.759-.25,4,.032.089.067.175.1.261q-1.291,2.327-2.8,4.531c-.092-.094-.188-.188-.282-.282a6.006,6.006,0,0,1-.783-.941,13.636,13.636,0,0,0,.863-3.762.719.719,0,0,0-1.022-.691,3.036,3.036,0,0,0-1.9,3.283,4.094,4.094,0,0,0,.441,1.374,12.615,12.615,0,0,1-1.081,1.9.666.666,0,0,0,.242.987,9.944,9.944,0,0,1-2.054,4.042c-.831.866-2.38,1.525-3.391.495a4.309,4.309,0,0,1-.81-2.6,47.973,47.973,0,0,1-.3-6.459,9.813,9.813,0,0,1,.492-2.993c.215-.594.513-1.5.8-.471a5.682,5.682,0,0,1-.1,1.791.71.71,0,0,0,1.415.108c.107-1.068.586-3.313-.624-3.982-1-.557-1.926.242-2.391,1.076-1.67,3-1.006,7.12-.753,10.38.2,2.6,1.172,5.792,4.493,4.964,3.125-.777,4.273-4.717,4.991-7.427a.7.7,0,0,0-.021-.454l.038-.067.393.39c.183.161.36.336.53.514q-.492.682-1.006,1.353a.72.72,0,0,0,.057.866,1.664,1.664,0,0,0,2.9-1.229,2.349,2.349,0,0,0-.237-.974q1.48-2.13,2.764-4.383a2.234,2.234,0,0,0,1.7.683c.046,0,.094-.008.143-.013a5.3,5.3,0,0,0,1.237.938,8.361,8.361,0,0,1,1.232.664c.672.551.473,1.18.325,1.963a31.051,31.051,0,0,1-.825,3.063,6.435,6.435,0,0,0-3.318,3.506,3.573,3.573,0,0,0,1.237,4.009.717.717,0,0,0,1.067-.352c.807-1.982,1.533-4,2.159-6.042.019-.065.04-.132.062-.2,1.261-.718,2.582-1.35,3.827-2.087a72.57,72.57,0,0,0,9.411-6.653c.7-.583-.234-1.651-.936-1.065" transform="translate(-1748.374 1370.422)" fill="#f99746"/>
      <path id="path114" d="M1963.915-2057.73l-14.413-31.8,31.142,5.488a5.766,5.766,0,0,0,1.025.091,5.9,5.9,0,0,0,5.071-2.891l15.881-26.767,14.413,31.8-53.119,24.078" transform="translate(-1556.332 2225.146)" fill="#dce9fb"/>
      <path id="path116" d="M1981.668-2083.951a5.744,5.744,0,0,1-1.025-.092l-31.141-5.488,53.119-24.077-15.881,26.767a5.9,5.9,0,0,1-5.072,2.891" transform="translate(-1556.332 2225.146)" fill="#cee1f6"/>
      <path id="path118" d="M503.616-1051l-7.582-20.334,19.075,4.733a3.672,3.672,0,0,0,.883.108,3.67,3.67,0,0,0,3.018-1.584L530-1084l7.582,20.334L503.616-1051" transform="translate(-395.995 1403.184)" fill="#dce9fb"/>
      <path id="path120" d="M515.992-1066.492a3.672,3.672,0,0,1-.883-.108l-19.075-4.733L530-1084l-10.988,15.922a3.67,3.67,0,0,1-3.018,1.584" transform="translate(-395.995 1403.184)" fill="#cee1f6"/>
      <path id="path122" d="M3231.59-1714.593l-66.69-17.8,10.654-39.927,24.392,28.383a6.983,6.983,0,0,0,5.3,2.431,6.956,6.956,0,0,0,2.388-.422l34.616-12.6-10.656,39.927" transform="translate(-2526.612 1952.684)" fill="#dce9fb"/>
      <path id="path124" d="M3247.415-1741.5a6.983,6.983,0,0,1-5.3-2.431l-24.392-28.383,66.693,17.8-34.616,12.6a6.956,6.956,0,0,1-2.388.422" transform="translate(-2568.784 1952.684)" fill="#cee1f6"/>
      <path id="path126" d="M492.153-794.778a.31.31,0,0,1-.308-.285.31.31,0,0,1,.285-.333c2.875-.22,4.664-.3,4.682-.3a.305.305,0,0,1,.322.3.309.309,0,0,1-.3.323c-.017,0-1.8.075-4.66.3Zm-9.266.914a.307.307,0,0,1-.307-.272.31.31,0,0,1,.27-.344c1.525-.183,3.083-.355,4.633-.508a.312.312,0,0,1,.338.277.31.31,0,0,1-.277.339c-1.545.153-3.1.323-4.62.508Zm-9.21,1.339a.308.308,0,0,1-.3-.255.309.309,0,0,1,.253-.358c1.484-.255,3.033-.5,4.6-.729a.307.307,0,0,1,.351.261.311.311,0,0,1-.262.352c-1.566.226-3.11.471-4.588.726Zm-9.114,1.88a.309.309,0,0,1-.3-.237.31.31,0,0,1,.227-.374c1.446-.355,2.978-.7,4.553-1.022a.312.312,0,0,1,.365.242.311.311,0,0,1-.241.366c-1.567.32-3.091.661-4.529,1.016A.353.353,0,0,1,464.564-790.645Zm205.316.562a.308.308,0,0,1-.3-.25.31.31,0,0,1,.245-.363c.315-.059.495-.094.53-.1a.316.316,0,0,1,.379.3c0,.255-.03.261-.793.406Zm-9.175,1.721a.31.31,0,0,1-.3-.253.312.312,0,0,1,.247-.36c1.748-.323,3.281-.608,4.585-.852a.308.308,0,0,1,.36.247.308.308,0,0,1-.247.36c-1.3.245-2.837.53-4.585.852Zm-205.043.4a.307.307,0,0,1-.29-.2.311.311,0,0,1,.182-.4c1.371-.511,2.862-1.006,4.431-1.476a.31.31,0,0,1,.385.21.308.308,0,0,1-.208.385c-1.556.465-3.034.957-4.392,1.463A.3.3,0,0,1,455.662-787.961Zm195.884,1.275a.308.308,0,0,1-.3-.255.31.31,0,0,1,.247-.36c1.616-.29,3.146-.57,4.579-.831a.308.308,0,0,1,.36.247.31.31,0,0,1-.247.36q-2.154.4-4.582.834Zm-9.159,1.638a.308.308,0,0,1-.3-.255.307.307,0,0,1,.25-.358q2.372-.424,4.579-.815a.306.306,0,0,1,.358.25.308.308,0,0,1-.25.358q-2.206.4-4.579.815Zm-195.018,1.232a.312.312,0,0,1-.254-.134.309.309,0,0,1,.077-.43,30.422,30.422,0,0,1,4.057-2.348.307.307,0,0,1,.414.143.306.306,0,0,1-.143.411,29.968,29.968,0,0,0-3.975,2.3A.308.308,0,0,1,447.369-783.818Zm185.857.374a.311.311,0,0,1-.3-.258.31.31,0,0,1,.253-.358q2.344-.407,4.579-.8a.311.311,0,0,1,.358.253.31.31,0,0,1-.25.358q-2.235.391-4.582.8Zm-9.161,1.57a.306.306,0,0,1-.3-.258.307.307,0,0,1,.253-.355q2.331-.4,4.582-.782a.306.306,0,0,1,.355.253.309.309,0,0,1-.253.358q-2.247.387-4.582.782Zm-9.167,1.541a.31.31,0,0,1-.3-.258.311.311,0,0,1,.254-.358q2.323-.383,4.584-.764a.306.306,0,0,1,.356.253.311.311,0,0,1-.254.358q-2.261.379-4.584.764Zm-9.172,1.5a.309.309,0,0,1-.3-.258.309.309,0,0,1,.256-.355q2.316-.375,4.586-.748a.308.308,0,0,1,.355.253.313.313,0,0,1-.255.358q-2.27.371-4.587.747Zm-9.176,1.471a.309.309,0,0,1-.305-.261.311.311,0,0,1,.258-.355q2.311-.363,4.588-.729a.309.309,0,0,1,.354.255.309.309,0,0,1-.257.355l-4.589.731Zm-154.618.726-.061-.005a.309.309,0,0,1-.242-.363,9.773,9.773,0,0,1,2.073-4.227.311.311,0,0,1,.435-.046.31.31,0,0,1,.045.436,9.163,9.163,0,0,0-1.947,3.958A.308.308,0,0,1,441.932-776.633Zm145.435.7a.308.308,0,0,1-.305-.261.308.308,0,0,1,.259-.352q2.308-.355,4.591-.713a.311.311,0,0,1,.354.258.311.311,0,0,1-.258.355q-2.283.355-4.592.71Zm-9.187,1.393a.309.309,0,0,1-.306-.264.309.309,0,0,1,.26-.352q2.306-.343,4.594-.691a.31.31,0,0,1,.352.261.31.31,0,0,1-.259.352q-2.289.347-4.6.688Zm-9.194,1.344a.309.309,0,0,1-.306-.263.312.312,0,0,1,.262-.352q2.3-.331,4.6-.667a.307.307,0,0,1,.351.263.309.309,0,0,1-.261.35q-2.293.335-4.6.667Zm-9.2,1.3a.311.311,0,0,1-.306-.269.306.306,0,0,1,.264-.347q2.3-.319,4.6-.643a.307.307,0,0,1,.35.261.308.308,0,0,1-.263.35q-2.3.327-4.6.645Zm-9.221,1.248a.311.311,0,0,1-.306-.269.311.311,0,0,1,.266-.35q2.3-.3,4.606-.616a.31.31,0,0,1,.348.266.307.307,0,0,1-.265.347q-2.305.315-4.608.616Zm-9.194,1.18a.308.308,0,0,1-.307-.269.311.311,0,0,1,.269-.347q2.291-.286,4.593-.583a.313.313,0,0,1,.346.269.31.31,0,0,1-.267.347q-2.3.294-4.595.583Zm-9.225,1.121a.312.312,0,0,1-.307-.274.311.311,0,0,1,.271-.344q2.3-.27,4.612-.549a.308.308,0,0,1,.344.269.308.308,0,0,1-.27.344q-2.315.282-4.614.551Zm-87.411.07a.307.307,0,0,1-.182-.059,5.893,5.893,0,0,1-1.923-2.194,13.736,13.736,0,0,1-.688-1.751.309.309,0,0,1,.2-.387.309.309,0,0,1,.387.2,12.811,12.811,0,0,0,.657,1.667,5.284,5.284,0,0,0,1.728,1.96.311.311,0,0,1,.068.433A.307.307,0,0,1,444.734-768.27Zm78.177.971a.31.31,0,0,1-.307-.277.311.311,0,0,1,.275-.342q2.3-.246,4.617-.511a.313.313,0,0,1,.342.274.309.309,0,0,1-.273.341q-2.322.262-4.62.511Zm-9.244.947a.308.308,0,0,1-.307-.277.309.309,0,0,1,.278-.339q2.293-.222,4.622-.463a.312.312,0,0,1,.339.277.31.31,0,0,1-.276.339q-2.329.238-4.625.462Zm-9.255.842a.311.311,0,0,1-.308-.285.309.309,0,0,1,.282-.333q2.291-.194,4.627-.406a.311.311,0,0,1,.336.282.31.31,0,0,1-.28.336q-2.338.21-4.631.4Zm-50.985.285-.055-.005a36.494,36.494,0,0,1-4.55-1.089.308.308,0,0,1-.2-.387.307.307,0,0,1,.389-.2,35.758,35.758,0,0,0,4.472,1.07.308.308,0,0,1,.25.358A.31.31,0,0,1,453.426-765.226Zm41.718.419a.308.308,0,0,1-.308-.288.311.311,0,0,1,.288-.331q2.286-.153,4.633-.333a.31.31,0,0,1,.332.285.312.312,0,0,1-.285.333q-2.349.177-4.638.333Zm-9.28.532a.309.309,0,0,1-.309-.293.31.31,0,0,1,.295-.325c1.489-.067,3.05-.151,4.638-.242a.315.315,0,0,1,.327.293.308.308,0,0,1-.291.325c-1.59.091-3.153.175-4.645.242Zm-23.217.07h-.019c-1.637-.1-3.2-.226-4.64-.379a.311.311,0,0,1-.275-.341.309.309,0,0,1,.34-.274c1.433.153,2.984.28,4.611.376a.311.311,0,0,1,.29.328A.309.309,0,0,1,462.648-764.2Zm13.925.234a.309.309,0,0,1-.309-.3.309.309,0,0,1,.3-.315c1.486-.027,3.048-.065,4.642-.118a.3.3,0,0,1,.319.3.309.309,0,0,1-.3.32c-1.6.054-3.162.091-4.652.118Zm-4.647.035h0c-1.612-.005-3.175-.027-4.649-.067a.311.311,0,0,1-.3-.32.3.3,0,0,1,.318-.3c1.468.04,3.027.062,4.633.067a.308.308,0,0,1,.309.309.311.311,0,0,1-.31.309" transform="translate(-352.557 1173.026)" fill="#afcdfb"/>
      <path id="path128" d="M1620.136-772.557l38.117-21.6-34.772,2.054,2.684,5.873-7.182,7.957,1.154,5.717" transform="translate(-1292.471 1171.799)" fill="#afcdfb"/>
      <path id="path130" d="M1540.432-794.158l-39.943,7.32L1471.4-766.633Z" transform="translate(-1174.65 1171.799)" fill="#fff"/>
      <path id="path132" d="M1634.956-834.3l34.772-2.054-36.372-10.659Z" transform="translate(-1303.945 1213.993)" fill="#fff"/>
      <path id="path134" d="M2647.007-2146.589l43.272,6.849-28.477-20.055-1.56,6.265-10.576,1.748-2.659,5.193" transform="translate(-2113.166 2262.018)" fill="#afcdfb"/>
      <path id="path136" d="M2579.94-2145.371l-35.8-19.159-35.344-2.318Z" transform="translate(-2002.828 2267.649)" fill="#fff"/>
      <path id="path138" d="M2720.367-2203.106l28.477,20.055-21.808-31Z" transform="translate(-2171.731 2305.329)" fill="#fff"/>
      <path id="path140" d="M3229.192-1231.76s-8.825.613-15.338,16.5c-6.569,16.027,8.124,15.868,3.176,26.078s7.123,16.3,10.791,24.661,22.142,28.525,23.6,37.722,17.89-9.562,17.89-9.562,16.7-17.812,10.713-28.159c-9.869-17.056-1.32-20.762-1.63-30.289s-18.39-47.058-49.206-36.953" transform="translate(-2564.318 1522.513)" fill="#233862"/>
      <path id="path142" d="M2928.112-942.331s-34.159,14.889-40.647,14.6-46.472-12.179-46.472-12.179l1.019,6.879s30.856,17.748,41.642,18.753c10.622.992,46.937-9.533,50.443-11.754s4.2-14.056-5.986-16.3" transform="translate(-2268.03 1290.089)" fill="#ffad76"/>
      <path id="path144" d="M3259.3-1009.822a34.377,34.377,0,0,0,12.017,5.115c18.525,4.281,25.624-11.375,28.289-22.123a15.9,15.9,0,0,0-6.273-1.928c-1.339-.159-2.748-.263-3.915-.32-2.079-1.595-5.179-8.115-5.865-18.24l-.871.234-14.6,4s.67,4.641,1,9.027c.253,3.434.7,5.427.048,6.228a4.984,4.984,0,0,0-2.229,1.7l-.008.013a94.032,94.032,0,0,0-7.591,16.3" transform="translate(-2601.972 1373.902)" fill="#ffb27d"/>
      <path id="path146" d="M3302.845-1042.148s.67,4.639.995,9.027c8.271-.828,12.111-8.7,13.6-13.023l-14.6,4" transform="translate(-2636.737 1372.965)" fill="#ed985f"/>
      <path id="path148" d="M3258.23-1138.157s19.633-1.084,18.769-13.3,1.092-20.582-11.479-20.407-14.674,5.007-15.379,9.156,2.961,24.516,8.089,24.548" transform="translate(-2594.593 1473.33)" fill="#ffb27d"/>
      <path id="path150" d="M3257.767-905.848c1.772-9.062,7.553-45.272,1.772-56.924-2.076-4.187-10.221-4.563-19.159-4.2-2.781,1.8-13.381,8.581-17.731,7.734-.049-.008-.132-.027-.245-.056a2.511,2.511,0,0,1-.707-4.483s-4.832.861-10.331,1.9c-3.1.586-11.479,4.918-11.479,4.918s4.217,7.621,10.436,10.251c-1.057,9.46.516,13.633,10.329,35.482,8.293,18.468-1.119,35.1-1.119,35.1s48.816,39.246,49.088,19.264c.2-15.045-13.12-37.4-10.853-48.98" transform="translate(-2554.542 1309.844)" fill="#739af0"/>
      <path id="path152" d="M3104.527-729.546a9.084,9.084,0,0,1-6.529-3.974c-.234-.355-.487-.731-.756-1.137-5.555-8.411-7.718-34.172-20.216-61.616-3.044-6.682-13.972-7.884-16.952-15.438,0,0-7.336-24.481,14.037-25.2s57.239,68.116,57.8,75.336c.549,6.994,14.131,36.716-27.388,32.032" transform="translate(-2441.958 1205.936)" fill="#233862"/>
      <path id="path154" d="M2864.113-369.79h30.418s1.137-4.851-.861-8.153c-1.767-2.92-1.089-4.585.22-7a11.792,11.792,0,0,1-5.123.965,10.689,10.689,0,0,1-4.525-1.592c-1.31,1.5-6.914,7.847-8.667,9.105-1.987,1.431-10.85.92-11.463,6.677" transform="translate(-2286.487 845.615)" fill="#172b4c"/>
      <path id="path156" d="M3288.913-898.678s3.961,36.022-21.716,43.568-32.965-33.139-12.232-36.068,33.949-7.5,33.949-7.5" transform="translate(-2588.896 1255.239)" fill="#5486d6"/>
      <path id="path158" d="M2973.046-833.666c-1.831,13.733-8.984,57.074-21.6,78.221-4.069,6.817,10.248,10.638,10.326,10.619,1.92-.5,5.12-3.563,6.593-4.894,10.245-9.231,31.04-35.371,31.04-56.33,0-10.221.177-29.738-7.252-34.7-4.577-3.055-18.377,1.627-19.106,7.08" transform="translate(-2355.625 1209.763)" fill="#233862"/>
      <path id="path160" d="M3194.579-736.295s-1.129-1.568-3.095-4.547c-2.337-3.544-4.926-10.517-8.067-19.455-3.3-9.382-7.215-20.926-12.106-32.938-1.508-3.708-3.111-7.459-4.816-11.208-3.047-6.68-11.42-5.757-14.4-13.311,0,0-11.627-26.183,9.745-26.906s61.982,70.044,64.316,76.9c2.554,7.5,15.021,38.657-31.577,31.467" transform="translate(-2513.869 1212.12)" fill="#2b478b"/>
      <path id="path162" d="M2974.832-369.79h30.418s1.137-4.851-.86-8.153c-1.767-2.92-1.089-4.585.22-7a11.8,11.8,0,0,1-5.123.965,10.689,10.689,0,0,1-4.525-1.592c-1.31,1.5-6.914,7.847-8.667,9.105-1.987,1.431-10.85.92-11.463,6.677" transform="translate(-2374.877 845.615)" fill="#233862"/>
      <path id="path164" d="M3271.978-636.951c-3.3-9.382-7.215-20.926-12.106-32.938,1.277-9.1,4.034-17.062,8.667-20.27,0,0,11.243,34.823,3.439,53.208" transform="translate(-2602.431 1088.773)" fill="#23407a"/>
      <path id="path166" d="M3079.195-832.48c-1.834,13.73-4.413,58.045-17.03,79.192-4.068,6.817,10.248,10.638,10.326,10.619,1.92-.5,5.12-3.563,6.594-4.894,10.242-9.231,31.039-35.371,31.039-56.33,0-10.221-11.993-28.918-19.426-33.876a7.472,7.472,0,0,0-11.5,5.289" transform="translate(-2444.016 1207.606)" fill="#2b478b"/>
      <path id="path168" d="M2832.153-999.9s-1.557-3.958-4.391-3.7-28.595,3.7-28.595,3.7,3,.718,4.13,2.684l11.88,35.014h30.478l-13.5-37.7" transform="translate(-2234.639 1339.014)" fill="#ebf3fa"/>
      <path id="path170" d="M3095.628-945.731s-43.172,15.9-49.661,15.575c-4.192-.212-39.045-12.464-39.045-12.464l-3.13,5.919s33.922,21.805,43.248,21.7c18.414-.212,49.481-11.514,52.987-13.736s5.792-14.741-4.4-16.989" transform="translate(-2397.996 1292.803)" fill="#ffbf94"/>
      <path id="path172" d="M2930.684-949.947s-3.13-4.813-6.244-4.956-8.5,2.124-10.339,2.479-7.08,2.052-5.521,4.6,8.78,3.117,11.894,2.549,7.08,1.245,7.08,1.245l3.13-5.919" transform="translate(-2321.758 1300.13)" fill="#ffbf94"/>
      <path id="path174" d="M2963.165-965.442s-4.953-2.272-6.37-2.7-1.132.008-.707,1.35,2.974,2.622,2.974,3.044,4.1-1.7,4.1-1.7" transform="translate(-2359.636 1310.817)" fill="#ffbf94"/>
      <path id="path176" d="M3272.379-1041.31s1.855-.734,7.077-.312c0,0-.277,2.038-4.13,2.24a3.07,3.07,0,0,1-2.947-1.928" transform="translate(-2612.415 1369.46)" fill="#fff"/>
      <path id="path178" d="M3348.858-941.857s3.862,12.224,17.124,15c0,0,21.9-6.747,11-21.665,0,0-10.78-8.011-28.119,6.661" transform="translate(-2673.47 1296.77)" fill="#739af0"/>
      <path id="path180" d="M2793.2-999.759s-2.861,1.094-.7,4.808l27.847-3.714s-.968-4.305,1.218-4.773l-28.369,3.679" transform="translate(-2228.677 1338.871)" fill="#fff"/>
      <path id="path182" d="M2828.2-960.269c.659-2.649.618-3.289-.876-4.9-.99-1.068-2.5,1.581-3.286,3.178a8.087,8.087,0,0,0-.944-1.909c-.24-.083.333,3.558.333,3.558v0a4.244,4.244,0,0,0-.016.457l0,0a7.715,7.715,0,0,0,4.058,8.242l-1.006-2.95c.61-.1,1.067-2.979,1.74-5.666" transform="translate(-2253.695 1308.521)" fill="#ffad76"/>
      <path id="path184" d="M3264.865-1186.66a4.968,4.968,0,0,1,6.145,2.778c2,4.227,2.641,14.335,10.675,15.161s8.344-17.121,8.344-17.121l-20.111-7.941-10.619,6.7,5.566.419" transform="translate(-2601.973 1490.829)" fill="#233862"/>
      <path id="path186" d="M3246.2-1167.108s-4.531.1-5.566,3.913.581,10.931-1.928,11.447-4.789-11.861.064-15.881,7.43.522,7.43.522" transform="translate(-2583.303 1471.276)" fill="#233862"/>
      <path id="path188" d="M1523.223-1516.928s4.536-1.718,5.053-2.9,2.011-1.7,3.816-2.528,2.888-2.321,3.146-2.114.309,1.237-.414,2.011-3.778,6.188-4.932,6.806-6.669-1.272-6.669-1.272" transform="translate(-1216.024 1754.842)" fill="#ffb27d"/>
      <path id="path190" d="M3739.705-436.508h-29.157c-1.562-1.326,1.084-4.337,3.845-4.539a17.03,17.03,0,0,1,4.45.527c.4-5.33,2.692-29.286,11.326-28.323,9.71,1.078,0,10.552-2.743,16.158a133.442,133.442,0,0,0-5.16,12.921c.788.172,1.605.339,2.439.492,1.288-3.95,6.074-17.242,12.165-16.468,7.15.906,4.275,6.236-.793,9.4-3.716,2.326-8.282,5.634-10.452,7.231a31.091,31.091,0,0,0,5.7.457c4.993-.118,7.432,1.353,8.376,2.146" transform="translate(-2961.844 912.116)" fill="#82b378"/>
      <path id="path192" d="M536.693-416.3s-11.083-30.437-18.864-27.842S536.693-416.3,536.693-416.3" transform="translate(-412.258 892.497)" fill="#82b378"/>
      <path id="path194" d="M517.362-362.267c-.943,0-18.628-18.353-19.807-13.547s19.807,13.547,19.807,13.547" transform="translate(-397.171 838.466)" fill="#82b378"/>
      <path id="path196" d="M513.763-326.252s-7.314-6.706-16.574-4.961-13.215,3.66-19.032,2.337a8.61,8.61,0,0,0-8.788,2.625h44.393" transform="translate(-374.708 802.451)" fill="#82b378"/>
      <path id="path198" d="M993.394-305.07H217.286a.882.882,0,0,1-.881-.879v-.3a.885.885,0,0,1,.881-.882H993.394a.886.886,0,0,1,.882.882v.3a.884.884,0,0,1-.882.879" transform="translate(-172.761 782.995)" fill="#2e3552"/>
      <path id="path200" d="M1557.3-474.025H1499.69a5.826,5.826,0,0,1-5.827-5.827v-15.709a5.826,5.826,0,0,1,5.827-5.824H1557.3a5.824,5.824,0,0,1,5.824,5.824v15.709a5.824,5.824,0,0,1-5.824,5.827" transform="translate(-1192.585 938.072)" fill="#fcecdb"/>
      <path id="path202" d="M1575.031-474.638h-43.393a.882.882,0,0,1-.882-.879.884.884,0,0,1,.882-.882h43.393a.886.886,0,0,1,.882.882.884.884,0,0,1-.882.879" transform="translate(-1222.038 918.124)" fill="#efcbab"/>
      <path id="path204" d="M1539.334-455.795h-7.7a.884.884,0,0,1-.882-.882.884.884,0,0,1,.882-.882h7.7a.884.884,0,0,1,.879.882.884.884,0,0,1-.879.882" transform="translate(-1222.038 903.084)" fill="#efcbab"/>
      <path id="path206" d="M1606.081-455.795h-21.2a.886.886,0,0,1-.882-.882.886.886,0,0,1,.882-.882h21.2a.884.884,0,0,1,.879.882.884.884,0,0,1-.879.882" transform="translate(-1264.54 903.084)" fill="#efcbab"/>
      <path id="path208" d="M1575.031-420.9h-43.393a.884.884,0,0,1-.882-.882.884.884,0,0,1,.882-.882h43.393a.886.886,0,0,1,.882.882.886.886,0,0,1-.882.882" transform="translate(-1222.038 875.228)" fill="#efcbab"/>
      <path id="path210" d="M1547.388-402.062h-15.75a.884.884,0,0,1-.882-.882.884.884,0,0,1,.882-.882h15.75a.884.884,0,0,1,.879.882.884.884,0,0,1-.879.882" transform="translate(-1222.038 860.188)" fill="#efcbab"/>
      <path id="path212" d="M1642.412-402.062h-15.75a.884.884,0,0,1-.879-.882.884.884,0,0,1,.879-.882h15.75a.884.884,0,0,1,.882.882.884.884,0,0,1-.882.882" transform="translate(-1297.9 860.188)" fill="#efcbab"/>
    </g>
  </g>
</svg>
