<svg xmlns="http://www.w3.org/2000/svg" width="149.667" height="180.731" viewBox="0 0 149.667 180.731">
  <g id="start" transform="translate(-44 0)">
    <path id="Tracé_95" data-name="Tracé 95" d="M242.658,409.25h0a40.513,40.513,0,0,1-12.08,28.859l-3.938,3.88-3.938-3.88a40.515,40.515,0,0,1-12.08-28.859h32.036Z" transform="translate(-107.806 -264.789)" fill="#fec96b"/>
    <g id="Groupe_24" data-name="Groupe 24" transform="translate(47.53 90.365)">
      <path id="Tracé_96" data-name="Tracé 96" d="M74.473,302.595V256.914c0-.3,0-.609.007-.914h-.007A30.375,30.375,0,0,0,54,284.716v24.938H81.533A7.06,7.06,0,0,1,74.473,302.595Z" transform="translate(-54 -256)" fill="#ff5d5d"/>
      <path id="Tracé_97" data-name="Tracé 97" d="M387.06,256h-.007c0,.3.007.609.007.914v45.681a7.06,7.06,0,0,1-7.06,7.06h27.533V284.716A30.375,30.375,0,0,0,387.06,256Z" transform="translate(-264.926 -256)" fill="#ff5d5d"/>
    </g>
    <path id="Tracé_98" data-name="Tracé 98" d="M162.83,10h0A101.156,101.156,0,0,0,112,97.749V143.43a7.06,7.06,0,0,0,7.06,7.06H206.6a7.06,7.06,0,0,0,7.06-7.06V97.749A101.156,101.156,0,0,0,162.83,10Z" transform="translate(-43.997 -6.47)" fill="#e5f8d2"/>
    <path id="Tracé_99" data-name="Tracé 99" d="M157.279,43.181h69.695A101.067,101.067,0,0,0,192.126,10h0A101.071,101.071,0,0,0,157.279,43.181Z" transform="translate(-73.293 -6.47)" fill="#ff5d5d"/>
    <circle id="Ellipse_6" data-name="Ellipse 6" cx="28.404" cy="28.404" r="28.404" transform="translate(90.57 61.853)" fill="#fff"/>
    <path id="Tracé_100" data-name="Tracé 100" d="M240.415,230.495A28.454,28.454,0,0,0,236.8,216.58l-23.88,23.88-9.895-9.895-15.3,15.3a28.587,28.587,0,0,0,52.692-15.372Z" transform="translate(-92.99 -140.13)" fill="#a0e557"/>
    <path id="Tracé_101" data-name="Tracé 101" d="M170.214,214.642a32.059,32.059,0,1,0-.335-.524A3.513,3.513,0,0,0,170.214,214.642Zm26.91,7.543a25.021,25.021,0,0,1-19.48-9.318l10.68-10.68,7.4,7.4a3.531,3.531,0,0,0,4.992,0l20.231-20.231a25.05,25.05,0,0,1-23.822,32.83Zm0-50.122a25.042,25.042,0,0,1,20.482,10.647L198.22,202.1l-7.4-7.4a3.531,3.531,0,0,0-4.992,0l-11.9,11.9a25.049,25.049,0,0,1,23.2-34.535Z" transform="translate(-78.291 -106.76)"/>
    <path id="Tracé_102" data-name="Tracé 102" d="M173.139,87.93A104.682,104.682,0,0,0,120.59.468a3.529,3.529,0,0,0-3.512,0,104.681,104.681,0,0,0-52.55,87.462A33.919,33.919,0,0,0,44,119.081V144.02a3.53,3.53,0,0,0,3.53,3.53H99.4a44.353,44.353,0,0,0,13.019,28.285l3.938,3.88a3.531,3.531,0,0,0,4.955,0l3.938-3.88a44.352,44.352,0,0,0,13.019-28.285h10.922v18.218a3.53,3.53,0,0,0,7.06,0V147.549h33.887a3.53,3.53,0,0,0,3.53-3.53V119.082A33.918,33.918,0,0,0,173.139,87.93ZM118.834,7.623a97.426,97.426,0,0,1,28.089,25.557H90.745A97.426,97.426,0,0,1,118.834,7.623Zm-47.3,83.655a97.371,97.371,0,0,1,7.211-36.742H94.727a3.53,3.53,0,0,0,0-7.06H81.951q1.861-3.7,4.03-7.236h65.705a97.638,97.638,0,0,1,14.448,51.038V136.96a3.534,3.534,0,0,1-3.53,3.53H75.063a3.534,3.534,0,0,1-3.53-3.53Zm-20.473,27.8A26.861,26.861,0,0,1,64.473,95.839V136.96a10.539,10.539,0,0,0,.607,3.53H51.06Zm69.235,51.725-1.461,1.439-1.461-1.439a37.242,37.242,0,0,1-10.893-23.256h24.707A37.246,37.246,0,0,1,120.295,170.806Zm66.313-30.316H172.587a10.54,10.54,0,0,0,.607-3.53V95.839a26.86,26.86,0,0,1,13.414,23.242Z" transform="translate(0 0)"/>
    <path id="Tracé_103" data-name="Tracé 103" d="M217.53,141.56a3.531,3.531,0,1,0-2.5-1.034A3.555,3.555,0,0,0,217.53,141.56Z" transform="translate(-109.992 -87.023)"/>
    <path id="Tracé_104" data-name="Tracé 104" d="M153.53,444.751a3.53,3.53,0,0,0-3.53,3.53v10.874a3.53,3.53,0,0,0,7.06,0V448.281A3.53,3.53,0,0,0,153.53,444.751Z" transform="translate(-68.583 -287.759)"/>
    <path id="Tracé_105" data-name="Tracé 105" d="M345.53,492a3.532,3.532,0,1,0,2.5,1.034A3.557,3.557,0,0,0,345.53,492Z" transform="translate(-192.809 -318.329)"/>
  </g>
</svg>
