<svg xmlns="http://www.w3.org/2000/svg" xmlns:xlink="http://www.w3.org/1999/xlink" width="176.857" height="174.696" viewBox="0 0 176.857 174.696">
  <defs>
    <filter id="Tracé_21" x="0" y="0" width="176.857" height="174.696" filterUnits="userSpaceOnUse">
      <feOffset dy="15" input="SourceAlpha"/>
      <feGaussianBlur stdDeviation="7.5" result="blur"/>
      <feFlood flood-opacity="0.161"/>
      <feComposite operator="in" in2="blur"/>
      <feComposite in="SourceGraphic"/>
    </filter>
  </defs>
  <g id="Composant_41_1" data-name="Composant 41 – 1" transform="translate(5.649 8)">
    <path id="Tracé_20" data-name="Tracé 20" d="M79.428-2C46.714-2,14,30.714,14,63.428,14,91.1,37.414,118.78,64.6,126.7c22.732-.416,22.111-17.764,42.634-34.044,18.195-14.433,37.746-9.951,37.624-29.223C144.856,30.714,112.142-2,79.428-2Z" transform="translate(-14 2)" fill="#606c38" stroke="#707070" stroke-width="1" opacity="0.44"/>
    <g transform="matrix(1, 0, 0, 1, -5.65, -8)" filter="url(#Tracé_21)">
      <path id="Tracé_21-2" data-name="Tracé 21" d="M79.428-2C46.714-2,14,30.714,14,63.428,14,91.1,37.586,125.005,64.6,126.7c22.732-.416,24.729-14.067,45.252-30.347,18.195-14.433,35.128-13.648,35.006-32.921C144.856,30.714,112.142-2,79.428-2Z" transform="translate(9 10)" fill="#fff" stroke="#707070" stroke-width="1"/>
    </g>
    <path id="Repari-tool" d="M43.45,49.907l4.3-4.3a10.091,10.091,0,0,0,2.575.1.884.884,0,1,0-.16-1.761,8.361,8.361,0,0,1-2.519-.164.885.885,0,0,0-.814.238L42.2,48.657,36.364,42.82l4.629-4.629a.884.884,0,0,0,.238-.814,8.388,8.388,0,0,1,8.779-10.16L44.588,32.64a.884.884,0,0,0-.234.834l1.277,5.265a.884.884,0,0,0,.651.651l5.265,1.277a.885.885,0,0,0,.834-.234L57.8,35.01a8.407,8.407,0,0,1-4.11,7.816.881.881,0,0,0-.348,1.132h0a.886.886,0,0,0,1.255.386,10.18,10.18,0,0,0,4.644-11.4.884.884,0,0,0-1.479-.4L51.48,38.83,47.222,37.8l-1.033-4.258,6.283-6.283a.884.884,0,0,0-.4-1.479,10.161,10.161,0,0,0-12.666,11.5l-4.3,4.3-.676-.676a1.749,1.749,0,0,0-2.055-.307l-2.864-2.864.119-.119a2.785,2.785,0,0,0,.831-1.788,2.691,2.691,0,0,0-.787-2.08l-.2-.2a31.767,31.767,0,0,1,11.855-9.922.885.885,0,0,0,.513-.96.905.905,0,0,0-.442-.622,14.249,14.249,0,0,0-17.254,2.34l-1.915,1.915-.025-.026a2.7,2.7,0,0,0-1.911-.792h0a2.687,2.687,0,0,0-1.912.792L10.21,34.445a.892.892,0,0,0,0,1.251,1.567,1.567,0,0,1,.276.389,2.9,2.9,0,0,1-.834,3.147,2.892,2.892,0,0,1-3.111.849,1.533,1.533,0,0,1-.422-.289.893.893,0,0,0-1.253,0L.259,44.4a.884.884,0,0,0,0,1.25L10.288,55.676a.918.918,0,0,0,.3.208.886.886,0,0,0,.963-.193l4.607-4.607a.884.884,0,0,0,.01-1.241,1.565,1.565,0,0,1-.287-.411,2.875,2.875,0,0,1,.842-3.127,2.9,2.9,0,0,1,3.143-.837,1.585,1.585,0,0,1,.4.281.884.884,0,0,0,1.24-.01L22.842,44.4l2.864,2.864a1.749,1.749,0,0,0,.307,2.054h0l.676.676-9.543,9.542a.884.884,0,0,0,0,1.25h0a.884.884,0,0,0,1.25,0l8.956-8.956.587-.586.8.8-6.6,6.6a2.15,2.15,0,0,0,0,3.032l1.21,1.209a2.146,2.146,0,0,0,3.031,0l6.6-6.6.8.8,0,0L18.806,72.051a4.136,4.136,0,0,1-5.843.006,4.127,4.127,0,0,1,.006-5.842l2.511-2.51a.884.884,0,0,0,0-1.25h0a.884.884,0,0,0-1.25,0l-2.511,2.51A5.9,5.9,0,1,0,20.056,73.3L35.022,58.334l0,0L49.3,72.6a6.089,6.089,0,0,0,4.311,1.779,5.936,5.936,0,0,0,4.181-10.137ZM25.407,25.625a12.531,12.531,0,0,1,13.584-2.819,34.183,34.183,0,0,0-10.78,9.458l-4.72-4.724Zm-14.48,28.19L2.134,45.022l3.356-3.356,8.793,8.793Zm4.547-8.76A5.276,5.276,0,0,0,14.025,47.7L8.267,41.941A5.269,5.269,0,0,0,10.9,40.483a5.224,5.224,0,0,0,1.5-2.928l6,6A5.222,5.222,0,0,0,15.474,45.055ZM21.046,43.7,12.253,34.9l7.389-7.389a.93.93,0,0,1,.662-.274h0a.93.93,0,0,1,.662.275l.649.65h0l6.816,6.822a.936.936,0,0,1,0,1.323Zm3.046-.546,4.177-4.177,2.81,2.81L28.99,43.872,26.9,45.961Zm1.035,18.483a.376.376,0,0,1-.531,0l-1.21-1.208a.378.378,0,0,1,0-.533l6.6-6.6,1.741,1.741ZM56.465,71.49a4.264,4.264,0,0,1-5.919-.138L27.279,48.085,33.2,42.16,56.537,65.494a4.195,4.195,0,0,1-.072,6Z" transform="translate(52.985 16.77)" fill="#7d8f41"/>
  </g>
</svg>
