<svg xmlns="http://www.w3.org/2000/svg" xmlns:xlink="http://www.w3.org/1999/xlink" width="791" height="773" viewBox="0 0 791 773">
  <defs>
    <clipPath id="clip-path">
      <rect id="Rectangle_20" data-name="Rectangle 20" width="791" height="773" transform="translate(878.308 105.332)" fill="#fff"/>
    </clipPath>
    <linearGradient id="linear-gradient" x1="0.276" y1="0.09" x2="0.724" y2="0.91" gradientUnits="objectBoundingBox">
      <stop offset="0" stop-color="#7d8f41"/>
      <stop offset="0.649" stop-color="#7d8f41"/>
      <stop offset="1" stop-color="#606c38"/>
    </linearGradient>
    <linearGradient id="linear-gradient-2" x1="0.671" y1="0.883" x2="0.329" y2="0.117" gradientUnits="objectBoundingBox">
      <stop offset="0" stop-color="#7d8f41"/>
      <stop offset="0.636" stop-color="#606c38"/>
      <stop offset="1" stop-color="#606c38"/>
    </linearGradient>
    <linearGradient id="linear-gradient-3" x1="0.739" y1="0.821" x2="0.261" y2="0.179" gradientUnits="objectBoundingBox">
      <stop offset="0" stop-color="#7d8f41"/>
      <stop offset="1" stop-color="#606c38"/>
    </linearGradient>
  </defs>
  <g id="Groupe_de_masques_2" data-name="Groupe de masques 2" transform="translate(-878.308 -105.332)" clip-path="url(#clip-path)">
    <g id="Header_Custom_top" data-name="Header Custom top" transform="matrix(0.998, 0.07, -0.07, 0.998, 891.792, -38.541)">
      <path id="Tracé_3" data-name="Tracé 3" d="M3400.587-1s-41.161,116.915-28.647,144.767,30.087,32.32,41.479,46.529,26.727,49.228,26.727,49.228,25.028,84.351,37.542,104.245,55.4,68.737,72.583,83.555,76,48.974,98.789,58.391,65.315,31.874,80.125,40.2,83.163,59.763,88.1,64.472,55.062,52.519,57.72,55.417,66.454,79.685,70.252,84.031,58.48,55.417,95.314,68.819,80.884,27.527,113.921,27.165,104.428-9.417,145.819-27.165,81.644-40.929,89.239-46.362,62.657-53.244,70.252-67.732,20.126-31.512,20.126-31.512l-.756-654.5Z" transform="translate(-3369.572 1.811)" fill="url(#linear-gradient)"/>
      <path id="Tracé_6" data-name="Tracé 6" d="M0,234.2a286.564,286.564,0,0,0,30.167,26.264c18.215,13.632,40.588,26.645,44.349,28.29,3.574,2.026,29.791,14.783,56.13,27.39,8.527,4.312,54.7,28.815,83.745,50.877,15.383,11.256,29.9,22.6,42.773,33.993,43.383,38.373,73.866,75.689,76.091,77.666,2.315-1.483,35.245-22.228,70.988-36.319,38.109-15.025,79.842-25.232,85.7-26.939,5.255-1.533,63.2-7.41,109.333-23.262,21.654-7.44,43.211-14.8,59.657-23.412,7.311-3.828,42.022-24.088,59.957-47.725,11.031-13.807,20.653-26.2,29.566-42.7,22.072-40.85,32.616-81.452,33.993-87.422,1.545-6.7,11.328-41.426,24.088-73.239,4.063-10.131,15.068-31.142,31.142-49.977,24.507-28.716,62.335-53.053,62.335-53.053V0s-31.475,1.165-45.6,5.4c-5.763,1.729-37.842,6.767-67.086,18.76a452.659,452.659,0,0,0-55.979,28.59c-26.4,15.791-57.115,37.645-88.172,57.631-30.458,19.6-59.741,39.916-83.37,54.7-23.546,14.737-65.94,38.285-85.921,47.2-13.763,6.141-72.985,32.248-120.064,32.117-8.21-.023-30.114,1.043-54.479-2.326-22.159-3.064-48.851-10.806-75.49-18.01-21.537-6.153-43.961-16.286-64.459-19.244-15-2.165-29.044-3.79-41.422-3.793-8.464,0-32.456.742-52,6.378a341.76,341.76,0,0,0-33.468,11.106A280.367,280.367,0,0,0,0,234.2Z" transform="translate(173.634 187.867) rotate(-1)" fill="url(#linear-gradient-2)"/>
      <path id="Tracé_5" data-name="Tracé 5" d="M4034.94,598.939c19.911-4.458,87.031-15.019,104.8-19.257s50.892-13.066,71.132-22.954,47.431-26.653,57.3-35.128,29.118-27.393,39.262-41.789,25.67-43.32,30.606-56.033,16.992-45.6,20.942-60.192,14.758-52,21.938-65.311,25.4-46.288,41.749-60.746,26.857-23.969,33.851-28.465,23.7-16.048,23.7-16.048V-1.811H4237.651l-838.079.923s-15.653,45.146-24.487,80.43a177.286,177.286,0,0,0-5.163,38.144c.057,6.985-.875,25.011,8.624,39.9,6.025,9.441,13.471,11.447,21.792,20.336,12.864,13.74,23.914,28.557,27.3,35.644,2.559,5.358,5.544,11.406,8.34,18.235,5.474,13.372,9.568,28.732,12.352,35.719,2.8,7.606,6.09,22.442,11.486,36.619,4.467,11.735,8.348,24.713,21.635,43.748,5.147,7.374,10.979,17.137,19.668,27.24,5.64,6.556,11.554,15.636,19.432,23.788,2.287,2.366,10.093,10.717,18.724,18.835a207.747,207.747,0,0,0,25.962,20.861c7.071,4.727,22.351,15.367,39.1,24.688,19.981,11.12,75.659,36.761,85.039,41s41.486,23.4,51.853,29.989c4.707,2.993,20.457,12.941,36.111,24.988,9.438,7.263,27.544,21.441,43.742,35.269,5.911,5.046,17.113,16.076,29.188,27.765,3.331,3.225,12.854,12.484,21.163,21.086,7.973,8.255,14.869,16.359,14.869,16.359a474.425,474.425,0,0,1,64.117-33.768C3985.28,611.242,4024.826,601.2,4034.94,598.939Z" transform="translate(-3369.572 1.811)" fill="url(#linear-gradient-3)"/>
    </g>
  </g>
</svg>
