<svg xmlns="http://www.w3.org/2000/svg" xmlns:xlink="http://www.w3.org/1999/xlink" width="934" height="808" viewBox="0 0 934 808">
  <defs>
    <clipPath id="clip-path">
      <rect id="Rectangle_21" data-name="Rectangle 21" width="934" height="808" transform="translate(735.308 105.332)" fill="#fff"/>
    </clipPath>
  </defs>
  <g id="Groupe_de_masques_3" data-name="Groupe de masques 3" transform="translate(-735.308 -105.332)" clip-path="url(#clip-path)">
    <path id="Header_Custom_bottom" data-name="Header Custom bottom" d="M3363.883-1.368s-41.758,119.206-41.361,135.111c.187,7.5.984,25.77,10.579,39.187,9.774,13.667,28.543,22.487,36.629,29.929a143.5,143.5,0,0,1,29.092,38.553c2.122,4.23,9.548,23.021,18.97,46.813,6.395,16.148,9.565,40.911,16.733,58.573a76.091,76.091,0,0,0,15.075,28.027c3.849,4.527,18.358,35.374,36.894,53.9,23.206,23.191,51.276,34.636,54.317,36.039,7.916,3.655,32.031,13.039,60.331,21.409,21.3,6.3,45.056,10.9,66.25,18.642,12.945,4.729,41.92,16.189,65.589,34.368,12.879,9.892,23.76,22.861,34.513,33.987a294.082,294.082,0,0,0,29.356,26.5c.465.366,9,6.3,22.171,15.445,2.695,1.87,22.419,10.371,43.153,24.756,42.873,29.744,102.066,77.253,105.259,79.641,30.283,22.658,60.3,44.071,80.267,56.941,13.2,8.511,43.78,27.968,83.177,44.386,14.607,6.088,64.07,25.772,117.292,28.661a323.851,323.851,0,0,0,64.531-2.917c26.675-4.16,48.553-11.612,63.473-16.486,55.732-18.209,98.683-50.372,100.764-51.868,1.762-1.268,24.223-17.737,46.282-35.763,25.4-20.752,50.771-43.389,50.771-43.389v-46.14l-1.277-654.36Z" transform="matrix(0.998, 0.07, -0.07, 0.998, -2563.208, -268.888)" fill="#7d8f41" opacity="0.68"/>
  </g>
</svg>
