<svg xmlns="http://www.w3.org/2000/svg" xmlns:xlink="http://www.w3.org/1999/xlink" width="176.857" height="174.696" viewBox="0 0 176.857 174.696">
  <defs>
    <linearGradient id="linear-gradient" x1="0.552" y1="0.046" x2="0.755" y2="1.442" gradientUnits="objectBoundingBox">
      <stop offset="0" stop-color="#7d8f41"/>
      <stop offset="1" stop-color="#3f4821"/>
    </linearGradient>
    <filter id="Tracé_51" x="0" y="0" width="176.857" height="174.696" filterUnits="userSpaceOnUse">
      <feOffset dy="15" input="SourceAlpha"/>
      <feGaussianBlur stdDeviation="7.5" result="blur"/>
      <feFlood flood-opacity="0.161"/>
      <feComposite operator="in" in2="blur"/>
      <feComposite in="SourceGraphic"/>
    </filter>
  </defs>
  <g id="Icon" transform="translate(23 8)">
    <g transform="matrix(1, 0, 0, 1, -23, -8)" filter="url(#Tracé_51)">
      <path id="Tracé_51-2" data-name="Tracé 51" d="M79.428,126.7C46.714,126.7,14,93.981,14,61.267,14,33.591,37.586-.31,64.6-2c22.732.416,24.729,14.067,45.252,30.347C128.044,42.779,144.978,42,144.856,61.267,144.856,93.981,112.142,126.7,79.428,126.7Z" transform="translate(9 10)" stroke="#707070" stroke-width="1" fill="url(#linear-gradient)"/>
    </g>
    <g id="trash" transform="translate(29.852 28.502)">
      <path id="Tracé_55" data-name="Tracé 55" d="M134.585,259.743h28.547a.737.737,0,0,0,.737-.737V240.077a.737.737,0,0,0-.737-.737H134.585a.737.737,0,0,0-.737.737v18.928A.737.737,0,0,0,134.585,259.743Zm.737-18.928H162.4v17.454H135.323Z" transform="translate(-113.282 -205.542)" fill="#fff"/>
      <path id="Tracé_56" data-name="Tracé 56" d="M252.7,290.193a.737.737,0,1,0,0,1.475h0a2.5,2.5,0,1,1,0,5h-1.353l.242-.253a.737.737,0,0,0-1.066-1.019l-1.468,1.535a.737.737,0,0,0,0,1.022l1.468,1.519a.737.737,0,1,0,1.061-1.025l-.293-.3h1.413a3.973,3.973,0,1,0-.006-7.946Z" transform="translate(-214.153 -250.145)" fill="#fff"/>
      <path id="Tracé_57" data-name="Tracé 57" d="M207.087,279.981a.737.737,0,0,0,0-1.022l-1.468-1.519a.737.737,0,1,0-1.061,1.025l.273.283h-1.393a3.973,3.973,0,0,0,0,7.946h0a.737.737,0,1,0,0-1.475h0a2.5,2.5,0,1,1,0-5h1.377l-.262.274a.737.737,0,0,0,1.066,1.019Z" transform="translate(-170.836 -238.762)" fill="#fff"/>
      <path id="Tracé_58" data-name="Tracé 58" d="M54.954,210.489a.837.837,0,1,0,.806.837.823.823,0,0,0-.806-.837Z" transform="translate(-43.321 -180.235)" fill="#fff"/>
      <path id="Tracé_59" data-name="Tracé 59" d="M56.452,234.416a.737.737,0,0,0-.737.737V246.8a.737.737,0,0,0,1.475,0v-11.65a.737.737,0,0,0-.737-.737Z" transform="translate(-44.751 -201.223)" fill="#fff"/>
      <path id="Tracé_60" data-name="Tracé 60" d="M64.309,21.6l-1.274-5.687A10.66,10.66,0,0,0,55.2,7.9a3.029,3.029,0,0,0-6.022-.318H44.106a3.029,3.029,0,0,0-5.991,0H33.039a3.029,3.029,0,0,0-5.991,0H21.971A3.029,3.029,0,0,0,15.95,7.9a10.66,10.66,0,0,0-7.831,8.021L6.845,21.6a3.2,3.2,0,0,0-2.151,3.02v2.2a.737.737,0,0,0,.737.737H7.057V58.119a5.4,5.4,0,0,0,5.392,5.392h.333v2.443a.737.737,0,0,0,.737.737h10.24a.737.737,0,0,0,.737-.737V63.51h22.16v2.443a.737.737,0,0,0,.737.737h10.24a.737.737,0,0,0,.737-.737V63.51H58.7A5.4,5.4,0,0,0,64.1,58.119V27.557h1.626a.737.737,0,0,0,.737-.737v-2.2A3.2,3.2,0,0,0,64.309,21.6Zm-9.1-12.18A9.187,9.187,0,0,1,61.6,16.24l1.162,5.189H55.207ZM50.624,8.03a1.555,1.555,0,1,1,3.109,0v13.4H50.624ZM44.14,9.053h5.008V21.428H44.14ZM39.557,8.03a1.555,1.555,0,1,1,3.109,0v13.4H39.557ZM33.073,9.053h5.008V21.428H33.073ZM28.49,8.03a1.555,1.555,0,1,1,3.109,0v13.4H28.49ZM22.007,9.053h5.008V21.428h-5.01ZM17.423,8.03a1.555,1.555,0,1,1,3.109,0v13.4H17.423ZM9.559,16.239a9.187,9.187,0,0,1,6.387-6.815v12H8.4ZM23.022,65.216H14.257V63.51h8.765Zm33.875,0H48.131V63.51H56.9Zm8.088-39.134H19.4a.737.737,0,1,0,0,1.475h43.22V58.119A3.922,3.922,0,0,1,58.7,62.036H12.449a3.922,3.922,0,0,1-3.917-3.917V27.557H14.24a.737.737,0,1,0,0-1.475H6.169V24.623a1.72,1.72,0,0,1,1.72-1.72H63.265a1.72,1.72,0,0,1,1.72,1.72Z" fill="#fff"/>
    </g>
  </g>
</svg>
