<svg xmlns="http://www.w3.org/2000/svg" width="89.685" height="13.575" viewBox="0 0 89.685 13.575">
  <path id="Tracé_42" data-name="Tracé 42" d="M2776.815,1522.751s.311-4.543,4.592-4.472,3.892,4.472,3.892,4.472-.623,5.179,4.592,5.1,4.437-5.1,4.437-5.1.312-4.472,4.592-4.472,4.281,4.472,4.281,4.472-.078,5.03,4.515,5.1,5.137-5.1,5.137-5.1.311-4.394,4.359-4.472,4.2,4.472,4.2,4.472-.156,5.1,3.814,5.1,4.048-5.1,4.048-5.1.467-4.472,4.047-4.472,3.892,4.472,3.892,4.472-.078,5.179,3.97,5.1,3.658-5.1,3.658-5.1.234-4.394,4.359-4.472,4.125,4.472,4.125,4.472.156,5.1,4.437,5.1,4.748-5.1,4.748-5.1" transform="translate(-2774.819 -1516.277)" fill="none" stroke="#606c38" stroke-width="4"/>
</svg>
