<svg xmlns="http://www.w3.org/2000/svg" width="664.4" height="685.491" viewBox="0 0 664.4 685.491">
  <g id="windmill" transform="translate(-7.877)">
    <path id="Tracé_83" data-name="Tracé 83" d="M90,0A90,90,0,1,1,0,90,90,90,0,0,1,90,0Z" transform="translate(7.877 46.489)" fill="#ebebeb" opacity="0.34"/>
    <path id="Tracé_61" data-name="Tracé 61" d="M340.076,0C156.607,0,7.877,148.731,7.877,332.2L569.092,572.843A331.255,331.255,0,0,0,672.277,332.2C672.276,148.731,523.545,0,340.076,0Z" fill="#7d8f41"/>
    <path id="Tracé_62" data-name="Tracé 62" d="M544.857,516.955c-.406.123-.811.246-1.218.367a20.675,20.675,0,0,1-26.671-19.752c.063-.2-1.382-14.78,13.421-20.711,14.691-5.884,30.727-44.352,4.638-70.441a61.658,61.658,0,0,1-18.058-43.6V283.767a141.542,141.542,0,0,0-5.117-37.829c-6.578-23.753.553-49.207,17.981-66.635l60.978-60.148a13.883,13.883,0,0,0,2.056-17A334.22,334.22,0,0,0,556.3,65.481L455.227,166.886a140.829,140.829,0,0,0-79.751-24.609h-.2a105.349,105.349,0,0,1-75.336-30.715l-64.6-64.6a13.889,13.889,0,0,0-19.644,0L196.547,66.117,182.01,80.654,235.5,134.146l-.155.155,44.859,44.859a142.231,142.231,0,0,0-10.368,10.493,0,0,0,0,0,0,0,141.032,141.032,0,0,0-35.85,94.113v24.7a48.017,48.017,0,0,1-14.066,33.956c-24.028,24.028-64.965,16.288-78.111-15.046a328.942,328.942,0,0,1-11.576-32.2C109.826,227.573,10.012,241.3,7.949,311.363,4.64,489.269,142.4,636.319,315.785,648.977c.651.047,1.305.08,1.957.125,9.021.605,17.89.856,27.816.695a330.771,330.771,0,0,0,223.525-91.49c18.787-17.886.6-48.883-24.226-41.35Z" transform="translate(0.005 14.536)" fill="#606c38"/>
    <g id="Groupe_23" data-name="Groupe 23" transform="translate(122.014 59.118)">
      <path id="Tracé_63" data-name="Tracé 63" d="M412.692,583.083V259.875A141.546,141.546,0,0,0,209.769,132.384v450.7H412.692Z" transform="translate(-53.603 -19.004)" fill="#ffd23c"/>
      <path id="Tracé_64" data-name="Tracé 64" d="M345.268,324.965,325.41,344.823a13.889,13.889,0,0,0,0,19.644c113.252,113.149,105.753,105.978,107.542,107.3V384.991L359.1,311.136l-.011.011L323.744,275.8a40.865,40.865,0,0,0,8.214-30.516,27.2,27.2,0,0,1,7.843-22.8,27.507,27.507,0,0,1,38.9,0l.457.457a13.889,13.889,0,0,0,19.644,0L420.449,201.3A141.935,141.935,0,0,0,383.04,151.69L345.47,189.259l.011.011-29.112,29.113a40.822,40.822,0,0,0-49.946.1L237.208,189.27l.922-.922L257.282,169.2a13.891,13.891,0,0,0,0-19.645l-4.533-4.533a142.029,142.029,0,0,1,19.2-25.628,140.433,140.433,0,0,0-35.17,9.653l-.027-.027a142.461,142.461,0,0,0-50.924,36.4l.011.011a140.918,140.918,0,0,0-35.86,94.1V623.725H432.952V580.607H273.6a40.176,40.176,0,0,1-40.175-40.175V348.106a46.463,46.463,0,0,1,13.607-32.851l10.045-10.045a47.2,47.2,0,0,1,33.984-13.585h.578a48.956,48.956,0,0,1,34.723,14.339l18.951,18.951ZM249.7,229.3l.234.234a9.7,9.7,0,0,1,2.335,9.66,40.849,40.849,0,0,0,6.808,36.48l-25.652,25.652c.005-32.6,0-52.723,0-65.29A9.531,9.531,0,0,1,249.7,229.3Z" transform="translate(-73.865 -18.663)" fill="#fcb54c"/>
      <circle id="Ellipse_3" data-name="Ellipse 3" cx="40.862" cy="40.862" r="40.862" transform="translate(176.737 174.548)" fill="#ff640a"/>
      <circle id="Ellipse_4" data-name="Ellipse 4" cx="40.862" cy="40.862" r="40.862" transform="translate(176.737 175.939)" fill="#ff640a"/>
      <path id="Tracé_65" data-name="Tracé 65" d="M260.737,394.286h-.2A18.806,18.806,0,0,0,242.021,413.2v97.764h65.037V440.606A46.321,46.321,0,0,0,260.737,394.286Z" transform="translate(-42.674 74.485)" fill="#766d78"/>
      <path id="Tracé_66" data-name="Tracé 66" d="M283.024,396.885A46.324,46.324,0,0,0,221.4,440.607v70.362H252V440.607a46.333,46.333,0,0,1,31.022-43.723Z" transform="translate(-49.661 74.485)" fill="#444145"/>
      <path id="Tracé_67" data-name="Tracé 67" d="M424.07,478.657H180.836V523.3H451.823V506.41a27.754,27.754,0,0,0-27.753-27.753Z" transform="translate(-63.407 103.074)" fill="#ff640a"/>
      <path id="Tracé_68" data-name="Tracé 68" d="M230.507,478.657H152.615a27.754,27.754,0,0,0-27.753,27.753V523.3h77.892V506.41a27.754,27.754,0,0,1,27.753-27.753Z" transform="translate(-82.374 103.074)" fill="#e04955"/>
      <g id="Groupe_22" data-name="Groupe 22">
        <g id="Groupe_17" data-name="Groupe 17" transform="translate(156.295 155.718)">
          <path id="Tracé_69" data-name="Tracé 69" d="M319.214,160.463,209.865,269.812a53.66,53.66,0,0,1,13.184,14.355L333.481,173.735A52.872,52.872,0,0,1,319.214,160.463Z" transform="translate(-209.865 -160.463)" fill="#766d78"/>
        </g>
        <g id="Groupe_18" data-name="Groupe 18" transform="translate(77.576 77.669)">
          <path id="Tracé_70" data-name="Tracé 70" d="M0,0H115.391V19.472H0Z" transform="translate(184.498 81.582) rotate(-45)" fill="#444145"/>
          <path id="Tracé_71" data-name="Tracé 71" d="M0,0H114.553V19.472H0Z" transform="translate(0 266.04) rotate(-45)" fill="#444145"/>
        </g>
        <path id="Tracé_72" data-name="Tracé 72" d="M185.9,324.793,118.03,379.5,97.2,358.669a13.889,13.889,0,0,1,0-19.644L203.152,233.069a13.889,13.889,0,0,1,19.644,0L243.63,253.9Z" transform="translate(-93.127 18.478)" fill="#e1dee2"/>
        <g id="Groupe_19" data-name="Groupe 19" transform="translate(156.135 155.892)">
          <path id="Tracé_73" data-name="Tracé 73" d="M223.106,160.593a55.473,55.473,0,0,1-13.36,14.178L319,284.03a56.093,56.093,0,0,1,14.083-13.455Z" transform="translate(-209.746 -160.593)" fill="#766d78"/>
        </g>
        <g id="Groupe_20" data-name="Groupe 20" transform="translate(77.43 77.649)">
          <path id="Tracé_74" data-name="Tracé 74" d="M0,0H19.472V117.772H0Z" transform="translate(0 13.767) rotate(-45)" fill="#444145"/>
          <path id="Tracé_75" data-name="Tracé 75" d="M0,0H19.472V114.928H0Z" transform="translate(184.786 198.592) rotate(-45)" fill="#444145"/>
        </g>
        <path id="Tracé_76" data-name="Tracé 76" d="M282.039,296.854a13.889,13.889,0,0,1,0-19.644L301.9,257.353l56.374,46.292L427.5,382.954l-19.858,19.858a13.889,13.889,0,0,1-19.644,0Z" transform="translate(-30.493 28.086)" fill="#e1dee2"/>
        <path id="Tracé_77" data-name="Tracé 77" d="M122.008,67.376l19.151-19.151a13.889,13.889,0,0,1,19.644,0L266.759,154.181a13.889,13.889,0,0,1,0,19.644l-19.151,19.151-66.59-51.143Z" transform="translate(-83.341 -44.156)" fill="#e1dee2"/>
        <g id="Groupe_21" data-name="Groupe 21" transform="translate(24.101 23.237)">
          <path id="Tracé_78" data-name="Tracé 78" d="M0,0H177.626V18.178H0Z" transform="translate(0.746 374.717) rotate(-45)" fill="#c2bdc5"/>
          <path id="Tracé_79" data-name="Tracé 79" d="M0,0H19.558V177.626H0Z" transform="translate(247.22 262.218) rotate(-45)" fill="#c2bdc5"/>
          <path id="Tracé_80" data-name="Tracé 80" d="M0,0H20.558V177.626H0Z" transform="translate(0 14.535) rotate(-45)" fill="#c2bdc5"/>
        </g>
        <circle id="Ellipse_5" data-name="Ellipse 5" cx="19.059" cy="19.059" r="19.059" transform="translate(199.972 197.041)" fill="#e04955"/>
        <path id="Tracé_81" data-name="Tracé 81" d="M345.892,218.035a13.889,13.889,0,0,1-19.644,0l-20.123-20.123,44.71-60.478,80.891-65.122,20.123,20.123a13.889,13.889,0,0,1,0,19.644Z" transform="translate(-20.952 -34.615)" fill="#e1dee2"/>
        <path id="Tracé_82" data-name="Tracé 82" d="M0,0H177.626V19.183H0Z" transform="translate(271.553 149.758) rotate(-45)" fill="#c2bdc5"/>
      </g>
    </g>
  </g>
</svg>
