<svg xmlns="http://www.w3.org/2000/svg" xmlns:xlink="http://www.w3.org/1999/xlink" width="154.273" height="144.707" viewBox="0 0 154.273 144.707">
  <defs>
    <linearGradient id="linear-gradient" x1="0.5" y1="1" x2="1.057" y2="0.185" gradientUnits="objectBoundingBox">
      <stop offset="0" stop-color="#7d8f41"/>
      <stop offset="1" stop-color="#606c38"/>
    </linearGradient>
    <filter id="Tracé_145" x="0" y="0" width="154.273" height="144.707" filterUnits="userSpaceOnUse">
      <feOffset dy="15" input="SourceAlpha"/>
      <feGaussianBlur stdDeviation="7.5" result="blur"/>
      <feFlood flood-opacity="0.161"/>
      <feComposite operator="in" in2="blur"/>
      <feComposite in="SourceGraphic"/>
    </filter>
  </defs>
  <g id="Icon" transform="translate(23 8)">
    <g transform="matrix(1, 0, 0, 1, -23, -8)" filter="url(#Tracé_145)">
      <path id="Tracé_145-2" data-name="Tracé 145" d="M68.157,96.246c-25,0-55.072-25.354-55.072-50.355,0-21.151,18.725-47.06,39.368-48.352,17.373.318,23.917,9.165,39.6,21.607,13.905,11.03,29.4,12.016,29.3,26.745C121.358,70.893,93.158,96.246,68.157,96.246Z" transform="translate(9.91 10.46)" stroke="#707070" stroke-width="1" fill="url(#linear-gradient)"/>
    </g>
    <path id="wind-mill" d="M64.543,31.582a1.269,1.269,0,0,0-1.171-.78H58.464a1.269,1.269,0,1,0,0,2.538h1.867l-12.36,12.5L37.235,34.981a5.471,5.471,0,0,0,.686-1.641H52.71a1.269,1.269,0,1,0,0-2.538h-3.3V16.67a1.284,1.284,0,0,0-.377-.9L33.463.367a1.27,1.27,0,0,0-2.162.9V15.231H28.17a1.269,1.269,0,0,0,0,2.539H31.3v8.95a5.46,5.46,0,0,0-1.591.655l-9.5-9.6h2.037a1.269,1.269,0,0,0,0-2.539H17.169a1.284,1.284,0,0,0-.9.377L.866,31.178a1.27,1.27,0,0,0,.9,2.162H15.73V47.471a1.3,1.3,0,0,0,.012.168c0,.014,0,.028.007.043a1.3,1.3,0,0,0,.036.157l0,.007a1.263,1.263,0,0,0,.058.15l.019.039a1.223,1.223,0,0,0,.074.131l.007.011a1.246,1.246,0,0,0,.1.128l.029.032c.012.012.022.025.033.037l10.271,10.16c5.021,5.12,3.729,3.644,5.3,5.241a1.269,1.269,0,0,0,2.162-.9V48.91h1.354c12.664.027,12.778,0,12.778,0h0a1.264,1.264,0,0,0,.935-.414L64.274,32.963a1.268,1.268,0,0,0,.269-1.381c-.2-.473.2.473,0,0ZM32.57,29.109a2.962,2.962,0,1,1-2.962,2.962,2.853,2.853,0,0,1,.016-.3c0-.01,0-.019,0-.029a2.966,2.966,0,0,1,2.943-2.632ZM37.924,30.8h0a5.457,5.457,0,0,0-.655-1.591l0,0h0l4.922-4.868,4.68-4.63V30.8H37.924ZM33.839,4.31l12.5,12.36-2.583,2.554L35.484,27.4a5.484,5.484,0,0,0-1.644-.686Zm-16.67,14L20.4,21.567l7.507,7.59a5.5,5.5,0,0,0-.686,1.644H4.809ZM27.216,33.34s0,.007.006.011a5.454,5.454,0,0,0,.647,1.572s0,.007,0,.01l-9.6,9.5V33.34ZM31.3,59.832l-1.726-1.707L18.8,47.471,29.66,36.735a5.475,5.475,0,0,0,1.641.686v22.41Zm2.538-22.407v0a5.467,5.467,0,0,0,1.589-.653h0l6.274,6.344,3.223,3.258H33.84V37.425Zm0,0" transform="translate(21.566 17.283)" fill="#fff"/>
  </g>
</svg>
